<svg width="191" height="208" viewBox="0 0 191 208" fill="none" xmlns="http://www.w3.org/2000/svg">
<g filter="url(#filter0_d_1_50)">
<rect x="4" width="183" height="200" fill="#D9D9D9" fill-opacity="0.41"/>
<mask id="path-2-outside-1_1_50" maskUnits="userSpaceOnUse" x="83" y="31" width="27" height="144" fill="black">
<rect fill="white" x="83" y="31" width="27" height="144"/>
<path d="M86.3447 169.094C86.3447 166.001 86.4261 161.2 86.5889 154.689C86.9144 148.016 87.1585 140.529 87.3213 132.229C87.6468 123.928 87.9723 115.22 88.2979 106.105C88.6234 96.9909 88.8675 88.2832 89.0303 79.9824C89.3558 71.6816 89.5999 64.276 89.7627 57.7656C89.9255 51.2552 90.0882 46.3724 90.251 43.1172C89.9255 39.5365 90.5765 37.2578 92.2041 36.2812C93.8317 35.3047 95.6221 34.8164 97.5752 34.8164C99.6911 34.8164 101.481 34.9792 102.946 35.3047C104.574 35.6302 105.713 36.9323 106.364 39.2109L102.458 164.699C102.132 167.629 99.8538 169.745 95.6221 171.047C91.3903 172.186 88.2979 171.535 86.3447 169.094Z"/>
</mask>
<path d="M86.3447 169.094C86.3447 166.001 86.4261 161.2 86.5889 154.689C86.9144 148.016 87.1585 140.529 87.3213 132.229C87.6468 123.928 87.9723 115.22 88.2979 106.105C88.6234 96.9909 88.8675 88.2832 89.0303 79.9824C89.3558 71.6816 89.5999 64.276 89.7627 57.7656C89.9255 51.2552 90.0882 46.3724 90.251 43.1172C89.9255 39.5365 90.5765 37.2578 92.2041 36.2812C93.8317 35.3047 95.6221 34.8164 97.5752 34.8164C99.6911 34.8164 101.481 34.9792 102.946 35.3047C104.574 35.6302 105.713 36.9323 106.364 39.2109L102.458 164.699C102.132 167.629 99.8538 169.745 95.6221 171.047C91.3903 172.186 88.2979 171.535 86.3447 169.094Z" fill="#E68F1E"/>
<path d="M86.3447 169.094H83.3447V170.146L84.0021 170.968L86.3447 169.094ZM86.5889 154.689L83.5924 154.543L83.5907 154.579L83.5898 154.614L86.5889 154.689ZM87.3213 132.229L84.3236 132.111L84.3224 132.14L84.3219 132.17L87.3213 132.229ZM89.0303 79.9824L86.0326 79.8649L86.0314 79.8942L86.0308 79.9236L89.0303 79.9824ZM90.251 43.1172L93.2472 43.267L93.2578 43.056L93.2387 42.8456L90.251 43.1172ZM102.946 35.3047L102.295 38.2332L102.327 38.2402L102.358 38.2464L102.946 35.3047ZM106.364 39.2109L109.363 39.3043L109.377 38.8366L109.249 38.3868L106.364 39.2109ZM102.458 164.699L105.44 165.031L105.453 164.912L105.457 164.793L102.458 164.699ZM95.6221 171.047L96.402 173.944L96.4534 173.93L96.5043 173.914L95.6221 171.047ZM89.3447 169.094C89.3447 166.041 89.4253 161.271 89.5879 154.764L83.5898 154.614C83.4269 161.129 83.3447 165.962 83.3447 169.094H89.3447ZM89.5853 154.836C89.9125 148.127 90.1575 140.611 90.3207 132.287L84.3219 132.17C84.1595 140.448 83.9162 147.905 83.5924 154.543L89.5853 154.836ZM90.319 132.346C90.6447 124.041 90.9703 115.33 91.2959 106.213L85.2998 105.998C84.9744 115.11 84.649 123.814 84.3236 132.111L90.319 132.346ZM91.2959 106.213C91.622 97.0834 91.8666 88.3596 92.0297 80.0412L86.0308 79.9236C85.8684 88.2068 85.6248 96.8983 85.2998 105.998L91.2959 106.213ZM92.028 80.1C92.3539 71.7887 92.5986 64.3684 92.7618 57.8406L86.7636 57.6906C86.6013 64.1836 86.3577 71.5746 86.0326 79.8649L92.028 80.1ZM92.7618 57.8406C92.9244 51.3358 93.0864 46.4834 93.2472 43.267L87.2547 42.9674C87.09 46.2614 86.9265 51.1747 86.7636 57.6906L92.7618 57.8406ZM93.2387 42.8456C93.0938 41.2525 93.1942 40.1959 93.3797 39.5468C93.5505 38.949 93.7383 38.8593 93.7476 38.8537L90.6606 33.7088C87.3927 35.6695 86.9274 39.694 87.2633 43.3888L93.2387 42.8456ZM93.7476 38.8537C94.895 38.1653 96.1493 37.8164 97.5752 37.8164V31.8164C95.0949 31.8164 92.7684 32.4441 90.6606 33.7088L93.7476 38.8537ZM97.5752 37.8164C99.5537 37.8164 101.111 37.9701 102.295 38.2332L103.597 32.3761C101.851 31.9882 99.8284 31.8164 97.5752 31.8164V37.8164ZM102.358 38.2464C102.495 38.2739 102.609 38.3243 102.764 38.5009C102.955 38.7198 103.233 39.1728 103.48 40.0351L109.249 38.3868C108.439 35.5515 106.711 32.9983 103.535 32.3629L102.358 38.2464ZM103.366 39.1176L99.4595 164.606L105.457 164.793L109.363 39.3043L103.366 39.1176ZM99.4764 164.368C99.3449 165.551 98.4857 167.027 94.7398 168.18L96.5043 173.914C101.222 172.463 104.92 169.707 105.44 165.031L99.4764 164.368ZM94.8421 168.15C91.2178 169.126 89.5976 168.357 88.6873 167.22L84.0021 170.968C86.9981 174.713 91.5628 175.247 96.402 173.944L94.8421 168.15Z" fill="black" mask="url(#path-2-outside-1_1_50)"/>
</g>
<defs>
<filter id="filter0_d_1_50" x="0" y="0" width="191" height="208" filterUnits="userSpaceOnUse" color-interpolation-filters="sRGB">
<feFlood flood-opacity="0" result="BackgroundImageFix"/>
<feColorMatrix in="SourceAlpha" type="matrix" values="0 0 0 0 0 0 0 0 0 0 0 0 0 0 0 0 0 0 127 0" result="hardAlpha"/>
<feOffset dy="4"/>
<feGaussianBlur stdDeviation="2"/>
<feComposite in2="hardAlpha" operator="out"/>
<feColorMatrix type="matrix" values="0 0 0 0 0 0 0 0 0 0 0 0 0 0 0 0 0 0 0.25 0"/>
<feBlend mode="normal" in2="BackgroundImageFix" result="effect1_dropShadow_1_50"/>
<feBlend mode="normal" in="SourceGraphic" in2="effect1_dropShadow_1_50" result="shape"/>
</filter>
</defs>
</svg>
