<svg width="191" height="208" viewBox="0 0 191 208" fill="none" xmlns="http://www.w3.org/2000/svg">
<g filter="url(#filter0_d_1_51)">
<rect x="4" width="183" height="200" fill="#D9D9D9" fill-opacity="0.41"/>
<mask id="path-2-outside-1_1_51" maskUnits="userSpaceOnUse" x="24" y="27" width="143" height="147" fill="black">
<rect fill="white" x="24" y="27" width="143" height="147"/>
<path d="M155.314 132.229C160.686 132.229 163.371 134.263 163.371 138.332C163.371 142.401 161.581 145.412 158 147.365C154.419 149.156 150.35 150.458 145.793 151.271C141.398 152.085 137.248 152.574 133.342 152.736C129.436 152.736 126.913 152.899 125.773 153.225C124.797 153.387 122.437 154.038 118.693 155.178C115.113 156.154 110.799 157.375 105.754 158.84C100.708 160.142 95.2559 161.607 89.3965 163.234C71.0046 168.117 56.3561 170.559 45.4512 170.559C39.9173 170.559 36.1738 169.745 34.2207 168.117C32.4303 166.327 32.1048 163.885 33.2441 160.793C45.4512 150.051 58.1465 136.216 71.3301 119.289C91.0241 94.0612 100.871 74.3672 100.871 60.207C100.871 57.4401 100.464 54.8359 99.6504 52.3945C97.86 47.349 93.2214 44.0938 85.7344 42.6289C78.5729 42.6289 72.7135 44.0938 68.1562 47.0234C63.599 49.9531 59.2858 53.2083 55.2168 56.7891C51.3105 60.3698 47.2415 63.625 43.0098 66.5547C38.9408 69.4844 33.8952 70.9492 27.873 70.9492C28.0358 65.5781 30.2331 60.3698 34.4648 55.3242C42.9284 44.9076 54.8913 37.4206 70.3535 32.8633C75.8874 31.0729 80.2819 30.1777 83.5371 30.1777C86.7923 30.1777 89.2337 30.2591 90.8613 30.4219C97.209 31.0729 102.661 33.3516 107.219 37.2578C111.776 41.1641 114.462 47.1862 115.275 55.3242C115.275 78.2734 104.533 103.745 83.0488 131.74C77.1895 139.39 71.4115 146.47 65.7148 152.98C67.5052 153.143 70.2721 153.225 74.0156 153.225C77.9219 153.225 83.2116 152.329 89.8848 150.539C96.5579 148.586 103.638 146.307 111.125 143.703C118.612 140.936 126.018 138.332 133.342 135.891C140.666 133.449 147.99 132.229 155.314 132.229Z"/>
</mask>
<path d="M155.314 132.229C160.686 132.229 163.371 134.263 163.371 138.332C163.371 142.401 161.581 145.412 158 147.365C154.419 149.156 150.35 150.458 145.793 151.271C141.398 152.085 137.248 152.574 133.342 152.736C129.436 152.736 126.913 152.899 125.773 153.225C124.797 153.387 122.437 154.038 118.693 155.178C115.113 156.154 110.799 157.375 105.754 158.84C100.708 160.142 95.2559 161.607 89.3965 163.234C71.0046 168.117 56.3561 170.559 45.4512 170.559C39.9173 170.559 36.1738 169.745 34.2207 168.117C32.4303 166.327 32.1048 163.885 33.2441 160.793C45.4512 150.051 58.1465 136.216 71.3301 119.289C91.0241 94.0612 100.871 74.3672 100.871 60.207C100.871 57.4401 100.464 54.8359 99.6504 52.3945C97.86 47.349 93.2214 44.0938 85.7344 42.6289C78.5729 42.6289 72.7135 44.0938 68.1562 47.0234C63.599 49.9531 59.2858 53.2083 55.2168 56.7891C51.3105 60.3698 47.2415 63.625 43.0098 66.5547C38.9408 69.4844 33.8952 70.9492 27.873 70.9492C28.0358 65.5781 30.2331 60.3698 34.4648 55.3242C42.9284 44.9076 54.8913 37.4206 70.3535 32.8633C75.8874 31.0729 80.2819 30.1777 83.5371 30.1777C86.7923 30.1777 89.2337 30.2591 90.8613 30.4219C97.209 31.0729 102.661 33.3516 107.219 37.2578C111.776 41.1641 114.462 47.1862 115.275 55.3242C115.275 78.2734 104.533 103.745 83.0488 131.74C77.1895 139.39 71.4115 146.47 65.7148 152.98C67.5052 153.143 70.2721 153.225 74.0156 153.225C77.9219 153.225 83.2116 152.329 89.8848 150.539C96.5579 148.586 103.638 146.307 111.125 143.703C118.612 140.936 126.018 138.332 133.342 135.891C140.666 133.449 147.99 132.229 155.314 132.229Z" fill="#E68F1E"/>
<path d="M158 147.365L159.342 150.049L159.39 150.025L159.437 149.999L158 147.365ZM145.793 151.271L145.266 148.318L145.256 148.32L145.247 148.322L145.793 151.271ZM133.342 152.736V155.736H133.404L133.467 155.734L133.342 152.736ZM125.773 153.225L126.267 156.184L126.434 156.156L126.598 156.109L125.773 153.225ZM118.693 155.178L119.483 158.072L119.525 158.061L119.567 158.048L118.693 155.178ZM105.754 158.84L106.504 161.745L106.547 161.733L106.59 161.721L105.754 158.84ZM89.3965 163.234L90.1663 166.134L90.1829 166.13L90.1994 166.125L89.3965 163.234ZM34.2207 168.117L32.0994 170.239L32.1956 170.335L32.3001 170.422L34.2207 168.117ZM33.2441 160.793L31.2623 158.541L30.6918 159.043L30.4291 159.756L33.2441 160.793ZM71.3301 119.289L68.9653 117.443L68.9632 117.446L71.3301 119.289ZM99.6504 52.3945L102.496 51.4458L102.487 51.4185L102.478 51.3913L99.6504 52.3945ZM85.7344 42.6289L86.3104 39.6847L86.0251 39.6289H85.7344V42.6289ZM55.2168 56.7891L53.2349 54.5369L53.2121 54.557L53.1896 54.5776L55.2168 56.7891ZM43.0098 66.5547L41.3021 64.0881L41.2793 64.1039L41.2569 64.1201L43.0098 66.5547ZM27.873 70.9492L24.8744 70.8584L24.7808 73.9492H27.873V70.9492ZM34.4648 55.3242L36.7634 57.2521L36.7784 57.2341L36.7932 57.216L34.4648 55.3242ZM70.3535 32.8633L71.2017 35.7409L71.2395 35.7297L71.277 35.7176L70.3535 32.8633ZM90.8613 30.4219L91.1674 27.4375L91.1598 27.4368L90.8613 30.4219ZM115.275 55.3242H118.275V55.1746L118.261 55.0257L115.275 55.3242ZM83.0488 131.74L80.6689 129.914L80.6672 129.916L83.0488 131.74ZM65.7148 152.98L63.4571 151.005L59.5807 155.435L65.4432 155.968L65.7148 152.98ZM89.8848 150.539L90.6622 153.437L90.6949 153.428L90.7275 153.418L89.8848 150.539ZM111.125 143.703L112.111 146.537L112.138 146.527L112.165 146.517L111.125 143.703ZM155.314 135.229C157.707 135.229 158.953 135.697 159.545 136.146C159.981 136.476 160.371 137.018 160.371 138.332H166.371C166.371 135.577 165.418 133.068 163.169 131.363C161.076 129.778 158.293 129.229 155.314 129.229V135.229ZM160.371 138.332C160.371 139.915 160.027 141.138 159.45 142.109C158.872 143.08 157.96 143.97 156.563 144.732L159.437 149.999C161.621 148.808 163.394 147.215 164.607 145.175C165.82 143.135 166.371 140.818 166.371 138.332H160.371ZM156.658 144.682C153.371 146.326 149.583 147.547 145.266 148.318L146.32 154.225C151.117 153.368 155.467 151.986 159.342 150.049L156.658 144.682ZM145.247 148.322C140.972 149.113 136.963 149.583 133.217 149.739L133.467 155.734C137.533 155.564 141.825 155.057 146.339 154.221L145.247 148.322ZM133.342 149.736C131.355 149.736 129.677 149.778 128.327 149.865C127.036 149.948 125.848 150.083 124.949 150.34L126.598 156.109C126.838 156.04 127.481 155.932 128.713 155.852C129.886 155.777 131.423 155.736 133.342 155.736V149.736ZM125.28 150.265C124.067 150.468 121.495 151.189 117.82 152.308L119.567 158.048C123.379 156.888 125.527 156.307 126.267 156.184L125.28 150.265ZM117.904 152.283C114.303 153.266 109.973 154.491 104.917 155.959L106.59 161.721C111.626 160.259 115.923 159.043 119.483 158.072L117.904 152.283ZM105.004 155.935C99.9383 157.242 94.4678 158.712 88.5936 160.344L90.1994 166.125C96.0439 164.501 101.478 163.041 106.504 161.745L105.004 155.935ZM88.6267 160.335C70.3292 165.193 55.9729 167.559 45.4512 167.559V173.559C56.7394 173.559 71.6799 171.042 90.1663 166.134L88.6267 160.335ZM45.4512 167.559C42.8128 167.559 40.723 167.363 39.1305 167.017C37.5114 166.665 36.606 166.2 36.1413 165.813L32.3001 170.422C33.7885 171.662 35.7314 172.418 37.8559 172.88C40.0068 173.347 42.5557 173.559 45.4512 173.559V167.559ZM36.342 165.996C35.6413 165.295 35.1782 164.221 36.0592 161.83L30.4291 159.756C29.0314 163.55 29.2194 167.359 32.0994 170.239L36.342 165.996ZM35.226 163.045C47.6102 152.147 60.4322 138.164 73.6969 121.132L68.9632 117.446C55.8608 134.269 43.2921 147.955 31.2623 158.541L35.226 163.045ZM73.6948 121.135C83.6146 108.428 91.1263 97.0249 96.1691 86.9393C101.197 76.8844 103.871 67.9405 103.871 60.207H97.8711C97.8711 66.6337 95.6221 74.6169 90.8026 84.256C85.9983 93.8645 78.7396 104.922 68.9653 117.443L73.6948 121.135ZM103.871 60.207C103.871 57.1419 103.42 54.2153 102.496 51.4458L96.8043 53.3432C97.5088 55.4565 97.8711 57.7383 97.8711 60.207H103.871ZM102.478 51.3913C100.193 44.9525 94.3494 41.2576 86.3104 39.6847L85.1583 45.5731C92.0933 46.9299 95.5271 49.7454 96.8231 53.3978L102.478 51.3913ZM85.7344 39.6289C78.179 39.6289 71.7079 41.1738 66.534 44.4999L69.7785 49.547C73.7192 47.0137 78.9668 45.6289 85.7344 45.6289V39.6289ZM66.534 44.4999C61.8501 47.5109 57.4168 50.8569 53.2349 54.5369L57.1987 59.0412C61.1548 55.5598 65.3478 52.3953 69.7785 49.547L66.534 44.4999ZM53.1896 54.5776C49.381 58.0688 45.4185 61.2383 41.3021 64.0881L44.7174 69.0213C49.0646 66.0117 53.2401 62.6707 57.244 59.0005L53.1896 54.5776ZM41.2569 64.1201C37.7943 66.6131 33.3955 67.9492 27.873 67.9492V73.9492C34.3949 73.9492 40.0872 72.3556 44.7627 68.9893L41.2569 64.1201ZM30.8717 71.0401C31.0097 66.4836 32.8643 61.901 36.7634 57.2521L32.1663 53.3964C27.6018 58.8386 25.0619 64.6726 24.8744 70.8584L30.8717 71.0401ZM36.7932 57.216C44.8029 47.3579 56.2021 40.1618 71.2017 35.7409L69.5054 29.9857C53.5805 34.6793 41.0539 42.4572 32.1365 53.4324L36.7932 57.216ZM71.277 35.7176C76.7081 33.9605 80.7502 33.1777 83.5371 33.1777V27.1777C79.8136 27.1777 75.0666 28.1853 69.4301 30.0089L71.277 35.7176ZM83.5371 33.1777C86.7697 33.1777 89.0893 33.2596 90.5628 33.407L91.1598 27.4368C89.3781 27.2586 86.8149 27.1777 83.5371 27.1777V33.1777ZM90.5552 33.4062C96.3355 33.9991 101.203 36.0527 105.266 39.5356L109.171 34.98C104.12 30.6504 98.0825 28.1468 91.1674 27.4375L90.5552 33.4062ZM105.266 39.5356C109.052 42.7805 111.525 47.9693 112.29 55.6227L118.261 55.0257C117.398 46.4031 114.5 39.5476 109.171 34.98L105.266 39.5356ZM112.275 55.3242C112.275 77.342 101.955 102.177 80.6689 129.914L85.4288 133.567C107.111 105.314 118.275 79.2049 118.275 55.3242H112.275ZM80.6672 129.916C74.8431 137.52 69.1063 144.549 63.4571 151.005L67.9726 154.956C73.7166 148.391 79.5358 141.26 85.4305 133.564L80.6672 129.916ZM65.4432 155.968C67.3763 156.144 70.2564 156.225 74.0156 156.225V150.225C70.2878 150.225 67.6342 150.143 65.9865 149.993L65.4432 155.968ZM74.0156 156.225C78.3115 156.225 83.8977 155.251 90.6622 153.437L89.1074 147.642C82.5254 149.407 77.5323 150.225 74.0156 150.225V156.225ZM90.7275 153.418C97.4547 151.449 104.583 149.155 112.111 146.537L110.139 140.87C102.693 143.46 95.6612 145.723 89.0421 147.66L90.7275 153.418ZM112.165 146.517C119.623 143.761 126.998 141.168 134.29 138.737L132.393 133.045C125.037 135.497 117.601 138.111 110.085 140.889L112.165 146.517ZM134.29 138.737C141.325 136.392 148.33 135.229 155.314 135.229V129.229C147.651 129.229 140.007 130.507 132.393 133.045L134.29 138.737Z" fill="black" mask="url(#path-2-outside-1_1_51)"/>
</g>
<defs>
<filter id="filter0_d_1_51" x="0" y="0" width="191" height="208" filterUnits="userSpaceOnUse" color-interpolation-filters="sRGB">
<feFlood flood-opacity="0" result="BackgroundImageFix"/>
<feColorMatrix in="SourceAlpha" type="matrix" values="0 0 0 0 0 0 0 0 0 0 0 0 0 0 0 0 0 0 127 0" result="hardAlpha"/>
<feOffset dy="4"/>
<feGaussianBlur stdDeviation="2"/>
<feComposite in2="hardAlpha" operator="out"/>
<feColorMatrix type="matrix" values="0 0 0 0 0 0 0 0 0 0 0 0 0 0 0 0 0 0 0.25 0"/>
<feBlend mode="normal" in2="BackgroundImageFix" result="effect1_dropShadow_1_51"/>
<feBlend mode="normal" in="SourceGraphic" in2="effect1_dropShadow_1_51" result="shape"/>
</filter>
</defs>
</svg>
