<svg width="191" height="208" viewBox="0 0 191 208" fill="none" xmlns="http://www.w3.org/2000/svg">
<g filter="url(#filter0_d_1_54)">
<rect x="4" width="183" height="200" fill="#D9D9D9" fill-opacity="0.41"/>
<mask id="path-2-outside-1_1_54" maskUnits="userSpaceOnUse" x="31" y="33" width="126" height="144" fill="black">
<rect fill="white" x="31" y="33" width="126" height="144"/>
<path d="M149.577 49.2207C149.577 58.9863 141.765 70.4609 126.14 83.6445C122.233 86.737 118.897 89.5039 116.13 91.9453C136.149 92.2708 148.112 96.9909 152.019 106.105C152.832 108.221 153.239 110.419 153.239 112.697C153.239 114.976 152.588 118.068 151.286 121.975C150.147 125.718 147.624 130.194 143.718 135.402C139.812 140.611 135.091 145.656 129.558 150.539C118.002 160.63 105.795 167.629 92.9365 171.535C88.542 172.837 84.9613 173.488 82.1943 173.488C79.5902 173.488 77.4743 173.407 75.8467 173.244C74.2191 173.244 72.5101 172.756 70.7197 171.779C68.9294 170.803 68.0342 169.175 68.0342 166.896C80.2412 163.804 90.9834 159.41 100.261 153.713C109.538 148.016 116.862 142.076 122.233 135.891C128.581 128.241 131.755 121.893 131.755 116.848C131.755 111.802 130.209 108.384 127.116 106.594C124.024 104.803 120.036 103.908 115.153 103.908C102.784 103.908 85.9378 108.954 64.6162 119.045L56.0713 108.059C105.388 85.2721 130.046 68.9147 130.046 58.9863C130.046 54.7546 125.407 51.9876 116.13 50.6855C106.527 50.6855 95.5407 52.3132 83.1709 55.5684C70.9639 58.8236 61.5238 61.1836 54.8506 62.6484C48.1774 64.1133 41.3415 64.8457 34.3428 64.8457C34.3428 57.196 36.2145 52.7201 39.958 51.418C46.7939 49.7904 54.0368 48 61.6865 46.0469C86.7516 39.6992 106.771 36.5254 121.745 36.5254C136.882 36.5254 146.159 40.7572 149.577 49.2207Z"/>
</mask>
<path d="M149.577 49.2207C149.577 58.9863 141.765 70.4609 126.14 83.6445C122.233 86.737 118.897 89.5039 116.13 91.9453C136.149 92.2708 148.112 96.9909 152.019 106.105C152.832 108.221 153.239 110.419 153.239 112.697C153.239 114.976 152.588 118.068 151.286 121.975C150.147 125.718 147.624 130.194 143.718 135.402C139.812 140.611 135.091 145.656 129.558 150.539C118.002 160.63 105.795 167.629 92.9365 171.535C88.542 172.837 84.9613 173.488 82.1943 173.488C79.5902 173.488 77.4743 173.407 75.8467 173.244C74.2191 173.244 72.5101 172.756 70.7197 171.779C68.9294 170.803 68.0342 169.175 68.0342 166.896C80.2412 163.804 90.9834 159.41 100.261 153.713C109.538 148.016 116.862 142.076 122.233 135.891C128.581 128.241 131.755 121.893 131.755 116.848C131.755 111.802 130.209 108.384 127.116 106.594C124.024 104.803 120.036 103.908 115.153 103.908C102.784 103.908 85.9378 108.954 64.6162 119.045L56.0713 108.059C105.388 85.2721 130.046 68.9147 130.046 58.9863C130.046 54.7546 125.407 51.9876 116.13 50.6855C106.527 50.6855 95.5407 52.3132 83.1709 55.5684C70.9639 58.8236 61.5238 61.1836 54.8506 62.6484C48.1774 64.1133 41.3415 64.8457 34.3428 64.8457C34.3428 57.196 36.2145 52.7201 39.958 51.418C46.7939 49.7904 54.0368 48 61.6865 46.0469C86.7516 39.6992 106.771 36.5254 121.745 36.5254C136.882 36.5254 146.159 40.7572 149.577 49.2207Z" fill="#E68F1E"/>
<path d="M149.577 49.2207H152.577V48.6378L152.359 48.0973L149.577 49.2207ZM126.14 83.6445L128.002 85.9967L128.038 85.9676L128.074 85.9374L126.14 83.6445ZM116.13 91.9453L114.145 89.6958L108.339 94.819L116.081 94.9449L116.13 91.9453ZM152.019 106.105L154.819 105.029L154.798 104.976L154.776 104.924L152.019 106.105ZM151.286 121.975L148.44 121.026L148.428 121.063L148.416 121.101L151.286 121.975ZM129.558 150.539L131.531 152.799L131.537 152.794L131.542 152.789L129.558 150.539ZM92.9365 171.535L93.7888 174.412L93.7987 174.409L93.8086 174.406L92.9365 171.535ZM75.8467 173.244L76.1452 170.259L75.9963 170.244H75.8467V173.244ZM68.0342 166.896L67.2975 163.988L65.0342 164.562V166.896H68.0342ZM122.233 135.891L124.498 137.858L124.521 137.832L124.542 137.806L122.233 135.891ZM64.6162 119.045L62.2482 120.887L63.7251 122.786L65.8996 121.757L64.6162 119.045ZM56.0713 108.059L54.813 105.335L51.3846 106.919L53.7032 109.9L56.0713 108.059ZM116.13 50.6855L116.547 47.7147L116.339 47.6855H116.13V50.6855ZM83.1709 55.5684L82.4074 52.6671L82.3979 52.6697L83.1709 55.5684ZM34.3428 64.8457H31.3428V67.8457H34.3428V64.8457ZM39.958 51.418L39.2631 48.4996L39.1156 48.5347L38.9724 48.5845L39.958 51.418ZM61.6865 46.0469L60.95 43.1387L60.9444 43.1401L61.6865 46.0469ZM146.577 49.2207C146.577 53.2966 144.942 58.0216 141.238 63.4625C137.539 68.8955 131.898 74.861 124.205 81.3517L128.074 85.9374C136.007 79.2445 142.084 72.8809 146.198 66.8393C150.306 60.8055 152.577 54.9104 152.577 49.2207H146.577ZM124.278 81.2924C120.343 84.4073 116.963 87.2094 114.145 89.6958L118.115 94.1948C120.831 91.7985 124.124 89.0666 128.002 85.9967L124.278 81.2924ZM116.081 94.9449C125.909 95.1047 133.503 96.345 139.016 98.5201C144.483 100.677 147.709 103.666 149.261 107.287L154.776 104.924C152.422 99.4301 147.713 95.5016 141.218 92.9389C134.768 90.3939 126.371 89.1114 116.179 88.9457L116.081 94.9449ZM149.219 107.182C149.899 108.953 150.239 110.785 150.239 112.697H156.239C156.239 110.052 155.765 107.49 154.819 105.029L149.219 107.182ZM150.239 112.697C150.239 114.492 149.709 117.221 148.44 121.026L154.132 122.923C155.468 118.916 156.239 115.46 156.239 112.697H150.239ZM148.416 121.101C147.424 124.362 145.135 128.513 141.318 133.602L146.118 137.202C150.113 131.875 152.87 127.074 154.156 122.848L148.416 121.101ZM141.318 133.602C137.549 138.627 132.973 143.524 127.573 148.29L131.542 152.789C137.21 147.788 142.074 142.594 146.118 137.202L141.318 133.602ZM127.584 148.279C116.303 158.131 104.463 164.898 92.0645 168.665L93.8086 174.406C107.127 170.36 119.7 163.13 131.531 152.799L127.584 148.279ZM92.0843 168.659C87.8104 169.925 84.5458 170.488 82.1943 170.488V176.488C85.3767 176.488 89.2735 175.749 93.7888 174.412L92.0843 168.659ZM82.1943 170.488C79.639 170.488 77.6334 170.408 76.1452 170.259L75.5482 176.229C77.3152 176.406 79.5413 176.488 82.1943 176.488V170.488ZM75.8467 170.244C74.8326 170.244 73.6155 169.942 72.1563 169.146L69.2832 174.413C71.4047 175.57 73.6056 176.244 75.8467 176.244V170.244ZM72.1563 169.146C71.4602 168.766 71.0342 168.234 71.0342 166.896H65.0342C65.0342 170.116 66.3985 172.84 69.2832 174.413L72.1563 169.146ZM68.7709 169.805C81.2268 166.649 92.2581 162.147 101.831 156.269L98.691 151.156C89.7087 156.672 79.2556 160.959 67.2975 163.988L68.7709 169.805ZM101.831 156.269C111.288 150.462 118.873 144.335 124.498 137.858L119.968 133.924C114.851 139.816 107.788 145.57 98.691 151.156L101.831 156.269ZM124.542 137.806C130.967 130.064 134.755 123.01 134.755 116.848H128.755C128.755 120.777 126.195 126.418 119.925 133.975L124.542 137.806ZM134.755 116.848C134.755 111.223 132.996 106.532 128.619 103.997L125.613 109.19C127.421 110.237 128.755 112.382 128.755 116.848H134.755ZM128.619 103.997C124.933 101.863 120.379 100.908 115.153 100.908V106.908C119.694 106.908 123.115 107.744 125.613 109.19L128.619 103.997ZM115.153 100.908C102.098 100.908 84.7561 106.194 63.3328 116.333L65.8996 121.757C87.1195 111.714 103.469 106.908 115.153 106.908V100.908ZM66.9843 117.203L58.4393 106.217L53.7032 109.9L62.2482 120.887L66.9843 117.203ZM57.3296 110.782C82.0324 99.3681 100.69 89.5066 113.211 81.2006C119.462 77.0536 124.301 73.2183 127.61 69.6906C130.831 66.2573 133.046 62.6498 133.046 58.9863H127.046C127.046 60.287 126.178 62.4474 123.235 65.5856C120.379 68.6293 115.972 72.169 109.894 76.2007C97.7566 84.2522 79.4266 93.9626 54.813 105.335L57.3296 110.782ZM133.046 58.9863C133.046 55.5167 131.042 52.9137 128.104 51.1608C125.277 49.4746 121.333 48.3864 116.547 47.7147L115.713 53.6564C120.204 54.2867 123.218 55.2331 125.03 56.3138C126.73 57.3279 127.046 58.2242 127.046 58.9863H133.046ZM116.13 47.6855C106.2 47.6855 94.9495 49.3666 82.4074 52.6671L83.9344 58.4696C96.1319 55.2597 106.854 53.6855 116.13 53.6855V47.6855ZM82.3979 52.6697C70.2044 55.9213 60.815 58.2677 54.2074 59.7182L55.4938 65.5787C62.2325 64.0994 71.7233 61.7259 83.9439 58.4671L82.3979 52.6697ZM54.2074 59.7182C47.7506 61.1356 41.1305 61.8457 34.3428 61.8457V67.8457C41.5525 67.8457 48.6043 67.091 55.4938 65.5787L54.2074 59.7182ZM37.3428 64.8457C37.3428 61.2147 37.7945 58.6302 38.5143 56.9089C39.2011 55.2667 40.0536 54.561 40.9436 54.2515L38.9724 48.5845C36.1189 49.577 34.1639 51.7603 32.9788 54.594C31.8269 57.3486 31.3428 60.827 31.3428 64.8457H37.3428ZM40.6529 54.3364C47.5064 52.7046 54.7651 50.9103 62.4287 48.9536L60.9444 43.1401C53.3085 45.0897 46.0815 46.8761 39.2631 48.4996L40.6529 54.3364ZM62.423 48.9551C87.3944 42.6311 107.136 39.5254 121.745 39.5254V33.5254C106.407 33.5254 86.1088 36.7673 60.95 43.1387L62.423 48.9551ZM121.745 39.5254C136.552 39.5254 144.097 43.6613 146.795 50.3441L152.359 48.0973C148.222 37.8531 137.212 33.5254 121.745 33.5254V39.5254Z" fill="black" mask="url(#path-2-outside-1_1_54)"/>
</g>
<defs>
<filter id="filter0_d_1_54" x="0" y="0" width="191" height="208" filterUnits="userSpaceOnUse" color-interpolation-filters="sRGB">
<feFlood flood-opacity="0" result="BackgroundImageFix"/>
<feColorMatrix in="SourceAlpha" type="matrix" values="0 0 0 0 0 0 0 0 0 0 0 0 0 0 0 0 0 0 127 0" result="hardAlpha"/>
<feOffset dy="4"/>
<feGaussianBlur stdDeviation="2"/>
<feComposite in2="hardAlpha" operator="out"/>
<feColorMatrix type="matrix" values="0 0 0 0 0 0 0 0 0 0 0 0 0 0 0 0 0 0 0.25 0"/>
<feBlend mode="normal" in2="BackgroundImageFix" result="effect1_dropShadow_1_54"/>
<feBlend mode="normal" in="SourceGraphic" in2="effect1_dropShadow_1_54" result="shape"/>
</filter>
</defs>
</svg>
