<svg width="191" height="208" viewBox="0 0 191 208" fill="none" xmlns="http://www.w3.org/2000/svg">
<g filter="url(#filter0_d_2_2)">
<rect x="4" width="183" height="200" fill="#D9D9D9" fill-opacity="0.41"/>
<mask id="path-2-outside-1_2_2" maskUnits="userSpaceOnUse" x="25" y="29" width="155" height="151" fill="black">
<rect fill="white" x="25" y="29" width="155" height="151"/>
<path d="M107.341 176.662C103.923 176.662 101.97 175.686 101.481 173.732L102.458 125.393H84.6357L55.3389 125.148H37.7607C35.6449 125.148 33.529 124.823 31.4131 124.172C29.2972 123.521 28.2393 121.812 28.2393 119.045C36.8656 107.977 45.2477 96.8281 53.3857 85.5977C79.2646 50.2786 97.0055 32.6191 106.608 32.6191C117.351 32.6191 122.722 51.4993 122.722 89.2598C122.722 94.1426 122.64 99.3509 122.478 104.885L176.433 104.152C176.433 108.384 175.863 111.477 174.724 113.43C173.747 115.383 172.852 116.441 172.038 116.604L126.872 120.266C124.593 126.613 123.21 133.775 122.722 141.75C121.908 154.771 121.501 165.676 121.501 174.465L107.341 176.662ZM102.458 55.3242C98.8773 60.207 94.4827 65.0085 89.2744 69.7285C84.2288 74.2858 79.2646 78.9245 74.3818 83.6445C69.499 88.2018 65.1045 92.8405 61.1982 97.5605C57.292 102.281 54.8506 107.163 53.874 112.209C55.0133 112.209 57.5361 112.209 61.4424 112.209C65.3486 112.209 70.9639 111.802 78.2881 110.988C85.6123 110.012 93.6689 109.035 102.458 108.059V55.3242Z"/>
</mask>
<path d="M107.341 176.662C103.923 176.662 101.97 175.686 101.481 173.732L102.458 125.393H84.6357L55.3389 125.148H37.7607C35.6449 125.148 33.529 124.823 31.4131 124.172C29.2972 123.521 28.2393 121.812 28.2393 119.045C36.8656 107.977 45.2477 96.8281 53.3857 85.5977C79.2646 50.2786 97.0055 32.6191 106.608 32.6191C117.351 32.6191 122.722 51.4993 122.722 89.2598C122.722 94.1426 122.64 99.3509 122.478 104.885L176.433 104.152C176.433 108.384 175.863 111.477 174.724 113.43C173.747 115.383 172.852 116.441 172.038 116.604L126.872 120.266C124.593 126.613 123.21 133.775 122.722 141.75C121.908 154.771 121.501 165.676 121.501 174.465L107.341 176.662ZM102.458 55.3242C98.8773 60.207 94.4827 65.0085 89.2744 69.7285C84.2288 74.2858 79.2646 78.9245 74.3818 83.6445C69.499 88.2018 65.1045 92.8405 61.1982 97.5605C57.292 102.281 54.8506 107.163 53.874 112.209C55.0133 112.209 57.5361 112.209 61.4424 112.209C65.3486 112.209 70.9639 111.802 78.2881 110.988C85.6123 110.012 93.6689 109.035 102.458 108.059V55.3242Z" fill="#E68F1E"/>
<path d="M107.341 176.662V179.662H107.572L107.801 179.627L107.341 176.662ZM101.481 173.732L98.4821 173.672L98.474 174.072L98.571 174.46L101.481 173.732ZM102.458 125.393L105.457 125.453L105.519 122.393H102.458V125.393ZM84.6357 125.393L84.6107 128.392L84.6232 128.393H84.6357V125.393ZM55.3389 125.148L55.3639 122.149L55.3514 122.148H55.3389V125.148ZM28.2393 119.045L25.8731 117.201L25.2393 118.014V119.045H28.2393ZM53.3857 85.5977L50.9658 83.8245L50.9611 83.8309L50.9565 83.8373L53.3857 85.5977ZM122.478 104.885L119.479 104.797L119.387 107.927L122.518 107.884L122.478 104.885ZM176.433 104.152H179.433V101.111L176.392 101.153L176.433 104.152ZM174.724 113.43L172.132 111.918L172.084 112.002L172.04 112.088L174.724 113.43ZM172.038 116.604L172.281 119.594L172.455 119.58L172.626 119.545L172.038 116.604ZM126.872 120.266L126.63 117.275L124.702 117.432L124.048 119.252L126.872 120.266ZM122.722 141.75L125.716 141.937L125.716 141.933L122.722 141.75ZM121.501 174.465L121.961 177.429L124.501 177.035V174.465H121.501ZM102.458 55.3242H105.458V46.1603L100.039 53.5501L102.458 55.3242ZM89.2744 69.7285L91.2853 71.9548L91.289 71.9515L89.2744 69.7285ZM74.3818 83.6445L76.4288 85.8377L76.448 85.8198L76.4669 85.8015L74.3818 83.6445ZM53.874 112.209L50.9287 111.639L50.2377 115.209H53.874V112.209ZM78.2881 110.988L78.6194 113.97L78.652 113.966L78.6846 113.962L78.2881 110.988ZM102.458 108.059L102.789 111.04L105.458 110.744V108.059H102.458ZM107.341 173.662C105.861 173.662 105.044 173.441 104.654 173.246C104.483 173.161 104.431 173.099 104.427 173.094C104.423 173.089 104.42 173.085 104.416 173.077C104.413 173.07 104.403 173.048 104.392 173.005L98.571 174.46C99.0471 176.364 100.286 177.771 101.971 178.613C103.534 179.395 105.403 179.662 107.341 179.662V173.662ZM104.481 173.793L105.457 125.453L99.4586 125.332L98.4821 173.672L104.481 173.793ZM102.458 122.393H84.6357V128.393H102.458V122.393ZM84.6607 122.393L55.3639 122.149L55.3139 128.148L84.6107 128.392L84.6607 122.393ZM55.3389 122.148H37.7607V128.148H55.3389V122.148ZM37.7607 122.148C35.9575 122.148 34.1387 121.872 32.2953 121.305L30.5308 127.039C32.9193 127.774 35.3322 128.148 37.7607 128.148V122.148ZM32.2953 121.305C31.8554 121.169 31.6907 120.996 31.5835 120.823C31.439 120.589 31.2393 120.073 31.2393 119.045H25.2393C25.2393 120.784 25.5685 122.505 26.4819 123.981C27.4327 125.517 28.8549 126.524 30.5308 127.039L32.2953 121.305ZM30.6054 120.889C39.253 109.794 47.6562 98.6171 55.815 87.358L50.9565 83.8373C42.8392 95.0391 34.4781 106.16 25.8731 117.201L30.6054 120.889ZM55.8057 87.3708C68.7104 69.7587 79.5088 56.6582 88.217 47.99C92.5738 43.6532 96.3336 40.5005 99.5079 38.4504C102.741 36.3627 105.061 35.6191 106.608 35.6191V29.6191C103.355 29.6191 99.8561 31.0831 96.2528 33.4102C92.5912 35.775 88.4978 39.2446 83.9841 43.7376C74.9515 52.7288 63.94 66.1176 50.9658 83.8245L55.8057 87.3708ZM106.608 35.6191C108.275 35.6191 109.833 36.2992 111.376 38.1067C112.995 40.0033 114.522 43.0797 115.808 47.6002C118.376 56.6293 119.722 70.4513 119.722 89.2598H125.722C125.722 70.3078 124.381 55.8095 121.579 45.9584C120.179 41.0388 118.35 37.0351 115.94 34.2117C113.454 31.2991 110.313 29.6191 106.608 29.6191V35.6191ZM119.722 89.2598C119.722 94.1096 119.641 99.2883 119.479 104.797L125.476 104.973C125.64 99.4135 125.722 94.1756 125.722 89.2598H119.722ZM122.518 107.884L176.473 107.152L176.392 101.153L122.437 101.885L122.518 107.884ZM173.433 104.152C173.433 108.243 172.859 110.672 172.132 111.918L177.315 114.941C178.867 112.281 179.433 108.525 179.433 104.152H173.433ZM172.04 112.088C171.605 112.958 171.261 113.477 171.03 113.75C170.919 113.881 170.879 113.902 170.92 113.872C170.963 113.842 171.142 113.723 171.45 113.662L172.626 119.545C174.014 119.268 174.993 118.355 175.61 117.626C176.274 116.841 176.865 115.854 177.407 114.771L172.04 112.088ZM171.796 113.613L126.63 117.275L127.115 123.256L172.281 119.594L171.796 113.613ZM124.048 119.252C121.658 125.911 120.23 133.359 119.727 141.567L125.716 141.933C126.19 134.191 127.529 127.316 129.696 121.279L124.048 119.252ZM119.728 141.563C118.911 154.619 118.501 165.591 118.501 174.465H124.501C124.501 165.76 124.904 154.922 125.716 141.937L119.728 141.563ZM121.041 171.5L106.881 173.698L107.801 179.627L121.961 177.429L121.041 171.5ZM100.039 53.5501C96.5947 58.2466 92.3418 62.9 87.2599 67.5056L91.289 71.9515C96.6237 67.1169 101.16 62.1675 104.877 57.0983L100.039 53.5501ZM87.2636 67.5022C82.1929 72.0822 77.204 76.744 72.2968 81.4876L76.4669 85.8015C81.3253 81.105 86.2648 76.4894 91.2853 71.9548L87.2636 67.5022ZM72.3349 81.4514C67.3664 86.0886 62.8822 90.8204 58.8871 95.6478L63.5094 99.4733C67.3268 94.8606 71.6317 90.315 76.4288 85.8377L72.3349 81.4514ZM58.8871 95.6478C54.7218 100.681 52.0176 106.013 50.9287 111.639L56.8194 112.779C57.6836 108.314 59.8622 103.88 63.5094 99.4733L58.8871 95.6478ZM53.874 115.209C53.8762 115.209 53.8785 115.209 53.8807 115.209C53.883 115.209 53.8852 115.209 53.8874 115.209C53.8897 115.209 53.8919 115.209 53.8942 115.209C53.8964 115.209 53.8987 115.209 53.901 115.209C53.9032 115.209 53.9055 115.209 53.9078 115.209C53.9101 115.209 53.9124 115.209 53.9146 115.209C53.9169 115.209 53.9192 115.209 53.9215 115.209C53.9238 115.209 53.9261 115.209 53.9284 115.209C53.9308 115.209 53.9331 115.209 53.9354 115.209C53.9377 115.209 53.94 115.209 53.9424 115.209C53.9447 115.209 53.947 115.209 53.9494 115.209C53.9517 115.209 53.9541 115.209 53.9564 115.209C53.9588 115.209 53.9611 115.209 53.9635 115.209C53.9658 115.209 53.9682 115.209 53.9706 115.209C53.973 115.209 53.9753 115.209 53.9777 115.209C53.9801 115.209 53.9825 115.209 53.9849 115.209C53.9873 115.209 53.9897 115.209 53.9921 115.209C53.9945 115.209 53.9969 115.209 53.9993 115.209C54.0017 115.209 54.0042 115.209 54.0066 115.209C54.009 115.209 54.0114 115.209 54.0139 115.209C54.0163 115.209 54.0187 115.209 54.0212 115.209C54.0236 115.209 54.0261 115.209 54.0286 115.209C54.031 115.209 54.0335 115.209 54.0359 115.209C54.0384 115.209 54.0409 115.209 54.0434 115.209C54.0458 115.209 54.0483 115.209 54.0508 115.209C54.0533 115.209 54.0558 115.209 54.0583 115.209C54.0608 115.209 54.0633 115.209 54.0658 115.209C54.0683 115.209 54.0708 115.209 54.0734 115.209C54.0759 115.209 54.0784 115.209 54.0809 115.209C54.0835 115.209 54.086 115.209 54.0885 115.209C54.0911 115.209 54.0936 115.209 54.0962 115.209C54.0987 115.209 54.1013 115.209 54.1039 115.209C54.1064 115.209 54.109 115.209 54.1116 115.209C54.1141 115.209 54.1167 115.209 54.1193 115.209C54.1219 115.209 54.1245 115.209 54.1271 115.209C54.1297 115.209 54.1323 115.209 54.1349 115.209C54.1375 115.209 54.1401 115.209 54.1427 115.209C54.1453 115.209 54.1479 115.209 54.1506 115.209C54.1532 115.209 54.1558 115.209 54.1585 115.209C54.1611 115.209 54.1637 115.209 54.1664 115.209C54.169 115.209 54.1717 115.209 54.1743 115.209C54.177 115.209 54.1797 115.209 54.1823 115.209C54.185 115.209 54.1877 115.209 54.1904 115.209C54.193 115.209 54.1957 115.209 54.1984 115.209C54.2011 115.209 54.2038 115.209 54.2065 115.209C54.2092 115.209 54.2119 115.209 54.2146 115.209C54.2173 115.209 54.22 115.209 54.2228 115.209C54.2255 115.209 54.2282 115.209 54.2309 115.209C54.2337 115.209 54.2364 115.209 54.2391 115.209C54.2419 115.209 54.2446 115.209 54.2474 115.209C54.2501 115.209 54.2529 115.209 54.2557 115.209C54.2584 115.209 54.2612 115.209 54.264 115.209C54.2667 115.209 54.2695 115.209 54.2723 115.209C54.2751 115.209 54.2779 115.209 54.2807 115.209C54.2835 115.209 54.2863 115.209 54.2891 115.209C54.2919 115.209 54.2947 115.209 54.2975 115.209C54.3003 115.209 54.3032 115.209 54.306 115.209C54.3088 115.209 54.3116 115.209 54.3145 115.209C54.3173 115.209 54.3202 115.209 54.323 115.209C54.3259 115.209 54.3287 115.209 54.3316 115.209C54.3344 115.209 54.3373 115.209 54.3402 115.209C54.343 115.209 54.3459 115.209 54.3488 115.209C54.3517 115.209 54.3545 115.209 54.3574 115.209C54.3603 115.209 54.3632 115.209 54.3661 115.209C54.369 115.209 54.3719 115.209 54.3748 115.209C54.3777 115.209 54.3807 115.209 54.3836 115.209C54.3865 115.209 54.3894 115.209 54.3924 115.209C54.3953 115.209 54.3982 115.209 54.4012 115.209C54.4041 115.209 54.4071 115.209 54.41 115.209C54.413 115.209 54.4159 115.209 54.4189 115.209C54.4219 115.209 54.4248 115.209 54.4278 115.209C54.4308 115.209 54.4338 115.209 54.4368 115.209C54.4397 115.209 54.4427 115.209 54.4457 115.209C54.4487 115.209 54.4517 115.209 54.4547 115.209C54.4577 115.209 54.4607 115.209 54.4638 115.209C54.4668 115.209 54.4698 115.209 54.4728 115.209C54.4759 115.209 54.4789 115.209 54.4819 115.209C54.485 115.209 54.488 115.209 54.4911 115.209C54.4941 115.209 54.4972 115.209 54.5002 115.209C54.5033 115.209 54.5063 115.209 54.5094 115.209C54.5125 115.209 54.5156 115.209 54.5186 115.209C54.5217 115.209 54.5248 115.209 54.5279 115.209C54.531 115.209 54.5341 115.209 54.5372 115.209C54.5403 115.209 54.5434 115.209 54.5465 115.209C54.5496 115.209 54.5527 115.209 54.5558 115.209C54.559 115.209 54.5621 115.209 54.5652 115.209C54.5684 115.209 54.5715 115.209 54.5746 115.209C54.5778 115.209 54.5809 115.209 54.5841 115.209C54.5872 115.209 54.5904 115.209 54.5936 115.209C54.5967 115.209 54.5999 115.209 54.6031 115.209C54.6063 115.209 54.6094 115.209 54.6126 115.209C54.6158 115.209 54.619 115.209 54.6222 115.209C54.6254 115.209 54.6286 115.209 54.6318 115.209C54.635 115.209 54.6382 115.209 54.6414 115.209C54.6447 115.209 54.6479 115.209 54.6511 115.209C54.6543 115.209 54.6576 115.209 54.6608 115.209C54.664 115.209 54.6673 115.209 54.6705 115.209C54.6738 115.209 54.677 115.209 54.6803 115.209C54.6836 115.209 54.6868 115.209 54.6901 115.209C54.6934 115.209 54.6966 115.209 54.6999 115.209C54.7032 115.209 54.7065 115.209 54.7098 115.209C54.7131 115.209 54.7164 115.209 54.7197 115.209C54.723 115.209 54.7263 115.209 54.7296 115.209C54.7329 115.209 54.7362 115.209 54.7395 115.209C54.7429 115.209 54.7462 115.209 54.7495 115.209C54.7529 115.209 54.7562 115.209 54.7595 115.209C54.7629 115.209 54.7662 115.209 54.7696 115.209C54.7729 115.209 54.7763 115.209 54.7797 115.209C54.783 115.209 54.7864 115.209 54.7898 115.209C54.7932 115.209 54.7965 115.209 54.7999 115.209C54.8033 115.209 54.8067 115.209 54.8101 115.209C54.8135 115.209 54.8169 115.209 54.8203 115.209C54.8237 115.209 54.8271 115.209 54.8305 115.209C54.834 115.209 54.8374 115.209 54.8408 115.209C54.8442 115.209 54.8477 115.209 54.8511 115.209C54.8546 115.209 54.858 115.209 54.8614 115.209C54.8649 115.209 54.8684 115.209 54.8718 115.209C54.8753 115.209 54.8787 115.209 54.8822 115.209C54.8857 115.209 54.8892 115.209 54.8926 115.209C54.8961 115.209 54.8996 115.209 54.9031 115.209C54.9066 115.209 54.9101 115.209 54.9136 115.209C54.9171 115.209 54.9206 115.209 54.9241 115.209C54.9276 115.209 54.9311 115.209 54.9347 115.209C54.9382 115.209 54.9417 115.209 54.9453 115.209C54.9488 115.209 54.9523 115.209 54.9559 115.209C54.9594 115.209 54.963 115.209 54.9665 115.209C54.9701 115.209 54.9736 115.209 54.9772 115.209C54.9808 115.209 54.9843 115.209 54.9879 115.209C54.9915 115.209 54.9951 115.209 54.9987 115.209C55.0022 115.209 55.0058 115.209 55.0094 115.209C55.013 115.209 55.0166 115.209 55.0202 115.209C55.0239 115.209 55.0275 115.209 55.0311 115.209C55.0347 115.209 55.0383 115.209 55.042 115.209C55.0456 115.209 55.0492 115.209 55.0529 115.209C55.0565 115.209 55.0601 115.209 55.0638 115.209C55.0674 115.209 55.0711 115.209 55.0748 115.209C55.0784 115.209 55.0821 115.209 55.0858 115.209C55.0894 115.209 55.0931 115.209 55.0968 115.209C55.1005 115.209 55.1042 115.209 55.1078 115.209C55.1115 115.209 55.1152 115.209 55.1189 115.209C55.1226 115.209 55.1264 115.209 55.1301 115.209C55.1338 115.209 55.1375 115.209 55.1412 115.209C55.1449 115.209 55.1487 115.209 55.1524 115.209C55.1561 115.209 55.1599 115.209 55.1636 115.209C55.1674 115.209 55.1711 115.209 55.1749 115.209C55.1786 115.209 55.1824 115.209 55.1862 115.209C55.1899 115.209 55.1937 115.209 55.1975 115.209C55.2013 115.209 55.205 115.209 55.2088 115.209C55.2126 115.209 55.2164 115.209 55.2202 115.209C55.224 115.209 55.2278 115.209 55.2316 115.209C55.2354 115.209 55.2392 115.209 55.2431 115.209C55.2469 115.209 55.2507 115.209 55.2545 115.209C55.2584 115.209 55.2622 115.209 55.266 115.209C55.2699 115.209 55.2737 115.209 55.2776 115.209C55.2814 115.209 55.2853 115.209 55.2891 115.209C55.293 115.209 55.2969 115.209 55.3007 115.209C55.3046 115.209 55.3085 115.209 55.3124 115.209C55.3162 115.209 55.3201 115.209 55.324 115.209C55.3279 115.209 55.3318 115.209 55.3357 115.209C55.3396 115.209 55.3435 115.209 55.3475 115.209C55.3514 115.209 55.3553 115.209 55.3592 115.209C55.3631 115.209 55.3671 115.209 55.371 115.209C55.3749 115.209 55.3789 115.209 55.3828 115.209C55.3868 115.209 55.3907 115.209 55.3947 115.209C55.3986 115.209 55.4026 115.209 55.4066 115.209C55.4105 115.209 55.4145 115.209 55.4185 115.209C55.4225 115.209 55.4264 115.209 55.4304 115.209C55.4344 115.209 55.4384 115.209 55.4424 115.209C55.4464 115.209 55.4504 115.209 55.4544 115.209C55.4584 115.209 55.4624 115.209 55.4665 115.209C55.4705 115.209 55.4745 115.209 55.4785 115.209C55.4826 115.209 55.4866 115.209 55.4906 115.209C55.4947 115.209 55.4987 115.209 55.5028 115.209C55.5068 115.209 55.5109 115.209 55.5149 115.209C55.519 115.209 55.5231 115.209 55.5271 115.209C55.5312 115.209 55.5353 115.209 55.5394 115.209C55.5435 115.209 55.5475 115.209 55.5516 115.209C55.5557 115.209 55.5598 115.209 55.5639 115.209C55.568 115.209 55.5722 115.209 55.5763 115.209C55.5804 115.209 55.5845 115.209 55.5886 115.209C55.5928 115.209 55.5969 115.209 55.601 115.209C55.6052 115.209 55.6093 115.209 55.6134 115.209C55.6176 115.209 55.6217 115.209 55.6259 115.209C55.6301 115.209 55.6342 115.209 55.6384 115.209C55.6425 115.209 55.6467 115.209 55.6509 115.209C55.6551 115.209 55.6593 115.209 55.6634 115.209C55.6676 115.209 55.6718 115.209 55.676 115.209C55.6802 115.209 55.6844 115.209 55.6886 115.209C55.6929 115.209 55.6971 115.209 55.7013 115.209C55.7055 115.209 55.7097 115.209 55.714 115.209C55.7182 115.209 55.7224 115.209 55.7267 115.209C55.7309 115.209 55.7352 115.209 55.7394 115.209C55.7437 115.209 55.7479 115.209 55.7522 115.209C55.7564 115.209 55.7607 115.209 55.765 115.209C55.7693 115.209 55.7735 115.209 55.7778 115.209C55.7821 115.209 55.7864 115.209 55.7907 115.209C55.795 115.209 55.7993 115.209 55.8036 115.209C55.8079 115.209 55.8122 115.209 55.8165 115.209C55.8208 115.209 55.8251 115.209 55.8295 115.209C55.8338 115.209 55.8381 115.209 55.8425 115.209C55.8468 115.209 55.8511 115.209 55.8555 115.209C55.8598 115.209 55.8642 115.209 55.8685 115.209C55.8729 115.209 55.8773 115.209 55.8816 115.209C55.886 115.209 55.8904 115.209 55.8948 115.209C55.8991 115.209 55.9035 115.209 55.9079 115.209C55.9123 115.209 55.9167 115.209 55.9211 115.209C55.9255 115.209 55.9299 115.209 55.9343 115.209C55.9387 115.209 55.9431 115.209 55.9475 115.209C55.952 115.209 55.9564 115.209 55.9608 115.209C55.9653 115.209 55.9697 115.209 55.9741 115.209C55.9786 115.209 55.983 115.209 55.9875 115.209C55.9919 115.209 55.9964 115.209 56.0009 115.209C56.0053 115.209 56.0098 115.209 56.0143 115.209C56.0187 115.209 56.0232 115.209 56.0277 115.209C56.0322 115.209 56.0367 115.209 56.0412 115.209C56.0457 115.209 56.0502 115.209 56.0547 115.209C56.0592 115.209 56.0637 115.209 56.0682 115.209C56.0727 115.209 56.0772 115.209 56.0818 115.209C56.0863 115.209 56.0908 115.209 56.0953 115.209C56.0999 115.209 56.1044 115.209 56.109 115.209C56.1135 115.209 56.1181 115.209 56.1226 115.209C56.1272 115.209 56.1318 115.209 56.1363 115.209C56.1409 115.209 56.1455 115.209 56.15 115.209C56.1546 115.209 56.1592 115.209 56.1638 115.209C56.1684 115.209 56.173 115.209 56.1776 115.209C56.1822 115.209 56.1868 115.209 56.1914 115.209C56.196 115.209 56.2006 115.209 56.2052 115.209C56.2099 115.209 56.2145 115.209 56.2191 115.209C56.2238 115.209 56.2284 115.209 56.233 115.209C56.2377 115.209 56.2423 115.209 56.247 115.209C56.2516 115.209 56.2563 115.209 56.261 115.209C56.2656 115.209 56.2703 115.209 56.275 115.209C56.2796 115.209 56.2843 115.209 56.289 115.209C56.2937 115.209 56.2984 115.209 56.3031 115.209C56.3078 115.209 56.3125 115.209 56.3172 115.209C56.3219 115.209 56.3266 115.209 56.3313 115.209C56.336 115.209 56.3407 115.209 56.3455 115.209C56.3502 115.209 56.3549 115.209 56.3597 115.209C56.3644 115.209 56.3691 115.209 56.3739 115.209C56.3786 115.209 56.3834 115.209 56.3881 115.209C56.3929 115.209 56.3977 115.209 56.4024 115.209C56.4072 115.209 56.412 115.209 56.4168 115.209C56.4215 115.209 56.4263 115.209 56.4311 115.209C56.4359 115.209 56.4407 115.209 56.4455 115.209C56.4503 115.209 56.4551 115.209 56.4599 115.209C56.4647 115.209 56.4695 115.209 56.4744 115.209C56.4792 115.209 56.484 115.209 56.4889 115.209C56.4937 115.209 56.4985 115.209 56.5034 115.209C56.5082 115.209 56.5131 115.209 56.5179 115.209C56.5228 115.209 56.5276 115.209 56.5325 115.209C56.5373 115.209 56.5422 115.209 56.5471 115.209C56.552 115.209 56.5568 115.209 56.5617 115.209C56.5666 115.209 56.5715 115.209 56.5764 115.209C56.5813 115.209 56.5862 115.209 56.5911 115.209C56.596 115.209 56.6009 115.209 56.6058 115.209C56.6108 115.209 56.6157 115.209 56.6206 115.209C56.6255 115.209 56.6305 115.209 56.6354 115.209C56.6403 115.209 56.6453 115.209 56.6502 115.209C56.6552 115.209 56.6601 115.209 56.6651 115.209C56.6701 115.209 56.675 115.209 56.68 115.209C56.685 115.209 56.6899 115.209 56.6949 115.209C56.6999 115.209 56.7049 115.209 56.7099 115.209C56.7149 115.209 56.7199 115.209 56.7249 115.209C56.7299 115.209 56.7349 115.209 56.7399 115.209C56.7449 115.209 56.7499 115.209 56.7549 115.209C56.7599 115.209 56.765 115.209 56.77 115.209C56.775 115.209 56.7801 115.209 56.7851 115.209C56.7902 115.209 56.7952 115.209 56.8003 115.209C56.8053 115.209 56.8104 115.209 56.8154 115.209C56.8205 115.209 56.8256 115.209 56.8307 115.209C56.8357 115.209 56.8408 115.209 56.8459 115.209C56.851 115.209 56.8561 115.209 56.8612 115.209C56.8663 115.209 56.8714 115.209 56.8765 115.209C56.8816 115.209 56.8867 115.209 56.8918 115.209C56.8969 115.209 56.9021 115.209 56.9072 115.209C56.9123 115.209 56.9174 115.209 56.9226 115.209C56.9277 115.209 56.9329 115.209 56.938 115.209C56.9432 115.209 56.9483 115.209 56.9535 115.209C56.9586 115.209 56.9638 115.209 56.969 115.209C56.9741 115.209 56.9793 115.209 56.9845 115.209C56.9897 115.209 56.9949 115.209 57 115.209C57.0052 115.209 57.0104 115.209 57.0156 115.209C57.0208 115.209 57.026 115.209 57.0313 115.209C57.0365 115.209 57.0417 115.209 57.0469 115.209C57.0521 115.209 57.0574 115.209 57.0626 115.209C57.0678 115.209 57.0731 115.209 57.0783 115.209C57.0836 115.209 57.0888 115.209 57.0941 115.209C57.0993 115.209 57.1046 115.209 57.1098 115.209C57.1151 115.209 57.1204 115.209 57.1257 115.209C57.1309 115.209 57.1362 115.209 57.1415 115.209C57.1468 115.209 57.1521 115.209 57.1574 115.209C57.1627 115.209 57.168 115.209 57.1733 115.209C57.1786 115.209 57.1839 115.209 57.1892 115.209C57.1945 115.209 57.1999 115.209 57.2052 115.209C57.2105 115.209 57.2158 115.209 57.2212 115.209C57.2265 115.209 57.2319 115.209 57.2372 115.209C57.2426 115.209 57.2479 115.209 57.2533 115.209C57.2586 115.209 57.264 115.209 57.2694 115.209C57.2747 115.209 57.2801 115.209 57.2855 115.209C57.2909 115.209 57.2963 115.209 57.3017 115.209C57.3071 115.209 57.3125 115.209 57.3179 115.209C57.3233 115.209 57.3287 115.209 57.3341 115.209C57.3395 115.209 57.3449 115.209 57.3503 115.209C57.3558 115.209 57.3612 115.209 57.3666 115.209C57.3721 115.209 57.3775 115.209 57.3829 115.209C57.3884 115.209 57.3938 115.209 57.3993 115.209C57.4047 115.209 57.4102 115.209 57.4157 115.209C57.4211 115.209 57.4266 115.209 57.4321 115.209C57.4376 115.209 57.443 115.209 57.4485 115.209C57.454 115.209 57.4595 115.209 57.465 115.209C57.4705 115.209 57.476 115.209 57.4815 115.209C57.487 115.209 57.4925 115.209 57.498 115.209C57.5036 115.209 57.5091 115.209 57.5146 115.209C57.5201 115.209 57.5257 115.209 57.5312 115.209C57.5368 115.209 57.5423 115.209 57.5479 115.209C57.5534 115.209 57.559 115.209 57.5645 115.209C57.5701 115.209 57.5756 115.209 57.5812 115.209C57.5868 115.209 57.5924 115.209 57.5979 115.209C57.6035 115.209 57.6091 115.209 57.6147 115.209C57.6203 115.209 57.6259 115.209 57.6315 115.209C57.6371 115.209 57.6427 115.209 57.6483 115.209C57.6539 115.209 57.6596 115.209 57.6652 115.209C57.6708 115.209 57.6764 115.209 57.6821 115.209C57.6877 115.209 57.6933 115.209 57.699 115.209C57.7046 115.209 57.7103 115.209 57.7159 115.209C57.7216 115.209 57.7273 115.209 57.7329 115.209C57.7386 115.209 57.7443 115.209 57.7499 115.209C57.7556 115.209 57.7613 115.209 57.767 115.209C57.7727 115.209 57.7784 115.209 57.7841 115.209C57.7898 115.209 57.7955 115.209 57.8012 115.209C57.8069 115.209 57.8126 115.209 57.8183 115.209C57.824 115.209 57.8298 115.209 57.8355 115.209C57.8412 115.209 57.8469 115.209 57.8527 115.209C57.8584 115.209 57.8642 115.209 57.8699 115.209C57.8757 115.209 57.8814 115.209 57.8872 115.209C57.893 115.209 57.8987 115.209 57.9045 115.209C57.9103 115.209 57.916 115.209 57.9218 115.209C57.9276 115.209 57.9334 115.209 57.9392 115.209C57.945 115.209 57.9508 115.209 57.9566 115.209C57.9624 115.209 57.9682 115.209 57.974 115.209C57.9798 115.209 57.9856 115.209 57.9915 115.209C57.9973 115.209 58.0031 115.209 58.009 115.209C58.0148 115.209 58.0206 115.209 58.0265 115.209C58.0323 115.209 58.0382 115.209 58.044 115.209C58.0499 115.209 58.0557 115.209 58.0616 115.209C58.0675 115.209 58.0733 115.209 58.0792 115.209C58.0851 115.209 58.091 115.209 58.0969 115.209C58.1028 115.209 58.1087 115.209 58.1146 115.209C58.1204 115.209 58.1264 115.209 58.1323 115.209C58.1382 115.209 58.1441 115.209 58.15 115.209C58.1559 115.209 58.1618 115.209 58.1678 115.209C58.1737 115.209 58.1796 115.209 58.1856 115.209C58.1915 115.209 58.1975 115.209 58.2034 115.209C58.2094 115.209 58.2153 115.209 58.2213 115.209C58.2273 115.209 58.2332 115.209 58.2392 115.209C58.2452 115.209 58.2511 115.209 58.2571 115.209C58.2631 115.209 58.2691 115.209 58.2751 115.209C58.2811 115.209 58.2871 115.209 58.2931 115.209C58.2991 115.209 58.3051 115.209 58.3111 115.209C58.3171 115.209 58.3231 115.209 58.3292 115.209C58.3352 115.209 58.3412 115.209 58.3473 115.209C58.3533 115.209 58.3593 115.209 58.3654 115.209C58.3714 115.209 58.3775 115.209 58.3835 115.209C58.3896 115.209 58.3957 115.209 58.4017 115.209C58.4078 115.209 58.4139 115.209 58.4199 115.209C58.426 115.209 58.4321 115.209 58.4382 115.209C58.4443 115.209 58.4504 115.209 58.4565 115.209C58.4626 115.209 58.4687 115.209 58.4748 115.209C58.4809 115.209 58.487 115.209 58.4931 115.209C58.4993 115.209 58.5054 115.209 58.5115 115.209C58.5176 115.209 58.5238 115.209 58.5299 115.209C58.5361 115.209 58.5422 115.209 58.5484 115.209C58.5545 115.209 58.5607 115.209 58.5668 115.209C58.573 115.209 58.5792 115.209 58.5853 115.209C58.5915 115.209 58.5977 115.209 58.6039 115.209C58.61 115.209 58.6162 115.209 58.6224 115.209C58.6286 115.209 58.6348 115.209 58.641 115.209C58.6472 115.209 58.6534 115.209 58.6597 115.209C58.6659 115.209 58.6721 115.209 58.6783 115.209C58.6845 115.209 58.6908 115.209 58.697 115.209C58.7032 115.209 58.7095 115.209 58.7157 115.209C58.722 115.209 58.7282 115.209 58.7345 115.209C58.7407 115.209 58.747 115.209 58.7533 115.209C58.7595 115.209 58.7658 115.209 58.7721 115.209C58.7784 115.209 58.7847 115.209 58.7909 115.209C58.7972 115.209 58.8035 115.209 58.8098 115.209C58.8161 115.209 58.8224 115.209 58.8287 115.209C58.8351 115.209 58.8414 115.209 58.8477 115.209C58.854 115.209 58.8603 115.209 58.8667 115.209C58.873 115.209 58.8793 115.209 58.8857 115.209C58.892 115.209 58.8984 115.209 58.9047 115.209C58.9111 115.209 58.9174 115.209 58.9238 115.209C58.9302 115.209 58.9365 115.209 58.9429 115.209C58.9493 115.209 58.9556 115.209 58.962 115.209C58.9684 115.209 58.9748 115.209 58.9812 115.209C58.9876 115.209 58.994 115.209 59.0004 115.209C59.0068 115.209 59.0132 115.209 59.0196 115.209C59.026 115.209 59.0325 115.209 59.0389 115.209C59.0453 115.209 59.0517 115.209 59.0582 115.209C59.0646 115.209 59.0711 115.209 59.0775 115.209C59.084 115.209 59.0904 115.209 59.0969 115.209C59.1033 115.209 59.1098 115.209 59.1163 115.209C59.1227 115.209 59.1292 115.209 59.1357 115.209C59.1422 115.209 59.1486 115.209 59.1551 115.209C59.1616 115.209 59.1681 115.209 59.1746 115.209C59.1811 115.209 59.1876 115.209 59.1941 115.209C59.2006 115.209 59.2072 115.209 59.2137 115.209C59.2202 115.209 59.2267 115.209 59.2333 115.209C59.2398 115.209 59.2463 115.209 59.2529 115.209C59.2594 115.209 59.266 115.209 59.2725 115.209C59.2791 115.209 59.2856 115.209 59.2922 115.209C59.2987 115.209 59.3053 115.209 59.3119 115.209C59.3185 115.209 59.325 115.209 59.3316 115.209C59.3382 115.209 59.3448 115.209 59.3514 115.209C59.358 115.209 59.3646 115.209 59.3712 115.209C59.3778 115.209 59.3844 115.209 59.391 115.209C59.3976 115.209 59.4043 115.209 59.4109 115.209C59.4175 115.209 59.4242 115.209 59.4308 115.209C59.4374 115.209 59.4441 115.209 59.4507 115.209C59.4574 115.209 59.464 115.209 59.4707 115.209C59.4773 115.209 59.484 115.209 59.4907 115.209C59.4973 115.209 59.504 115.209 59.5107 115.209C59.5174 115.209 59.5241 115.209 59.5307 115.209C59.5374 115.209 59.5441 115.209 59.5508 115.209C59.5575 115.209 59.5642 115.209 59.5709 115.209C59.5777 115.209 59.5844 115.209 59.5911 115.209C59.5978 115.209 59.6045 115.209 59.6113 115.209C59.618 115.209 59.6247 115.209 59.6315 115.209C59.6382 115.209 59.645 115.209 59.6517 115.209C59.6585 115.209 59.6652 115.209 59.672 115.209C59.6788 115.209 59.6855 115.209 59.6923 115.209C59.6991 115.209 59.7059 115.209 59.7127 115.209C59.7194 115.209 59.7262 115.209 59.733 115.209C59.7398 115.209 59.7466 115.209 59.7534 115.209C59.7602 115.209 59.767 115.209 59.7739 115.209C59.7807 115.209 59.7875 115.209 59.7943 115.209C59.8012 115.209 59.808 115.209 59.8148 115.209C59.8217 115.209 59.8285 115.209 59.8354 115.209C59.8422 115.209 59.8491 115.209 59.8559 115.209C59.8628 115.209 59.8696 115.209 59.8765 115.209C59.8834 115.209 59.8903 115.209 59.8971 115.209C59.904 115.209 59.9109 115.209 59.9178 115.209C59.9247 115.209 59.9316 115.209 59.9385 115.209C59.9454 115.209 59.9523 115.209 59.9592 115.209C59.9661 115.209 59.973 115.209 59.9799 115.209C59.9869 115.209 59.9938 115.209 60.0007 115.209C60.0077 115.209 60.0146 115.209 60.0215 115.209C60.0285 115.209 60.0354 115.209 60.0424 115.209C60.0493 115.209 60.0563 115.209 60.0633 115.209C60.0702 115.209 60.0772 115.209 60.0842 115.209C60.0912 115.209 60.0981 115.209 60.1051 115.209C60.1121 115.209 60.1191 115.209 60.1261 115.209C60.1331 115.209 60.1401 115.209 60.1471 115.209C60.1541 115.209 60.1611 115.209 60.1681 115.209C60.1751 115.209 60.1822 115.209 60.1892 115.209C60.1962 115.209 60.2033 115.209 60.2103 115.209C60.2173 115.209 60.2244 115.209 60.2314 115.209C60.2385 115.209 60.2455 115.209 60.2526 115.209C60.2596 115.209 60.2667 115.209 60.2738 115.209C60.2809 115.209 60.2879 115.209 60.295 115.209C60.3021 115.209 60.3092 115.209 60.3163 115.209C60.3234 115.209 60.3305 115.209 60.3376 115.209C60.3447 115.209 60.3518 115.209 60.3589 115.209C60.366 115.209 60.3731 115.209 60.3802 115.209C60.3874 115.209 60.3945 115.209 60.4016 115.209C60.4087 115.209 60.4159 115.209 60.423 115.209C60.4302 115.209 60.4373 115.209 60.4445 115.209C60.4516 115.209 60.4588 115.209 60.466 115.209C60.4731 115.209 60.4803 115.209 60.4875 115.209C60.4946 115.209 60.5018 115.209 60.509 115.209C60.5162 115.209 60.5234 115.209 60.5306 115.209C60.5378 115.209 60.545 115.209 60.5522 115.209C60.5594 115.209 60.5666 115.209 60.5738 115.209C60.581 115.209 60.5883 115.209 60.5955 115.209C60.6027 115.209 60.61 115.209 60.6172 115.209C60.6244 115.209 60.6317 115.209 60.6389 115.209C60.6462 115.209 60.6534 115.209 60.6607 115.209C60.668 115.209 60.6752 115.209 60.6825 115.209C60.6898 115.209 60.697 115.209 60.7043 115.209C60.7116 115.209 60.7189 115.209 60.7262 115.209C60.7335 115.209 60.7408 115.209 60.7481 115.209C60.7554 115.209 60.7627 115.209 60.77 115.209C60.7773 115.209 60.7846 115.209 60.7919 115.209C60.7993 115.209 60.8066 115.209 60.8139 115.209C60.8213 115.209 60.8286 115.209 60.8359 115.209C60.8433 115.209 60.8506 115.209 60.858 115.209C60.8653 115.209 60.8727 115.209 60.8801 115.209C60.8874 115.209 60.8948 115.209 60.9022 115.209C60.9096 115.209 60.9169 115.209 60.9243 115.209C60.9317 115.209 60.9391 115.209 60.9465 115.209C60.9539 115.209 60.9613 115.209 60.9687 115.209C60.9761 115.209 60.9835 115.209 60.991 115.209C60.9984 115.209 61.0058 115.209 61.0132 115.209C61.0207 115.209 61.0281 115.209 61.0355 115.209C61.043 115.209 61.0504 115.209 61.0579 115.209C61.0653 115.209 61.0728 115.209 61.0802 115.209C61.0877 115.209 61.0952 115.209 61.1026 115.209C61.1101 115.209 61.1176 115.209 61.1251 115.209C61.1325 115.209 61.14 115.209 61.1475 115.209C61.155 115.209 61.1625 115.209 61.17 115.209C61.1775 115.209 61.185 115.209 61.1925 115.209C61.2 115.209 61.2076 115.209 61.2151 115.209C61.2226 115.209 61.2301 115.209 61.2377 115.209C61.2452 115.209 61.2527 115.209 61.2603 115.209C61.2678 115.209 61.2754 115.209 61.2829 115.209C61.2905 115.209 61.2981 115.209 61.3056 115.209C61.3132 115.209 61.3208 115.209 61.3283 115.209C61.3359 115.209 61.3435 115.209 61.3511 115.209C61.3587 115.209 61.3663 115.209 61.3739 115.209C61.3815 115.209 61.3891 115.209 61.3967 115.209C61.4043 115.209 61.4119 115.209 61.4195 115.209C61.4271 115.209 61.4348 115.209 61.4424 115.209V109.209C61.4348 109.209 61.4271 109.209 61.4195 109.209C61.4119 109.209 61.4043 109.209 61.3967 109.209C61.3891 109.209 61.3815 109.209 61.3739 109.209C61.3663 109.209 61.3587 109.209 61.3511 109.209C61.3435 109.209 61.3359 109.209 61.3283 109.209C61.3208 109.209 61.3132 109.209 61.3056 109.209C61.2981 109.209 61.2905 109.209 61.2829 109.209C61.2754 109.209 61.2678 109.209 61.2603 109.209C61.2527 109.209 61.2452 109.209 61.2377 109.209C61.2301 109.209 61.2226 109.209 61.2151 109.209C61.2076 109.209 61.2 109.209 61.1925 109.209C61.185 109.209 61.1775 109.209 61.17 109.209C61.1625 109.209 61.155 109.209 61.1475 109.209C61.14 109.209 61.1325 109.209 61.1251 109.209C61.1176 109.209 61.1101 109.209 61.1026 109.209C61.0952 109.209 61.0877 109.209 61.0802 109.209C61.0728 109.209 61.0653 109.209 61.0579 109.209C61.0504 109.209 61.043 109.209 61.0355 109.209C61.0281 109.209 61.0207 109.209 61.0132 109.209C61.0058 109.209 60.9984 109.209 60.991 109.209C60.9835 109.209 60.9761 109.209 60.9687 109.209C60.9613 109.209 60.9539 109.209 60.9465 109.209C60.9391 109.209 60.9317 109.209 60.9243 109.209C60.9169 109.209 60.9096 109.209 60.9022 109.209C60.8948 109.209 60.8874 109.209 60.8801 109.209C60.8727 109.209 60.8653 109.209 60.858 109.209C60.8506 109.209 60.8433 109.209 60.8359 109.209C60.8286 109.209 60.8213 109.209 60.8139 109.209C60.8066 109.209 60.7993 109.209 60.7919 109.209C60.7846 109.209 60.7773 109.209 60.77 109.209C60.7627 109.209 60.7554 109.209 60.7481 109.209C60.7408 109.209 60.7335 109.209 60.7262 109.209C60.7189 109.209 60.7116 109.209 60.7043 109.209C60.697 109.209 60.6898 109.209 60.6825 109.209C60.6752 109.209 60.668 109.209 60.6607 109.209C60.6534 109.209 60.6462 109.209 60.6389 109.209C60.6317 109.209 60.6244 109.209 60.6172 109.209C60.61 109.209 60.6027 109.209 60.5955 109.209C60.5883 109.209 60.581 109.209 60.5738 109.209C60.5666 109.209 60.5594 109.209 60.5522 109.209C60.545 109.209 60.5378 109.209 60.5306 109.209C60.5234 109.209 60.5162 109.209 60.509 109.209C60.5018 109.209 60.4946 109.209 60.4875 109.209C60.4803 109.209 60.4731 109.209 60.466 109.209C60.4588 109.209 60.4516 109.209 60.4445 109.209C60.4373 109.209 60.4302 109.209 60.423 109.209C60.4159 109.209 60.4087 109.209 60.4016 109.209C60.3945 109.209 60.3874 109.209 60.3802 109.209C60.3731 109.209 60.366 109.209 60.3589 109.209C60.3518 109.209 60.3447 109.209 60.3376 109.209C60.3305 109.209 60.3234 109.209 60.3163 109.209C60.3092 109.209 60.3021 109.209 60.295 109.209C60.2879 109.209 60.2809 109.209 60.2738 109.209C60.2667 109.209 60.2596 109.209 60.2526 109.209C60.2455 109.209 60.2385 109.209 60.2314 109.209C60.2244 109.209 60.2173 109.209 60.2103 109.209C60.2033 109.209 60.1962 109.209 60.1892 109.209C60.1822 109.209 60.1751 109.209 60.1681 109.209C60.1611 109.209 60.1541 109.209 60.1471 109.209C60.1401 109.209 60.1331 109.209 60.1261 109.209C60.1191 109.209 60.1121 109.209 60.1051 109.209C60.0981 109.209 60.0912 109.209 60.0842 109.209C60.0772 109.209 60.0702 109.209 60.0633 109.209C60.0563 109.209 60.0493 109.209 60.0424 109.209C60.0354 109.209 60.0285 109.209 60.0215 109.209C60.0146 109.209 60.0077 109.209 60.0007 109.209C59.9938 109.209 59.9869 109.209 59.9799 109.209C59.973 109.209 59.9661 109.209 59.9592 109.209C59.9523 109.209 59.9454 109.209 59.9385 109.209C59.9316 109.209 59.9247 109.209 59.9178 109.209C59.9109 109.209 59.904 109.209 59.8971 109.209C59.8903 109.209 59.8834 109.209 59.8765 109.209C59.8696 109.209 59.8628 109.209 59.8559 109.209C59.8491 109.209 59.8422 109.209 59.8354 109.209C59.8285 109.209 59.8217 109.209 59.8148 109.209C59.808 109.209 59.8012 109.209 59.7943 109.209C59.7875 109.209 59.7807 109.209 59.7739 109.209C59.767 109.209 59.7602 109.209 59.7534 109.209C59.7466 109.209 59.7398 109.209 59.733 109.209C59.7262 109.209 59.7194 109.209 59.7127 109.209C59.7059 109.209 59.6991 109.209 59.6923 109.209C59.6855 109.209 59.6788 109.209 59.672 109.209C59.6652 109.209 59.6585 109.209 59.6517 109.209C59.645 109.209 59.6382 109.209 59.6315 109.209C59.6247 109.209 59.618 109.209 59.6113 109.209C59.6045 109.209 59.5978 109.209 59.5911 109.209C59.5844 109.209 59.5777 109.209 59.5709 109.209C59.5642 109.209 59.5575 109.209 59.5508 109.209C59.5441 109.209 59.5374 109.209 59.5307 109.209C59.5241 109.209 59.5174 109.209 59.5107 109.209C59.504 109.209 59.4973 109.209 59.4907 109.209C59.484 109.209 59.4773 109.209 59.4707 109.209C59.464 109.209 59.4574 109.209 59.4507 109.209C59.4441 109.209 59.4374 109.209 59.4308 109.209C59.4242 109.209 59.4175 109.209 59.4109 109.209C59.4043 109.209 59.3976 109.209 59.391 109.209C59.3844 109.209 59.3778 109.209 59.3712 109.209C59.3646 109.209 59.358 109.209 59.3514 109.209C59.3448 109.209 59.3382 109.209 59.3316 109.209C59.325 109.209 59.3185 109.209 59.3119 109.209C59.3053 109.209 59.2987 109.209 59.2922 109.209C59.2856 109.209 59.2791 109.209 59.2725 109.209C59.266 109.209 59.2594 109.209 59.2529 109.209C59.2463 109.209 59.2398 109.209 59.2333 109.209C59.2267 109.209 59.2202 109.209 59.2137 109.209C59.2072 109.209 59.2006 109.209 59.1941 109.209C59.1876 109.209 59.1811 109.209 59.1746 109.209C59.1681 109.209 59.1616 109.209 59.1551 109.209C59.1486 109.209 59.1422 109.209 59.1357 109.209C59.1292 109.209 59.1227 109.209 59.1163 109.209C59.1098 109.209 59.1033 109.209 59.0969 109.209C59.0904 109.209 59.084 109.209 59.0775 109.209C59.0711 109.209 59.0646 109.209 59.0582 109.209C59.0517 109.209 59.0453 109.209 59.0389 109.209C59.0325 109.209 59.026 109.209 59.0196 109.209C59.0132 109.209 59.0068 109.209 59.0004 109.209C58.994 109.209 58.9876 109.209 58.9812 109.209C58.9748 109.209 58.9684 109.209 58.962 109.209C58.9556 109.209 58.9493 109.209 58.9429 109.209C58.9365 109.209 58.9302 109.209 58.9238 109.209C58.9174 109.209 58.9111 109.209 58.9047 109.209C58.8984 109.209 58.892 109.209 58.8857 109.209C58.8793 109.209 58.873 109.209 58.8667 109.209C58.8603 109.209 58.854 109.209 58.8477 109.209C58.8414 109.209 58.8351 109.209 58.8287 109.209C58.8224 109.209 58.8161 109.209 58.8098 109.209C58.8035 109.209 58.7972 109.209 58.7909 109.209C58.7847 109.209 58.7784 109.209 58.7721 109.209C58.7658 109.209 58.7595 109.209 58.7533 109.209C58.747 109.209 58.7407 109.209 58.7345 109.209C58.7282 109.209 58.722 109.209 58.7157 109.209C58.7095 109.209 58.7032 109.209 58.697 109.209C58.6908 109.209 58.6845 109.209 58.6783 109.209C58.6721 109.209 58.6659 109.209 58.6597 109.209C58.6534 109.209 58.6472 109.209 58.641 109.209C58.6348 109.209 58.6286 109.209 58.6224 109.209C58.6162 109.209 58.61 109.209 58.6039 109.209C58.5977 109.209 58.5915 109.209 58.5853 109.209C58.5792 109.209 58.573 109.209 58.5668 109.209C58.5607 109.209 58.5545 109.209 58.5484 109.209C58.5422 109.209 58.5361 109.209 58.5299 109.209C58.5238 109.209 58.5176 109.209 58.5115 109.209C58.5054 109.209 58.4993 109.209 58.4931 109.209C58.487 109.209 58.4809 109.209 58.4748 109.209C58.4687 109.209 58.4626 109.209 58.4565 109.209C58.4504 109.209 58.4443 109.209 58.4382 109.209C58.4321 109.209 58.426 109.209 58.4199 109.209C58.4139 109.209 58.4078 109.209 58.4017 109.209C58.3957 109.209 58.3896 109.209 58.3835 109.209C58.3775 109.209 58.3714 109.209 58.3654 109.209C58.3593 109.209 58.3533 109.209 58.3473 109.209C58.3412 109.209 58.3352 109.209 58.3292 109.209C58.3231 109.209 58.3171 109.209 58.3111 109.209C58.3051 109.209 58.2991 109.209 58.2931 109.209C58.2871 109.209 58.2811 109.209 58.2751 109.209C58.2691 109.209 58.2631 109.209 58.2571 109.209C58.2511 109.209 58.2452 109.209 58.2392 109.209C58.2332 109.209 58.2273 109.209 58.2213 109.209C58.2153 109.209 58.2094 109.209 58.2034 109.209C58.1975 109.209 58.1915 109.209 58.1856 109.209C58.1796 109.209 58.1737 109.209 58.1678 109.209C58.1618 109.209 58.1559 109.209 58.15 109.209C58.1441 109.209 58.1382 109.209 58.1323 109.209C58.1264 109.209 58.1204 109.209 58.1146 109.209C58.1087 109.209 58.1028 109.209 58.0969 109.209C58.091 109.209 58.0851 109.209 58.0792 109.209C58.0733 109.209 58.0675 109.209 58.0616 109.209C58.0557 109.209 58.0499 109.209 58.044 109.209C58.0382 109.209 58.0323 109.209 58.0265 109.209C58.0206 109.209 58.0148 109.209 58.009 109.209C58.0031 109.209 57.9973 109.209 57.9915 109.209C57.9856 109.209 57.9798 109.209 57.974 109.209C57.9682 109.209 57.9624 109.209 57.9566 109.209C57.9508 109.209 57.945 109.209 57.9392 109.209C57.9334 109.209 57.9276 109.209 57.9218 109.209C57.916 109.209 57.9103 109.209 57.9045 109.209C57.8987 109.209 57.893 109.209 57.8872 109.209C57.8814 109.209 57.8757 109.209 57.8699 109.209C57.8642 109.209 57.8584 109.209 57.8527 109.209C57.8469 109.209 57.8412 109.209 57.8355 109.209C57.8298 109.209 57.824 109.209 57.8183 109.209C57.8126 109.209 57.8069 109.209 57.8012 109.209C57.7955 109.209 57.7898 109.209 57.7841 109.209C57.7784 109.209 57.7727 109.209 57.767 109.209C57.7613 109.209 57.7556 109.209 57.7499 109.209C57.7443 109.209 57.7386 109.209 57.7329 109.209C57.7273 109.209 57.7216 109.209 57.7159 109.209C57.7103 109.209 57.7046 109.209 57.699 109.209C57.6933 109.209 57.6877 109.209 57.6821 109.209C57.6764 109.209 57.6708 109.209 57.6652 109.209C57.6596 109.209 57.6539 109.209 57.6483 109.209C57.6427 109.209 57.6371 109.209 57.6315 109.209C57.6259 109.209 57.6203 109.209 57.6147 109.209C57.6091 109.209 57.6035 109.209 57.5979 109.209C57.5924 109.209 57.5868 109.209 57.5812 109.209C57.5756 109.209 57.5701 109.209 57.5645 109.209C57.559 109.209 57.5534 109.209 57.5479 109.209C57.5423 109.209 57.5368 109.209 57.5312 109.209C57.5257 109.209 57.5201 109.209 57.5146 109.209C57.5091 109.209 57.5036 109.209 57.498 109.209C57.4925 109.209 57.487 109.209 57.4815 109.209C57.476 109.209 57.4705 109.209 57.465 109.209C57.4595 109.209 57.454 109.209 57.4485 109.209C57.443 109.209 57.4376 109.209 57.4321 109.209C57.4266 109.209 57.4211 109.209 57.4157 109.209C57.4102 109.209 57.4047 109.209 57.3993 109.209C57.3938 109.209 57.3884 109.209 57.3829 109.209C57.3775 109.209 57.3721 109.209 57.3666 109.209C57.3612 109.209 57.3558 109.209 57.3503 109.209C57.3449 109.209 57.3395 109.209 57.3341 109.209C57.3287 109.209 57.3233 109.209 57.3179 109.209C57.3125 109.209 57.3071 109.209 57.3017 109.209C57.2963 109.209 57.2909 109.209 57.2855 109.209C57.2801 109.209 57.2747 109.209 57.2694 109.209C57.264 109.209 57.2586 109.209 57.2533 109.209C57.2479 109.209 57.2426 109.209 57.2372 109.209C57.2319 109.209 57.2265 109.209 57.2212 109.209C57.2158 109.209 57.2105 109.209 57.2052 109.209C57.1999 109.209 57.1945 109.209 57.1892 109.209C57.1839 109.209 57.1786 109.209 57.1733 109.209C57.168 109.209 57.1627 109.209 57.1574 109.209C57.1521 109.209 57.1468 109.209 57.1415 109.209C57.1362 109.209 57.1309 109.209 57.1257 109.209C57.1204 109.209 57.1151 109.209 57.1098 109.209C57.1046 109.209 57.0993 109.209 57.0941 109.209C57.0888 109.209 57.0836 109.209 57.0783 109.209C57.0731 109.209 57.0678 109.209 57.0626 109.209C57.0574 109.209 57.0521 109.209 57.0469 109.209C57.0417 109.209 57.0365 109.209 57.0313 109.209C57.026 109.209 57.0208 109.209 57.0156 109.209C57.0104 109.209 57.0052 109.209 57 109.209C56.9949 109.209 56.9897 109.209 56.9845 109.209C56.9793 109.209 56.9741 109.209 56.969 109.209C56.9638 109.209 56.9586 109.209 56.9535 109.209C56.9483 109.209 56.9432 109.209 56.938 109.209C56.9329 109.209 56.9277 109.209 56.9226 109.209C56.9174 109.209 56.9123 109.209 56.9072 109.209C56.9021 109.209 56.8969 109.209 56.8918 109.209C56.8867 109.209 56.8816 109.209 56.8765 109.209C56.8714 109.209 56.8663 109.209 56.8612 109.209C56.8561 109.209 56.851 109.209 56.8459 109.209C56.8408 109.209 56.8357 109.209 56.8307 109.209C56.8256 109.209 56.8205 109.209 56.8154 109.209C56.8104 109.209 56.8053 109.209 56.8003 109.209C56.7952 109.209 56.7902 109.209 56.7851 109.209C56.7801 109.209 56.775 109.209 56.77 109.209C56.765 109.209 56.7599 109.209 56.7549 109.209C56.7499 109.209 56.7449 109.209 56.7399 109.209C56.7349 109.209 56.7299 109.209 56.7249 109.209C56.7199 109.209 56.7149 109.209 56.7099 109.209C56.7049 109.209 56.6999 109.209 56.6949 109.209C56.6899 109.209 56.685 109.209 56.68 109.209C56.675 109.209 56.6701 109.209 56.6651 109.209C56.6601 109.209 56.6552 109.209 56.6502 109.209C56.6453 109.209 56.6403 109.209 56.6354 109.209C56.6305 109.209 56.6255 109.209 56.6206 109.209C56.6157 109.209 56.6108 109.209 56.6058 109.209C56.6009 109.209 56.596 109.209 56.5911 109.209C56.5862 109.209 56.5813 109.209 56.5764 109.209C56.5715 109.209 56.5666 109.209 56.5617 109.209C56.5568 109.209 56.552 109.209 56.5471 109.209C56.5422 109.209 56.5373 109.209 56.5325 109.209C56.5276 109.209 56.5228 109.209 56.5179 109.209C56.5131 109.209 56.5082 109.209 56.5034 109.209C56.4985 109.209 56.4937 109.209 56.4889 109.209C56.484 109.209 56.4792 109.209 56.4744 109.209C56.4695 109.209 56.4647 109.209 56.4599 109.209C56.4551 109.209 56.4503 109.209 56.4455 109.209C56.4407 109.209 56.4359 109.209 56.4311 109.209C56.4263 109.209 56.4215 109.209 56.4168 109.209C56.412 109.209 56.4072 109.209 56.4024 109.209C56.3977 109.209 56.3929 109.209 56.3881 109.209C56.3834 109.209 56.3786 109.209 56.3739 109.209C56.3691 109.209 56.3644 109.209 56.3597 109.209C56.3549 109.209 56.3502 109.209 56.3455 109.209C56.3407 109.209 56.336 109.209 56.3313 109.209C56.3266 109.209 56.3219 109.209 56.3172 109.209C56.3125 109.209 56.3078 109.209 56.3031 109.209C56.2984 109.209 56.2937 109.209 56.289 109.209C56.2843 109.209 56.2796 109.209 56.275 109.209C56.2703 109.209 56.2656 109.209 56.261 109.209C56.2563 109.209 56.2516 109.209 56.247 109.209C56.2423 109.209 56.2377 109.209 56.233 109.209C56.2284 109.209 56.2238 109.209 56.2191 109.209C56.2145 109.209 56.2099 109.209 56.2052 109.209C56.2006 109.209 56.196 109.209 56.1914 109.209C56.1868 109.209 56.1822 109.209 56.1776 109.209C56.173 109.209 56.1684 109.209 56.1638 109.209C56.1592 109.209 56.1546 109.209 56.15 109.209C56.1455 109.209 56.1409 109.209 56.1363 109.209C56.1318 109.209 56.1272 109.209 56.1226 109.209C56.1181 109.209 56.1135 109.209 56.109 109.209C56.1044 109.209 56.0999 109.209 56.0953 109.209C56.0908 109.209 56.0863 109.209 56.0818 109.209C56.0772 109.209 56.0727 109.209 56.0682 109.209C56.0637 109.209 56.0592 109.209 56.0547 109.209C56.0502 109.209 56.0457 109.209 56.0412 109.209C56.0367 109.209 56.0322 109.209 56.0277 109.209C56.0232 109.209 56.0187 109.209 56.0143 109.209C56.0098 109.209 56.0053 109.209 56.0009 109.209C55.9964 109.209 55.9919 109.209 55.9875 109.209C55.983 109.209 55.9786 109.209 55.9741 109.209C55.9697 109.209 55.9653 109.209 55.9608 109.209C55.9564 109.209 55.952 109.209 55.9475 109.209C55.9431 109.209 55.9387 109.209 55.9343 109.209C55.9299 109.209 55.9255 109.209 55.9211 109.209C55.9167 109.209 55.9123 109.209 55.9079 109.209C55.9035 109.209 55.8991 109.209 55.8948 109.209C55.8904 109.209 55.886 109.209 55.8816 109.209C55.8773 109.209 55.8729 109.209 55.8685 109.209C55.8642 109.209 55.8598 109.209 55.8555 109.209C55.8511 109.209 55.8468 109.209 55.8425 109.209C55.8381 109.209 55.8338 109.209 55.8295 109.209C55.8251 109.209 55.8208 109.209 55.8165 109.209C55.8122 109.209 55.8079 109.209 55.8036 109.209C55.7993 109.209 55.795 109.209 55.7907 109.209C55.7864 109.209 55.7821 109.209 55.7778 109.209C55.7735 109.209 55.7693 109.209 55.765 109.209C55.7607 109.209 55.7564 109.209 55.7522 109.209C55.7479 109.209 55.7437 109.209 55.7394 109.209C55.7352 109.209 55.7309 109.209 55.7267 109.209C55.7224 109.209 55.7182 109.209 55.714 109.209C55.7097 109.209 55.7055 109.209 55.7013 109.209C55.6971 109.209 55.6929 109.209 55.6886 109.209C55.6844 109.209 55.6802 109.209 55.676 109.209C55.6718 109.209 55.6676 109.209 55.6634 109.209C55.6593 109.209 55.6551 109.209 55.6509 109.209C55.6467 109.209 55.6425 109.209 55.6384 109.209C55.6342 109.209 55.6301 109.209 55.6259 109.209C55.6217 109.209 55.6176 109.209 55.6134 109.209C55.6093 109.209 55.6052 109.209 55.601 109.209C55.5969 109.209 55.5928 109.209 55.5886 109.209C55.5845 109.209 55.5804 109.209 55.5763 109.209C55.5722 109.209 55.568 109.209 55.5639 109.209C55.5598 109.209 55.5557 109.209 55.5516 109.209C55.5475 109.209 55.5435 109.209 55.5394 109.209C55.5353 109.209 55.5312 109.209 55.5271 109.209C55.5231 109.209 55.519 109.209 55.5149 109.209C55.5109 109.209 55.5068 109.209 55.5028 109.209C55.4987 109.209 55.4947 109.209 55.4906 109.209C55.4866 109.209 55.4826 109.209 55.4785 109.209C55.4745 109.209 55.4705 109.209 55.4665 109.209C55.4624 109.209 55.4584 109.209 55.4544 109.209C55.4504 109.209 55.4464 109.209 55.4424 109.209C55.4384 109.209 55.4344 109.209 55.4304 109.209C55.4264 109.209 55.4225 109.209 55.4185 109.209C55.4145 109.209 55.4105 109.209 55.4066 109.209C55.4026 109.209 55.3986 109.209 55.3947 109.209C55.3907 109.209 55.3868 109.209 55.3828 109.209C55.3789 109.209 55.3749 109.209 55.371 109.209C55.3671 109.209 55.3631 109.209 55.3592 109.209C55.3553 109.209 55.3514 109.209 55.3475 109.209C55.3435 109.209 55.3396 109.209 55.3357 109.209C55.3318 109.209 55.3279 109.209 55.324 109.209C55.3201 109.209 55.3162 109.209 55.3124 109.209C55.3085 109.209 55.3046 109.209 55.3007 109.209C55.2969 109.209 55.293 109.209 55.2891 109.209C55.2853 109.209 55.2814 109.209 55.2776 109.209C55.2737 109.209 55.2699 109.209 55.266 109.209C55.2622 109.209 55.2584 109.209 55.2545 109.209C55.2507 109.209 55.2469 109.209 55.2431 109.209C55.2392 109.209 55.2354 109.209 55.2316 109.209C55.2278 109.209 55.224 109.209 55.2202 109.209C55.2164 109.209 55.2126 109.209 55.2088 109.209C55.205 109.209 55.2013 109.209 55.1975 109.209C55.1937 109.209 55.1899 109.209 55.1862 109.209C55.1824 109.209 55.1786 109.209 55.1749 109.209C55.1711 109.209 55.1674 109.209 55.1636 109.209C55.1599 109.209 55.1561 109.209 55.1524 109.209C55.1487 109.209 55.1449 109.209 55.1412 109.209C55.1375 109.209 55.1338 109.209 55.1301 109.209C55.1264 109.209 55.1226 109.209 55.1189 109.209C55.1152 109.209 55.1115 109.209 55.1078 109.209C55.1042 109.209 55.1005 109.209 55.0968 109.209C55.0931 109.209 55.0894 109.209 55.0858 109.209C55.0821 109.209 55.0784 109.209 55.0748 109.209C55.0711 109.209 55.0674 109.209 55.0638 109.209C55.0601 109.209 55.0565 109.209 55.0529 109.209C55.0492 109.209 55.0456 109.209 55.042 109.209C55.0383 109.209 55.0347 109.209 55.0311 109.209C55.0275 109.209 55.0239 109.209 55.0202 109.209C55.0166 109.209 55.013 109.209 55.0094 109.209C55.0058 109.209 55.0022 109.209 54.9987 109.209C54.9951 109.209 54.9915 109.209 54.9879 109.209C54.9843 109.209 54.9808 109.209 54.9772 109.209C54.9736 109.209 54.9701 109.209 54.9665 109.209C54.963 109.209 54.9594 109.209 54.9559 109.209C54.9523 109.209 54.9488 109.209 54.9453 109.209C54.9417 109.209 54.9382 109.209 54.9347 109.209C54.9311 109.209 54.9276 109.209 54.9241 109.209C54.9206 109.209 54.9171 109.209 54.9136 109.209C54.9101 109.209 54.9066 109.209 54.9031 109.209C54.8996 109.209 54.8961 109.209 54.8926 109.209C54.8892 109.209 54.8857 109.209 54.8822 109.209C54.8787 109.209 54.8753 109.209 54.8718 109.209C54.8684 109.209 54.8649 109.209 54.8614 109.209C54.858 109.209 54.8546 109.209 54.8511 109.209C54.8477 109.209 54.8442 109.209 54.8408 109.209C54.8374 109.209 54.834 109.209 54.8305 109.209C54.8271 109.209 54.8237 109.209 54.8203 109.209C54.8169 109.209 54.8135 109.209 54.8101 109.209C54.8067 109.209 54.8033 109.209 54.7999 109.209C54.7965 109.209 54.7932 109.209 54.7898 109.209C54.7864 109.209 54.783 109.209 54.7797 109.209C54.7763 109.209 54.7729 109.209 54.7696 109.209C54.7662 109.209 54.7629 109.209 54.7595 109.209C54.7562 109.209 54.7529 109.209 54.7495 109.209C54.7462 109.209 54.7429 109.209 54.7395 109.209C54.7362 109.209 54.7329 109.209 54.7296 109.209C54.7263 109.209 54.723 109.209 54.7197 109.209C54.7164 109.209 54.7131 109.209 54.7098 109.209C54.7065 109.209 54.7032 109.209 54.6999 109.209C54.6966 109.209 54.6934 109.209 54.6901 109.209C54.6868 109.209 54.6836 109.209 54.6803 109.209C54.677 109.209 54.6738 109.209 54.6705 109.209C54.6673 109.209 54.664 109.209 54.6608 109.209C54.6576 109.209 54.6543 109.209 54.6511 109.209C54.6479 109.209 54.6447 109.209 54.6414 109.209C54.6382 109.209 54.635 109.209 54.6318 109.209C54.6286 109.209 54.6254 109.209 54.6222 109.209C54.619 109.209 54.6158 109.209 54.6126 109.209C54.6094 109.209 54.6063 109.209 54.6031 109.209C54.5999 109.209 54.5967 109.209 54.5936 109.209C54.5904 109.209 54.5872 109.209 54.5841 109.209C54.5809 109.209 54.5778 109.209 54.5746 109.209C54.5715 109.209 54.5684 109.209 54.5652 109.209C54.5621 109.209 54.559 109.209 54.5558 109.209C54.5527 109.209 54.5496 109.209 54.5465 109.209C54.5434 109.209 54.5403 109.209 54.5372 109.209C54.5341 109.209 54.531 109.209 54.5279 109.209C54.5248 109.209 54.5217 109.209 54.5186 109.209C54.5156 109.209 54.5125 109.209 54.5094 109.209C54.5063 109.209 54.5033 109.209 54.5002 109.209C54.4972 109.209 54.4941 109.209 54.4911 109.209C54.488 109.209 54.485 109.209 54.4819 109.209C54.4789 109.209 54.4759 109.209 54.4728 109.209C54.4698 109.209 54.4668 109.209 54.4638 109.209C54.4607 109.209 54.4577 109.209 54.4547 109.209C54.4517 109.209 54.4487 109.209 54.4457 109.209C54.4427 109.209 54.4397 109.209 54.4368 109.209C54.4338 109.209 54.4308 109.209 54.4278 109.209C54.4248 109.209 54.4219 109.209 54.4189 109.209C54.4159 109.209 54.413 109.209 54.41 109.209C54.4071 109.209 54.4041 109.209 54.4012 109.209C54.3982 109.209 54.3953 109.209 54.3924 109.209C54.3894 109.209 54.3865 109.209 54.3836 109.209C54.3807 109.209 54.3777 109.209 54.3748 109.209C54.3719 109.209 54.369 109.209 54.3661 109.209C54.3632 109.209 54.3603 109.209 54.3574 109.209C54.3545 109.209 54.3517 109.209 54.3488 109.209C54.3459 109.209 54.343 109.209 54.3402 109.209C54.3373 109.209 54.3344 109.209 54.3316 109.209C54.3287 109.209 54.3259 109.209 54.323 109.209C54.3202 109.209 54.3173 109.209 54.3145 109.209C54.3116 109.209 54.3088 109.209 54.306 109.209C54.3032 109.209 54.3003 109.209 54.2975 109.209C54.2947 109.209 54.2919 109.209 54.2891 109.209C54.2863 109.209 54.2835 109.209 54.2807 109.209C54.2779 109.209 54.2751 109.209 54.2723 109.209C54.2695 109.209 54.2667 109.209 54.264 109.209C54.2612 109.209 54.2584 109.209 54.2557 109.209C54.2529 109.209 54.2501 109.209 54.2474 109.209C54.2446 109.209 54.2419 109.209 54.2391 109.209C54.2364 109.209 54.2337 109.209 54.2309 109.209C54.2282 109.209 54.2255 109.209 54.2228 109.209C54.22 109.209 54.2173 109.209 54.2146 109.209C54.2119 109.209 54.2092 109.209 54.2065 109.209C54.2038 109.209 54.2011 109.209 54.1984 109.209C54.1957 109.209 54.193 109.209 54.1904 109.209C54.1877 109.209 54.185 109.209 54.1823 109.209C54.1797 109.209 54.177 109.209 54.1743 109.209C54.1717 109.209 54.169 109.209 54.1664 109.209C54.1637 109.209 54.1611 109.209 54.1585 109.209C54.1558 109.209 54.1532 109.209 54.1506 109.209C54.1479 109.209 54.1453 109.209 54.1427 109.209C54.1401 109.209 54.1375 109.209 54.1349 109.209C54.1323 109.209 54.1297 109.209 54.1271 109.209C54.1245 109.209 54.1219 109.209 54.1193 109.209C54.1167 109.209 54.1141 109.209 54.1116 109.209C54.109 109.209 54.1064 109.209 54.1039 109.209C54.1013 109.209 54.0987 109.209 54.0962 109.209C54.0936 109.209 54.0911 109.209 54.0885 109.209C54.086 109.209 54.0835 109.209 54.0809 109.209C54.0784 109.209 54.0759 109.209 54.0734 109.209C54.0708 109.209 54.0683 109.209 54.0658 109.209C54.0633 109.209 54.0608 109.209 54.0583 109.209C54.0558 109.209 54.0533 109.209 54.0508 109.209C54.0483 109.209 54.0458 109.209 54.0434 109.209C54.0409 109.209 54.0384 109.209 54.0359 109.209C54.0335 109.209 54.031 109.209 54.0286 109.209C54.0261 109.209 54.0236 109.209 54.0212 109.209C54.0187 109.209 54.0163 109.209 54.0139 109.209C54.0114 109.209 54.009 109.209 54.0066 109.209C54.0042 109.209 54.0017 109.209 53.9993 109.209C53.9969 109.209 53.9945 109.209 53.9921 109.209C53.9897 109.209 53.9873 109.209 53.9849 109.209C53.9825 109.209 53.9801 109.209 53.9777 109.209C53.9753 109.209 53.973 109.209 53.9706 109.209C53.9682 109.209 53.9658 109.209 53.9635 109.209C53.9611 109.209 53.9588 109.209 53.9564 109.209C53.9541 109.209 53.9517 109.209 53.9494 109.209C53.947 109.209 53.9447 109.209 53.9424 109.209C53.94 109.209 53.9377 109.209 53.9354 109.209C53.9331 109.209 53.9308 109.209 53.9284 109.209C53.9261 109.209 53.9238 109.209 53.9215 109.209C53.9192 109.209 53.9169 109.209 53.9146 109.209C53.9124 109.209 53.9101 109.209 53.9078 109.209C53.9055 109.209 53.9032 109.209 53.901 109.209C53.8987 109.209 53.8964 109.209 53.8942 109.209C53.8919 109.209 53.8897 109.209 53.8874 109.209C53.8852 109.209 53.883 109.209 53.8807 109.209C53.8785 109.209 53.8762 109.209 53.874 109.209V115.209ZM61.4424 115.209C65.517 115.209 71.2633 114.787 78.6194 113.97L77.9568 108.007C70.6645 108.817 65.1803 109.209 61.4424 109.209V115.209ZM78.6846 113.962C85.9834 112.989 94.0179 112.015 102.789 111.04L102.127 105.077C93.32 106.055 85.2412 107.035 77.8916 108.015L78.6846 113.962ZM105.458 108.059V55.3242H99.458V108.059H105.458Z" fill="black" mask="url(#path-2-outside-1_2_2)"/>
</g>
<defs>
<filter id="filter0_d_2_2" x="0" y="0" width="191" height="208" filterUnits="userSpaceOnUse" color-interpolation-filters="sRGB">
<feFlood flood-opacity="0" result="BackgroundImageFix"/>
<feColorMatrix in="SourceAlpha" type="matrix" values="0 0 0 0 0 0 0 0 0 0 0 0 0 0 0 0 0 0 127 0" result="hardAlpha"/>
<feOffset dy="4"/>
<feGaussianBlur stdDeviation="2"/>
<feComposite in2="hardAlpha" operator="out"/>
<feColorMatrix type="matrix" values="0 0 0 0 0 0 0 0 0 0 0 0 0 0 0 0 0 0 0.25 0"/>
<feBlend mode="normal" in2="BackgroundImageFix" result="effect1_dropShadow_2_2"/>
<feBlend mode="normal" in="SourceGraphic" in2="effect1_dropShadow_2_2" result="shape"/>
</filter>
</defs>
</svg>
