<svg width="191" height="208" viewBox="0 0 191 208" fill="none" xmlns="http://www.w3.org/2000/svg">
<g filter="url(#filter0_d_2_9)">
<rect x="4" width="183" height="200" fill="#D9D9D9" fill-opacity="0.41"/>
<mask id="path-2-outside-1_2_9" maskUnits="userSpaceOnUse" x="10" y="15" width="174" height="161" fill="black">
<rect fill="white" x="10" y="15" width="174" height="161"/>
<path d="M13.5908 102.443L15.2998 85.5977C16.4391 76.1576 17.7412 64.7643 19.2061 51.418L22.1357 27.0039C22.7868 24.888 23.7633 23.6673 25.0654 23.3418C26.5303 23.0163 28.4834 22.8535 30.9248 22.8535C33.3662 22.8535 35.1566 23.5046 36.2959 24.8066C37.4352 25.946 38.0049 27.4108 38.0049 29.2012C38.1676 30.9915 38.0049 33.026 37.5166 35.3047C37.0283 37.5833 36.7842 39.7806 36.7842 41.8965C48.1774 41.8965 59.4893 40.6758 70.7197 38.2344C82.113 35.793 93.4248 33.1074 104.655 30.1777C115.886 27.248 127.116 24.5625 138.347 22.1211C149.577 19.6797 160.889 18.459 172.282 18.459C173.91 18.459 175.375 18.7031 176.677 19.1914C178.142 19.5169 179.281 20.819 180.095 23.0977C179.444 25.0508 178.304 26.6784 176.677 27.9805C175.049 29.2826 172.282 30.5846 168.376 31.8867C164.632 33.1888 159.506 34.5723 152.995 36.0371C146.485 37.3392 138.103 39.1296 127.849 41.4082C117.595 43.5241 105.062 46.1283 90.251 49.2207C75.6025 52.3132 58.2686 56.138 38.249 60.6953V91.9453C43.4574 91.457 49.3981 90.6432 56.0713 89.5039C68.4411 87.388 77.8812 86.3301 84.3916 86.3301C90.902 86.3301 96.2731 86.4115 100.505 86.5742C104.899 86.737 109.864 87.8763 115.397 89.9922C127.279 94.5495 133.952 103.908 135.417 118.068C135.417 128.322 132.569 137.03 126.872 144.191C121.338 151.19 114.34 156.805 105.876 161.037C89.9255 169.012 71.3708 173 50.2119 173C45.6546 173 42.3994 172.512 40.4463 171.535C38.4932 170.559 37.5166 168.443 37.5166 165.188C37.5166 161.932 38.8187 158.84 41.4229 155.91C44.027 152.98 46.9567 151.516 50.2119 151.516V155.91C69.4176 155.91 83.2523 154.608 91.7158 152.004C100.179 149.237 106.853 145.493 111.735 140.773C116.781 135.891 119.304 129.868 119.304 122.707C119.304 115.546 117.839 110.337 114.909 107.082C111.979 103.827 108.399 101.385 104.167 99.7578C97.6566 97.1536 90.251 95.8516 81.9502 95.8516C73.6494 95.8516 67.3831 96.5026 63.1514 97.8047C58.9196 99.1068 54.7692 100.572 50.7002 102.199C39.7952 106.268 31.4945 108.303 25.7979 108.303H21.8916C16.3577 108.303 13.5908 106.35 13.5908 102.443Z"/>
</mask>
<path d="M13.5908 102.443L15.2998 85.5977C16.4391 76.1576 17.7412 64.7643 19.2061 51.418L22.1357 27.0039C22.7868 24.888 23.7633 23.6673 25.0654 23.3418C26.5303 23.0163 28.4834 22.8535 30.9248 22.8535C33.3662 22.8535 35.1566 23.5046 36.2959 24.8066C37.4352 25.946 38.0049 27.4108 38.0049 29.2012C38.1676 30.9915 38.0049 33.026 37.5166 35.3047C37.0283 37.5833 36.7842 39.7806 36.7842 41.8965C48.1774 41.8965 59.4893 40.6758 70.7197 38.2344C82.113 35.793 93.4248 33.1074 104.655 30.1777C115.886 27.248 127.116 24.5625 138.347 22.1211C149.577 19.6797 160.889 18.459 172.282 18.459C173.91 18.459 175.375 18.7031 176.677 19.1914C178.142 19.5169 179.281 20.819 180.095 23.0977C179.444 25.0508 178.304 26.6784 176.677 27.9805C175.049 29.2826 172.282 30.5846 168.376 31.8867C164.632 33.1888 159.506 34.5723 152.995 36.0371C146.485 37.3392 138.103 39.1296 127.849 41.4082C117.595 43.5241 105.062 46.1283 90.251 49.2207C75.6025 52.3132 58.2686 56.138 38.249 60.6953V91.9453C43.4574 91.457 49.3981 90.6432 56.0713 89.5039C68.4411 87.388 77.8812 86.3301 84.3916 86.3301C90.902 86.3301 96.2731 86.4115 100.505 86.5742C104.899 86.737 109.864 87.8763 115.397 89.9922C127.279 94.5495 133.952 103.908 135.417 118.068C135.417 128.322 132.569 137.03 126.872 144.191C121.338 151.19 114.34 156.805 105.876 161.037C89.9255 169.012 71.3708 173 50.2119 173C45.6546 173 42.3994 172.512 40.4463 171.535C38.4932 170.559 37.5166 168.443 37.5166 165.188C37.5166 161.932 38.8187 158.84 41.4229 155.91C44.027 152.98 46.9567 151.516 50.2119 151.516V155.91C69.4176 155.91 83.2523 154.608 91.7158 152.004C100.179 149.237 106.853 145.493 111.735 140.773C116.781 135.891 119.304 129.868 119.304 122.707C119.304 115.546 117.839 110.337 114.909 107.082C111.979 103.827 108.399 101.385 104.167 99.7578C97.6566 97.1536 90.251 95.8516 81.9502 95.8516C73.6494 95.8516 67.3831 96.5026 63.1514 97.8047C58.9196 99.1068 54.7692 100.572 50.7002 102.199C39.7952 106.268 31.4945 108.303 25.7979 108.303H21.8916C16.3577 108.303 13.5908 106.35 13.5908 102.443Z" fill="#E68F1E"/>
<path d="M13.5908 102.443L10.6061 102.141L10.5908 102.292V102.443H13.5908ZM15.2998 85.5977L12.3214 85.2382L12.318 85.2665L12.3151 85.2949L15.2998 85.5977ZM19.2061 51.418L16.2274 51.0605L16.2256 51.0756L16.224 51.0907L19.2061 51.418ZM22.1357 27.0039L19.2684 26.1216L19.1892 26.3791L19.1571 26.6465L22.1357 27.0039ZM25.0654 23.3418L24.4146 20.4132L24.3761 20.4218L24.3378 20.4314L25.0654 23.3418ZM36.2959 24.8066L34.0382 26.7822L34.1039 26.8573L34.1746 26.928L36.2959 24.8066ZM38.0049 29.2012H35.0049V29.3373L35.0172 29.4728L38.0049 29.2012ZM36.7842 41.8965H33.7842V44.8965H36.7842V41.8965ZM70.7197 38.2344L70.0911 35.301L70.0824 35.3028L70.7197 38.2344ZM176.677 19.1914L175.623 22.0004L175.82 22.0743L176.026 22.12L176.677 19.1914ZM180.095 23.0977L182.941 24.0463L183.268 23.0639L182.92 22.0886L180.095 23.0977ZM168.376 31.8867L167.427 29.0407L167.409 29.0468L167.39 29.0532L168.376 31.8867ZM152.995 36.0371L153.583 38.9789L153.619 38.9718L153.654 38.9639L152.995 36.0371ZM127.849 41.4082L128.455 44.3463L128.477 44.3417L128.499 44.3368L127.849 41.4082ZM90.251 49.2207L89.6378 46.284L89.6313 46.2854L90.251 49.2207ZM38.249 60.6953L37.5831 57.7701L35.249 58.3015V60.6953H38.249ZM38.249 91.9453H35.249V95.2397L38.529 94.9322L38.249 91.9453ZM56.0713 89.5039L56.5762 92.4611L56.5771 92.461L56.0713 89.5039ZM100.505 86.5742L100.39 89.572L100.394 89.5722L100.505 86.5742ZM115.397 89.9922L116.472 87.1912L116.469 87.19L115.397 89.9922ZM135.417 118.068H138.417V117.914L138.401 117.76L135.417 118.068ZM126.872 144.191L124.524 142.324L124.519 142.331L126.872 144.191ZM105.876 161.037L104.534 158.354L105.876 161.037ZM50.2119 151.516H53.2119V148.516H50.2119V151.516ZM50.2119 155.91H47.2119V158.91H50.2119V155.91ZM91.7158 152.004L92.5981 154.871L92.6231 154.864L92.648 154.855L91.7158 152.004ZM111.735 140.773L113.82 142.93L113.822 142.929L111.735 140.773ZM104.167 99.7578L103.053 102.543L103.071 102.551L103.09 102.558L104.167 99.7578ZM50.7002 102.199L51.749 105.01L51.7818 104.998L51.8144 104.985L50.7002 102.199ZM16.5755 102.746L18.2845 85.9004L12.3151 85.2949L10.6061 102.141L16.5755 102.746ZM18.2782 85.9571C19.4192 76.503 20.7226 65.0984 22.1881 51.7453L16.224 51.0907C14.7599 64.4303 13.459 75.8122 12.3214 85.2382L18.2782 85.9571ZM22.1847 51.7754L25.1144 27.3613L19.1571 26.6465L16.2274 51.0605L22.1847 51.7754ZM25.0031 27.8862C25.2602 27.0504 25.5227 26.596 25.6991 26.3755C25.8473 26.1903 25.8804 26.2304 25.793 26.2522L24.3378 20.4314C21.4807 21.1457 20.0208 23.6764 19.2684 26.1216L25.0031 27.8862ZM25.7162 26.2704C26.8768 26.0125 28.5843 25.8535 30.9248 25.8535V19.8535C28.3825 19.8535 26.1838 20.0201 24.4146 20.4132L25.7162 26.2704ZM30.9248 25.8535C32.8688 25.8535 33.6726 26.3644 34.0382 26.7822L38.5536 22.8311C36.6405 20.6447 33.8636 19.8535 30.9248 19.8535V25.8535ZM34.1746 26.928C34.6863 27.4397 35.0049 28.1096 35.0049 29.2012H41.0049C41.0049 26.7121 40.1842 24.4523 38.4172 22.6853L34.1746 26.928ZM35.0172 29.4728C35.1459 30.8881 35.0258 32.6105 34.5832 34.6761L40.45 35.9333C40.9839 33.4416 41.1894 31.0949 40.9926 28.9296L35.0172 29.4728ZM34.5832 34.6761C34.0551 37.1408 33.7842 39.5492 33.7842 41.8965H39.7842C39.7842 40.0119 40.0016 38.0259 40.45 35.9333L34.5832 34.6761ZM36.7842 44.8965C48.3936 44.8965 59.919 43.6524 71.357 41.1659L70.0824 35.3028C59.0595 37.6991 47.9613 38.8965 36.7842 38.8965V44.8965ZM71.3483 41.1678C82.7845 38.7172 94.1392 36.0214 105.413 33.0806L103.898 27.2749C92.7104 30.1934 81.4414 32.8688 70.0911 35.301L71.3483 41.1678ZM105.413 33.0806C116.604 30.1612 127.794 27.4852 138.984 25.0526L137.709 19.1896C126.438 21.6398 115.168 24.3349 103.898 27.2749L105.413 33.0806ZM138.984 25.0526C150.007 22.6563 161.105 21.459 172.282 21.459V15.459C160.673 15.459 149.147 16.703 137.709 19.1896L138.984 25.0526ZM172.282 21.459C173.61 21.459 174.71 21.6579 175.623 22.0004L177.73 16.3824C176.039 15.7483 174.209 15.459 172.282 15.459V21.459ZM176.026 22.12C176.043 22.1237 176.156 22.1408 176.372 22.3876C176.616 22.6663 176.943 23.1912 177.27 24.1067L182.92 22.0886C181.98 19.456 180.305 16.9244 177.328 16.2628L176.026 22.12ZM177.249 22.149C176.783 23.5463 175.985 24.6923 174.803 25.6379L178.551 30.3231C180.624 28.6645 182.104 26.5553 182.941 24.0463L177.249 22.149ZM174.803 25.6379C173.606 26.595 171.26 27.7632 167.427 29.0407L169.325 34.7328C173.305 33.4061 176.492 31.9701 178.551 30.3231L174.803 25.6379ZM167.39 29.0532C163.802 30.3014 158.8 31.656 152.337 33.1103L153.654 38.9639C160.211 37.4885 165.463 36.0762 169.362 34.7202L167.39 29.0532ZM152.407 33.0954C145.867 34.4033 137.462 36.1987 127.198 38.4796L128.499 44.3368C138.743 42.0604 147.102 40.2751 153.583 38.9789L152.407 33.0954ZM127.242 38.4701C116.985 40.5866 104.45 43.1913 89.6378 46.284L90.8641 52.1574C105.674 49.0652 118.204 46.4616 128.455 44.3463L127.242 38.4701ZM89.6313 46.2854C74.963 49.382 57.6128 53.2105 37.5831 57.7701L38.9149 63.6205C58.9243 59.0655 76.2421 55.2443 90.8707 52.156L89.6313 46.2854ZM35.249 60.6953V91.9453H41.249V60.6953H35.249ZM38.529 94.9322C43.8308 94.4352 49.8488 93.6097 56.5762 92.4611L55.5664 86.5467C48.9474 87.6768 43.0839 88.4789 37.969 88.9584L38.529 94.9322ZM56.5771 92.461C68.9031 90.3526 78.1416 89.3301 84.3916 89.3301V83.3301C77.6208 83.3301 67.9791 84.4235 55.5655 86.5469L56.5771 92.461ZM84.3916 89.3301C90.8816 89.3301 96.2108 89.4113 100.39 89.572L100.62 83.5764C96.3354 83.4116 90.9225 83.3301 84.3916 83.3301V89.3301ZM100.394 89.5722C104.368 89.7193 109 90.7578 114.326 92.7943L116.469 87.19C110.727 84.9948 105.431 83.7546 100.616 83.5763L100.394 89.5722ZM114.323 92.7932C119.775 94.8843 123.913 98.0221 126.871 102.171C129.842 106.338 131.741 111.692 132.433 118.377L138.401 117.76C137.628 110.285 135.458 103.879 131.756 98.6875C128.041 93.4775 122.902 89.6574 116.472 87.1912L114.323 92.7932ZM132.417 118.068C132.417 127.73 129.748 135.757 124.524 142.324L129.22 146.059C135.39 138.303 138.417 128.914 138.417 118.068H132.417ZM124.519 142.331C119.274 148.964 112.629 154.307 104.534 158.354L107.218 163.72C116.05 159.304 123.402 153.417 129.225 146.052L124.519 142.331ZM104.534 158.354C89.0712 166.085 70.9913 170 50.2119 170V176C71.7502 176 90.7797 171.939 107.218 163.72L104.534 158.354ZM50.2119 170C45.7201 170 43.0735 169.495 41.7879 168.852L39.1046 174.218C41.7253 175.529 45.5892 176 50.2119 176V170ZM41.7879 168.852C41.3096 168.613 40.5166 167.931 40.5166 165.188H34.5166C34.5166 168.955 35.6767 172.504 39.1046 174.218L41.7879 168.852ZM40.5166 165.188C40.5166 162.811 41.4444 160.402 43.6651 157.903L39.1806 153.917C36.193 157.278 34.5166 161.054 34.5166 165.188H40.5166ZM43.6651 157.903C45.8266 155.472 47.9874 154.516 50.2119 154.516V148.516C45.926 148.516 42.2274 150.489 39.1806 153.917L43.6651 157.903ZM47.2119 151.516V155.91H53.2119V151.516H47.2119ZM50.2119 158.91C69.4514 158.91 83.6741 157.617 92.5981 154.871L90.8336 149.137C82.8305 151.599 69.3839 152.91 50.2119 152.91V158.91ZM92.648 154.855C101.415 151.989 108.526 148.049 113.82 142.93L109.65 138.616C105.179 142.938 98.9442 146.485 90.7836 149.152L92.648 154.855ZM113.822 142.929C119.464 137.469 122.304 130.663 122.304 122.707H116.304C116.304 129.074 114.098 134.313 109.649 138.618L113.822 142.929ZM122.304 122.707C122.304 115.247 120.797 109.139 117.139 105.075L112.679 109.089C114.881 111.535 116.304 115.845 116.304 122.707H122.304ZM117.139 105.075C113.882 101.456 109.901 98.749 105.244 96.9578L103.09 102.558C106.896 104.022 110.077 106.198 112.679 109.089L117.139 105.075ZM105.281 96.9724C98.3577 94.203 90.5638 92.8516 81.9502 92.8516V98.8516C89.9381 98.8516 96.9555 100.104 103.053 102.543L105.281 96.9724ZM81.9502 92.8516C73.5634 92.8516 66.9366 93.5012 62.2691 94.9374L64.0336 100.672C67.8297 99.504 73.7355 98.8516 81.9502 98.8516V92.8516ZM62.2691 94.9374C57.9598 96.2633 53.732 97.7554 49.586 99.4138L51.8144 104.985C55.8064 103.388 59.8794 101.95 64.0336 100.672L62.2691 94.9374ZM49.6514 99.3885C38.8065 103.435 30.9284 105.303 25.7979 105.303V111.303C32.0606 111.303 40.784 109.101 51.749 105.01L49.6514 99.3885ZM25.7979 105.303H21.8916V111.303H25.7979V105.303ZM21.8916 105.303C19.3862 105.303 18.0436 104.844 17.3961 104.387C16.9399 104.065 16.5908 103.594 16.5908 102.443H10.5908C10.5908 105.199 11.6252 107.658 13.936 109.289C16.0553 110.785 18.8632 111.303 21.8916 111.303V105.303Z" fill="black" mask="url(#path-2-outside-1_2_9)"/>
</g>
<defs>
<filter id="filter0_d_2_9" x="0" y="0" width="191" height="208" filterUnits="userSpaceOnUse" color-interpolation-filters="sRGB">
<feFlood flood-opacity="0" result="BackgroundImageFix"/>
<feColorMatrix in="SourceAlpha" type="matrix" values="0 0 0 0 0 0 0 0 0 0 0 0 0 0 0 0 0 0 127 0" result="hardAlpha"/>
<feOffset dy="4"/>
<feGaussianBlur stdDeviation="2"/>
<feComposite in2="hardAlpha" operator="out"/>
<feColorMatrix type="matrix" values="0 0 0 0 0 0 0 0 0 0 0 0 0 0 0 0 0 0 0.25 0"/>
<feBlend mode="normal" in2="BackgroundImageFix" result="effect1_dropShadow_2_9"/>
<feBlend mode="normal" in="SourceGraphic" in2="effect1_dropShadow_2_9" result="shape"/>
</filter>
</defs>
</svg>
