<svg width="191" height="208" viewBox="0 0 191 208" fill="none" xmlns="http://www.w3.org/2000/svg">
<g filter="url(#filter0_d_2_15)">
<rect x="4" width="183" height="200" fill="#D9D9D9" fill-opacity="0.41"/>
<mask id="path-2-outside-1_2_15" maskUnits="userSpaceOnUse" x="16" y="23" width="158" height="154" fill="black">
<rect fill="white" x="16" y="23" width="158" height="154"/>
<path d="M141.398 28.957C146.444 30.5846 150.432 33.026 153.361 36.2812C156.454 39.3737 157.919 44.5007 157.756 51.6621C157.593 58.8236 153.524 66.8802 145.549 75.832C154.989 79.5755 161.011 82.9935 163.615 86.0859C166.219 89.1784 167.928 92.4336 168.742 95.8516C169.719 99.1068 170.207 103.176 170.207 108.059C170.207 119.126 167.277 128.811 161.418 137.111C155.721 145.249 148.479 152.004 139.689 157.375C130.9 162.746 121.216 166.734 110.637 169.338C100.22 171.942 91.1868 173.244 83.5371 173.244C75.8874 173.244 68.4818 172.756 61.3203 171.779C54.3216 170.64 47.7298 168.687 41.5449 165.92C27.0592 159.41 19.8164 149.644 19.8164 136.623C19.8164 132.554 21.1185 128.566 23.7227 124.66C26.3268 120.591 29.0938 116.766 32.0234 113.186C35.1159 109.605 37.9642 106.268 40.5684 103.176C43.1725 99.9206 44.4746 97.1536 44.4746 94.875C44.4746 92.4336 43.9863 90.4805 43.0098 89.0156C42.196 87.388 41.2194 85.8418 40.0801 84.377C37.1504 80.6335 35.6855 76.4831 35.6855 71.9258C35.6855 67.3685 36.9876 62.8112 39.5918 58.2539C42.196 53.6966 45.6139 49.709 49.8457 46.291C54.2402 42.7103 59.2044 39.6992 64.7383 37.2578C70.2721 34.6536 75.8874 32.5378 81.584 30.9102C92.6517 27.9805 103.231 26.5156 113.322 26.5156C127.157 26.5156 136.516 27.3294 141.398 28.957ZM39.5918 133.938C39.5918 144.842 45.1257 152.492 56.1934 156.887C63.8431 159.816 73.0391 161.281 83.7812 161.281C94.5234 161.281 103.964 160.142 112.102 157.863C120.24 155.585 127.401 152.167 133.586 147.609C147.421 137.681 154.338 124.335 154.338 107.57C150.432 94.3867 138.143 87.7949 117.473 87.7949C103.15 87.7949 88.9082 90.9688 74.748 97.3164C61.2389 103.501 51.3919 110.907 45.207 119.533C41.9518 124.09 40.0801 128.892 39.5918 133.938ZM137.736 42.6289C130.738 39.5365 122.03 37.9902 111.613 37.9902C88.9896 37.9902 72.5508 43.6055 62.2969 54.8359C58.7161 58.7422 56.6003 63.4622 55.9492 68.9961C55.9492 73.8789 57.4954 77.6224 60.5879 80.2266C63.6803 82.668 67.668 83.8887 72.5508 83.8887C73.3646 84.0514 74.5853 84.1328 76.2129 84.1328C78.0033 84.1328 80.8516 83.8073 84.7578 83.1562C88.6641 82.3424 93.2214 81.2031 98.4297 79.7383C103.638 78.2734 108.846 76.5645 114.055 74.6113C119.426 72.4954 124.309 70.2982 128.703 68.0195C138.469 62.8112 144.165 58.0098 145.793 53.6152C145.793 50.8483 145.142 48.3255 143.84 46.0469C142.538 43.7682 140.503 42.6289 137.736 42.6289Z"/>
</mask>
<path d="M141.398 28.957C146.444 30.5846 150.432 33.026 153.361 36.2812C156.454 39.3737 157.919 44.5007 157.756 51.6621C157.593 58.8236 153.524 66.8802 145.549 75.832C154.989 79.5755 161.011 82.9935 163.615 86.0859C166.219 89.1784 167.928 92.4336 168.742 95.8516C169.719 99.1068 170.207 103.176 170.207 108.059C170.207 119.126 167.277 128.811 161.418 137.111C155.721 145.249 148.479 152.004 139.689 157.375C130.9 162.746 121.216 166.734 110.637 169.338C100.22 171.942 91.1868 173.244 83.5371 173.244C75.8874 173.244 68.4818 172.756 61.3203 171.779C54.3216 170.64 47.7298 168.687 41.5449 165.92C27.0592 159.41 19.8164 149.644 19.8164 136.623C19.8164 132.554 21.1185 128.566 23.7227 124.66C26.3268 120.591 29.0938 116.766 32.0234 113.186C35.1159 109.605 37.9642 106.268 40.5684 103.176C43.1725 99.9206 44.4746 97.1536 44.4746 94.875C44.4746 92.4336 43.9863 90.4805 43.0098 89.0156C42.196 87.388 41.2194 85.8418 40.0801 84.377C37.1504 80.6335 35.6855 76.4831 35.6855 71.9258C35.6855 67.3685 36.9876 62.8112 39.5918 58.2539C42.196 53.6966 45.6139 49.709 49.8457 46.291C54.2402 42.7103 59.2044 39.6992 64.7383 37.2578C70.2721 34.6536 75.8874 32.5378 81.584 30.9102C92.6517 27.9805 103.231 26.5156 113.322 26.5156C127.157 26.5156 136.516 27.3294 141.398 28.957ZM39.5918 133.938C39.5918 144.842 45.1257 152.492 56.1934 156.887C63.8431 159.816 73.0391 161.281 83.7812 161.281C94.5234 161.281 103.964 160.142 112.102 157.863C120.24 155.585 127.401 152.167 133.586 147.609C147.421 137.681 154.338 124.335 154.338 107.57C150.432 94.3867 138.143 87.7949 117.473 87.7949C103.15 87.7949 88.9082 90.9688 74.748 97.3164C61.2389 103.501 51.3919 110.907 45.207 119.533C41.9518 124.09 40.0801 128.892 39.5918 133.938ZM137.736 42.6289C130.738 39.5365 122.03 37.9902 111.613 37.9902C88.9896 37.9902 72.5508 43.6055 62.2969 54.8359C58.7161 58.7422 56.6003 63.4622 55.9492 68.9961C55.9492 73.8789 57.4954 77.6224 60.5879 80.2266C63.6803 82.668 67.668 83.8887 72.5508 83.8887C73.3646 84.0514 74.5853 84.1328 76.2129 84.1328C78.0033 84.1328 80.8516 83.8073 84.7578 83.1562C88.6641 82.3424 93.2214 81.2031 98.4297 79.7383C103.638 78.2734 108.846 76.5645 114.055 74.6113C119.426 72.4954 124.309 70.2982 128.703 68.0195C138.469 62.8112 144.165 58.0098 145.793 53.6152C145.793 50.8483 145.142 48.3255 143.84 46.0469C142.538 43.7682 140.503 42.6289 137.736 42.6289Z" fill="#E68F1E"/>
<path d="M141.398 28.957L140.45 31.8031L140.464 31.8077L140.477 31.8122L141.398 28.957ZM153.361 36.2812L151.131 38.2881L151.184 38.3468L151.24 38.4026L153.361 36.2812ZM145.549 75.832L143.309 73.8364L140.455 77.0394L144.443 78.6208L145.549 75.832ZM168.742 95.8516L165.824 96.5464L165.844 96.6307L165.869 96.7136L168.742 95.8516ZM161.418 137.111L158.967 135.381L158.96 135.391L161.418 137.111ZM110.637 169.338L109.92 166.425L109.909 166.427L110.637 169.338ZM61.3203 171.779L60.8383 174.74L60.8766 174.747L60.915 174.752L61.3203 171.779ZM41.5449 165.92L40.3151 168.656L40.3198 168.658L41.5449 165.92ZM23.7227 124.66L26.2188 126.324L26.2344 126.301L26.2495 126.277L23.7227 124.66ZM32.0234 113.186L29.753 111.225L29.7269 111.255L29.7016 111.286L32.0234 113.186ZM40.5684 103.176L42.8631 105.108L42.8874 105.079L42.911 105.05L40.5684 103.176ZM43.0098 89.0156L40.3265 90.3573L40.41 90.5243L40.5136 90.6797L43.0098 89.0156ZM40.0801 84.377L42.4481 82.5351L42.4426 82.528L40.0801 84.377ZM49.8457 46.291L51.7307 48.6249L51.7407 48.6167L49.8457 46.291ZM64.7383 37.2578L65.9492 40.0026L65.9826 39.9878L66.0157 39.9723L64.7383 37.2578ZM81.584 30.9102L80.8163 28.01L80.788 28.0175L80.7598 28.0256L81.584 30.9102ZM39.5918 133.938L36.6057 133.649L36.5918 133.793V133.938H39.5918ZM56.1934 156.887L55.0863 159.675L55.1033 159.682L55.1204 159.688L56.1934 156.887ZM112.102 157.863L111.293 154.974L112.102 157.863ZM133.586 147.609L131.837 145.172L131.822 145.183L131.806 145.194L133.586 147.609ZM154.338 107.57H157.338V107.135L157.214 106.718L154.338 107.57ZM74.748 97.3164L73.5209 94.5789L73.51 94.5837L73.4992 94.5887L74.748 97.3164ZM45.207 119.533L42.7689 117.785L42.7658 117.789L45.207 119.533ZM137.736 42.6289L136.524 45.373L137.103 45.6289H137.736V42.6289ZM62.2969 54.8359L64.5083 56.8631L64.5123 56.8587L62.2969 54.8359ZM55.9492 68.9961L52.9698 68.6456L52.9492 68.8202V68.9961H55.9492ZM60.5879 80.2266L58.6555 82.5213L58.6917 82.5518L58.729 82.5812L60.5879 80.2266ZM72.5508 83.8887L73.1391 80.9469L72.8478 80.8887H72.5508V83.8887ZM84.7578 83.1562L85.251 86.1154L85.3106 86.1055L85.3697 86.0932L84.7578 83.1562ZM114.055 74.6113L115.108 77.4203L115.131 77.4116L115.154 77.4026L114.055 74.6113ZM128.703 68.0195L130.084 70.6828L130.1 70.6748L130.115 70.6666L128.703 68.0195ZM145.793 53.6152L148.606 54.6572L148.793 54.1529V53.6152H145.793ZM143.84 46.0469L141.235 47.5353L143.84 46.0469ZM140.477 31.8122C145.125 33.3115 148.623 35.5013 151.131 38.2881L155.591 34.2744C152.24 30.5508 147.763 27.8578 142.319 26.1019L140.477 31.8122ZM151.24 38.4026C153.475 40.6374 154.912 44.7503 154.757 51.5939L160.755 51.7303C160.925 44.251 159.433 38.11 155.483 34.1599L151.24 38.4026ZM154.757 51.5939C154.618 57.6993 151.105 65.0859 143.309 73.8364L147.789 77.8276C155.943 68.6745 160.568 59.9478 160.755 51.7303L154.757 51.5939ZM144.443 78.6208C149.088 80.4626 152.816 82.1952 155.665 83.8122C158.555 85.4524 160.354 86.8711 161.321 88.0183L165.91 84.1535C164.272 82.2083 161.759 80.3718 158.626 78.5941C155.453 76.793 151.45 74.9449 146.655 73.0433L144.443 78.6208ZM161.321 88.0183C163.669 90.8067 165.134 93.6482 165.824 96.5464L171.661 95.1567C170.723 91.219 168.77 87.55 165.91 84.1535L161.321 88.0183ZM165.869 96.7136C166.734 99.5964 167.207 103.352 167.207 108.059H173.207C173.207 103 172.704 98.6171 171.616 94.9895L165.869 96.7136ZM167.207 108.059C167.207 118.565 164.437 127.632 158.967 135.381L163.869 138.841C170.118 129.989 173.207 119.688 173.207 108.059H167.207ZM158.96 135.391C153.509 143.178 146.575 149.651 138.125 154.815L141.254 159.935C150.382 154.357 157.933 147.321 163.876 138.832L158.96 135.391ZM138.125 154.815C129.613 160.017 120.218 163.89 109.92 166.425L111.354 172.251C122.215 169.577 132.187 165.475 141.254 159.935L138.125 154.815ZM109.909 166.427C99.6428 168.994 90.8653 170.244 83.5371 170.244V176.244C91.5084 176.244 100.797 174.89 111.364 172.248L109.909 166.427ZM83.5371 170.244C76.0151 170.244 68.7452 169.764 61.7257 168.807L60.915 174.752C68.2183 175.748 75.7596 176.244 83.5371 176.244V170.244ZM61.8023 168.818C55.048 167.719 48.7071 165.838 42.77 163.181L40.3198 168.658C46.7525 171.536 53.5952 173.561 60.8383 174.74L61.8023 168.818ZM42.7747 163.184C35.8607 160.076 30.8944 156.289 27.6581 151.926C24.448 147.598 22.8164 142.538 22.8164 136.623H16.8164C16.8164 143.729 18.8062 150.063 22.8389 155.5C26.8455 160.902 32.7435 165.253 40.3151 168.656L42.7747 163.184ZM22.8164 136.623C22.8164 133.233 23.8913 129.816 26.2188 126.324L21.2265 122.996C18.3457 127.317 16.8164 131.875 16.8164 136.623H22.8164ZM26.2495 126.277C28.7936 122.302 31.4925 118.572 34.3453 115.085L29.7016 111.286C26.695 114.961 23.86 118.88 21.1958 123.043L26.2495 126.277ZM34.2939 115.146C37.3932 111.558 40.2497 108.212 42.8631 105.108L38.2736 101.243C35.6787 104.325 32.8386 107.652 29.753 111.225L34.2939 115.146ZM42.911 105.05C45.6302 101.651 47.4746 98.2051 47.4746 94.875H41.4746C41.4746 96.1022 40.7148 98.1903 38.2258 101.302L42.911 105.05ZM47.4746 94.875C47.4746 92.0627 46.9154 89.4658 45.5059 87.3515L40.5136 90.6797C41.0572 91.4952 41.4746 92.8045 41.4746 94.875H47.4746ZM45.693 87.674C44.7892 85.8662 43.7063 84.1528 42.4481 82.5351L37.712 86.2188C38.7325 87.5308 39.6028 88.9098 40.3265 90.3573L45.693 87.674ZM42.4426 82.528C39.9068 79.2879 38.6855 75.7824 38.6855 71.9258H32.6855C32.6855 77.1837 34.394 81.9791 37.7176 86.2259L42.4426 82.528ZM38.6855 71.9258C38.6855 67.9653 39.8116 63.916 42.1965 59.7423L36.9871 56.7655C34.1637 61.7064 32.6855 66.7716 32.6855 71.9258H38.6855ZM42.1965 59.7423C44.6087 55.5209 47.7786 51.8169 51.7307 48.6248L47.9607 43.9572C43.4492 47.6011 39.7832 51.8723 36.9871 56.7655L42.1965 59.7423ZM51.7407 48.6167C55.9135 45.2166 60.6447 42.3428 65.9492 40.0026L63.5274 34.5131C57.7642 37.0557 52.5669 40.2039 47.9507 43.9653L51.7407 48.6167ZM66.0157 39.9723C71.408 37.4347 76.8719 35.3765 82.4081 33.7947L80.7598 28.0256C74.9029 29.699 69.1363 31.8726 63.4609 34.5434L66.0157 39.9723ZM82.3517 33.8103C93.2019 30.9382 103.522 29.5156 113.322 29.5156V23.5156C102.94 23.5156 92.1015 25.0228 80.8163 28.01L82.3517 33.8103ZM113.322 29.5156C127.203 29.5156 136.093 30.3507 140.45 31.8031L142.347 26.111C136.939 24.3082 127.111 23.5156 113.322 23.5156V29.5156ZM36.5918 133.938C36.5918 139.92 38.1192 145.199 41.3115 149.612C44.4901 154.006 49.16 157.322 55.0863 159.675L57.3005 154.098C52.1591 152.057 48.5281 149.351 46.1729 146.095C43.8313 142.858 42.5918 138.86 42.5918 133.938H36.5918ZM55.1204 159.688C63.2009 162.783 72.7804 164.281 83.7812 164.281V158.281C73.2977 158.281 64.4853 156.85 57.2663 154.085L55.1204 159.688ZM83.7812 164.281C94.7267 164.281 104.449 163.121 112.91 160.752L111.293 154.974C103.478 157.163 94.3202 158.281 83.7812 158.281V164.281ZM112.91 160.752C121.363 158.385 128.861 154.818 135.366 150.025L131.806 145.194C125.942 149.516 119.116 152.784 111.293 154.974L112.91 160.752ZM135.335 150.047C149.94 139.565 157.338 125.319 157.338 107.57H151.338C151.338 123.35 144.901 135.797 131.837 145.172L135.335 150.047ZM157.214 106.718C155.03 99.3463 150.449 93.7635 143.61 90.0951C136.87 86.4794 128.082 84.7949 117.473 84.7949V90.7949C127.534 90.7949 135.226 92.4063 140.774 95.3824C146.224 98.3058 149.739 102.611 151.461 108.423L157.214 106.718ZM117.473 84.7949C102.692 84.7949 88.0344 88.0728 73.5209 94.5789L75.9752 100.054C89.782 93.8647 103.607 90.7949 117.473 90.7949V84.7949ZM73.4992 94.5887C59.6954 100.909 49.356 108.598 42.7689 117.785L47.6451 121.281C53.4279 113.216 62.7825 106.094 75.9969 100.044L73.4992 94.5887ZM42.7658 117.789C39.2374 122.729 37.15 128.025 36.6057 133.649L42.5778 134.226C43.0102 129.759 44.6663 125.452 47.6482 121.277L42.7658 117.789ZM138.949 39.8848C131.457 36.5744 122.305 34.9902 111.613 34.9902V40.9902C121.754 40.9902 130.019 42.4986 136.524 45.373L138.949 39.8848ZM111.613 34.9902C88.5601 34.9902 71.1328 40.7092 60.0814 52.8131L64.5123 56.8587C73.9687 46.5017 89.4191 40.9902 111.613 40.9902V34.9902ZM60.0854 52.8088C56.0563 57.2042 53.6904 62.5203 52.9698 68.6456L58.9287 69.3466C59.5101 64.4041 61.376 60.2802 64.5083 56.8631L60.0854 52.8088ZM52.9492 68.9961C52.9492 74.5618 54.7455 79.2287 58.6555 82.5213L62.5203 77.9318C60.2454 76.0161 58.9492 73.196 58.9492 68.9961H52.9492ZM58.729 82.5812C62.4675 85.5327 67.1587 86.8887 72.5508 86.8887V80.8887C68.1772 80.8887 64.8932 79.8033 62.4468 77.8719L58.729 82.5812ZM71.9624 86.8304C73.076 87.0531 74.5378 87.1328 76.2129 87.1328V81.1328C74.6328 81.1328 73.6531 81.0497 73.1391 80.9469L71.9624 86.8304ZM76.2129 87.1328C78.2701 87.1328 81.3286 86.7692 85.251 86.1154L84.2646 80.1971C80.3745 80.8454 77.7364 81.1328 76.2129 81.1328V87.1328ZM85.3697 86.0932C89.3621 85.2614 93.9889 84.1036 99.2419 82.6262L97.6175 76.8503C92.4538 78.3026 87.966 79.4235 84.1459 80.2193L85.3697 86.0932ZM99.2419 82.6262C104.534 81.1378 109.823 79.4023 115.108 77.4203L113.001 71.8023C107.87 73.7266 102.742 75.409 97.6175 76.8503L99.2419 82.6262ZM115.154 77.4026C120.606 75.2549 125.584 73.0159 130.084 70.6828L127.322 65.3563C123.033 67.5804 118.246 69.736 112.955 71.8201L115.154 77.4026ZM130.115 70.6666C135.103 68.0062 139.167 65.3907 142.233 62.8061C145.267 60.2492 147.536 57.5469 148.606 54.6572L142.98 52.5733C142.422 54.0781 141.029 55.9738 138.366 58.2183C135.736 60.4351 132.069 62.8246 127.291 65.3725L130.115 70.6666ZM148.793 53.6152C148.793 50.3557 148.02 47.3153 146.445 44.5585L141.235 47.5353C142.264 49.3358 142.793 51.341 142.793 53.6152H148.793ZM146.445 44.5585C144.574 41.2843 141.508 39.6289 137.736 39.6289V45.6289C139.499 45.6289 140.502 46.2521 141.235 47.5353L146.445 44.5585Z" fill="black" mask="url(#path-2-outside-1_2_15)"/>
</g>
<defs>
<filter id="filter0_d_2_15" x="0" y="0" width="191" height="208" filterUnits="userSpaceOnUse" color-interpolation-filters="sRGB">
<feFlood flood-opacity="0" result="BackgroundImageFix"/>
<feColorMatrix in="SourceAlpha" type="matrix" values="0 0 0 0 0 0 0 0 0 0 0 0 0 0 0 0 0 0 127 0" result="hardAlpha"/>
<feOffset dy="4"/>
<feGaussianBlur stdDeviation="2"/>
<feComposite in2="hardAlpha" operator="out"/>
<feColorMatrix type="matrix" values="0 0 0 0 0 0 0 0 0 0 0 0 0 0 0 0 0 0 0.25 0"/>
<feBlend mode="normal" in2="BackgroundImageFix" result="effect1_dropShadow_2_15"/>
<feBlend mode="normal" in="SourceGraphic" in2="effect1_dropShadow_2_15" result="shape"/>
</filter>
</defs>
</svg>
