<svg width="191" height="208" viewBox="0 0 191 208" fill="none" xmlns="http://www.w3.org/2000/svg">
<g filter="url(#filter0_d_2_21)">
<rect x="4" width="183" height="200" fill="#D9D9D9" fill-opacity="0.41"/>
<mask id="path-2-outside-1_2_21" maskUnits="userSpaceOnUse" x="28" y="19" width="128" height="158" fill="black">
<rect fill="white" x="28" y="19" width="128" height="158"/>
<path d="M84.6357 173C82.5199 172.674 80.6481 171.454 79.0205 169.338C77.5557 167.222 76.8232 164.699 76.8232 161.77C92.4482 152.492 103.597 144.354 110.271 137.355C117.106 130.194 122.315 123.114 125.896 116.115C129.476 109.117 131.592 101.141 132.243 92.1895C130.616 92.0267 128.418 91.9453 125.651 91.9453C122.884 91.9453 118.978 92.3522 113.933 93.166C109.05 93.8171 103.76 94.6309 98.0635 95.6074C85.0426 97.7233 76.6605 98.7812 72.917 98.7812C69.1735 98.7812 65.43 98.6999 61.6865 98.5371C58.1058 98.2116 53.7926 97.0723 48.7471 95.1191C43.8643 93.166 39.307 89.9922 35.0752 85.5977C32.7965 82.5052 31.6572 79.7383 31.6572 77.2969C31.6572 65.2526 39.8766 53.3711 56.3154 41.6523C69.6618 32.0495 82.9268 25.946 96.1104 23.3418C99.3656 22.6908 102.377 22.3652 105.144 22.3652C108.073 22.3652 110.84 22.7721 113.444 23.5859C132.487 29.4453 144.694 40.5944 150.065 57.0332C152.019 63.0553 152.995 68.1823 152.995 72.4141C152.995 76.6458 152.832 81.2845 152.507 86.3301C152.181 91.3757 150.635 98.2116 147.868 106.838C145.101 115.301 141.358 123.439 136.638 131.252C132.08 139.064 126.953 145.982 121.257 152.004C108.887 165.35 96.68 172.349 84.6357 173ZM54.6064 78.7617C62.0934 82.0169 71.3708 83.6445 82.4385 83.6445C98.5518 83.6445 114.828 80.3079 131.267 73.6348C131.918 70.8678 132.243 68.4264 132.243 66.3105C132.243 64.1947 132.08 61.8346 131.755 59.2305C131.429 56.4635 130.29 53.5339 128.337 50.4414C123.78 43.4427 116.944 39.6178 107.829 38.9668C83.9033 38.9668 67.7087 45.8841 59.2451 59.7188C56.1527 64.9271 54.6064 71.2747 54.6064 78.7617Z"/>
</mask>
<path d="M84.6357 173C82.5199 172.674 80.6481 171.454 79.0205 169.338C77.5557 167.222 76.8232 164.699 76.8232 161.77C92.4482 152.492 103.597 144.354 110.271 137.355C117.106 130.194 122.315 123.114 125.896 116.115C129.476 109.117 131.592 101.141 132.243 92.1895C130.616 92.0267 128.418 91.9453 125.651 91.9453C122.884 91.9453 118.978 92.3522 113.933 93.166C109.05 93.8171 103.76 94.6309 98.0635 95.6074C85.0426 97.7233 76.6605 98.7812 72.917 98.7812C69.1735 98.7812 65.43 98.6999 61.6865 98.5371C58.1058 98.2116 53.7926 97.0723 48.7471 95.1191C43.8643 93.166 39.307 89.9922 35.0752 85.5977C32.7965 82.5052 31.6572 79.7383 31.6572 77.2969C31.6572 65.2526 39.8766 53.3711 56.3154 41.6523C69.6618 32.0495 82.9268 25.946 96.1104 23.3418C99.3656 22.6908 102.377 22.3652 105.144 22.3652C108.073 22.3652 110.84 22.7721 113.444 23.5859C132.487 29.4453 144.694 40.5944 150.065 57.0332C152.019 63.0553 152.995 68.1823 152.995 72.4141C152.995 76.6458 152.832 81.2845 152.507 86.3301C152.181 91.3757 150.635 98.2116 147.868 106.838C145.101 115.301 141.358 123.439 136.638 131.252C132.08 139.064 126.953 145.982 121.257 152.004C108.887 165.35 96.68 172.349 84.6357 173ZM54.6064 78.7617C62.0934 82.0169 71.3708 83.6445 82.4385 83.6445C98.5518 83.6445 114.828 80.3079 131.267 73.6348C131.918 70.8678 132.243 68.4264 132.243 66.3105C132.243 64.1947 132.08 61.8346 131.755 59.2305C131.429 56.4635 130.29 53.5339 128.337 50.4414C123.78 43.4427 116.944 39.6178 107.829 38.9668C83.9033 38.9668 67.7087 45.8841 59.2451 59.7188C56.1527 64.9271 54.6064 71.2747 54.6064 78.7617Z" fill="#E68F1E"/>
<path d="M84.6357 173L84.1796 175.965L84.487 176.012L84.7977 175.996L84.6357 173ZM79.0205 169.338L76.5539 171.046L76.5968 171.107L76.6426 171.167L79.0205 169.338ZM76.8232 161.77L75.2916 159.19L73.8232 160.062V161.77H76.8232ZM110.271 137.355L108.1 135.284L108.099 135.285L110.271 137.355ZM132.243 92.1895L135.235 92.4071L135.447 89.4949L132.542 89.2043L132.243 92.1895ZM113.933 93.166L114.329 96.1397L114.37 96.1343L114.41 96.1277L113.933 93.166ZM98.0635 95.6074L98.5447 98.5686L98.5575 98.5665L98.5704 98.5643L98.0635 95.6074ZM61.6865 98.5371L61.4149 101.525L61.4855 101.531L61.5562 101.534L61.6865 98.5371ZM48.7471 95.1191L47.6329 97.9046L47.6485 97.9108L47.6641 97.9168L48.7471 95.1191ZM35.0752 85.5977L32.66 87.3773L32.7772 87.5363L32.9142 87.6786L35.0752 85.5977ZM56.3154 41.6523L58.0569 44.0952L58.0676 44.0875L56.3154 41.6523ZM96.1104 23.3418L96.6917 26.2849L96.6987 26.2835L96.1104 23.3418ZM113.444 23.5859L112.55 26.4494L112.562 26.4533L113.444 23.5859ZM150.065 57.0332L152.919 56.1077L152.917 56.1015L150.065 57.0332ZM147.868 106.838L150.72 107.77L150.722 107.762L150.725 107.754L147.868 106.838ZM136.638 131.252L134.07 129.701L134.058 129.72L134.046 129.74L136.638 131.252ZM121.257 152.004L119.077 149.942L119.067 149.953L119.057 149.965L121.257 152.004ZM54.6064 78.7617H51.6064V80.7287L53.4103 81.5129L54.6064 78.7617ZM131.267 73.6348L132.395 76.4145L133.832 75.8312L134.187 74.3219L131.267 73.6348ZM131.755 59.2305L128.775 59.581L128.777 59.5918L128.778 59.6026L131.755 59.2305ZM128.337 50.4414L130.873 48.8394L130.862 48.8218L130.851 48.8044L128.337 50.4414ZM107.829 38.9668L108.043 35.9744L107.936 35.9668H107.829V38.9668ZM59.2451 59.7188L56.686 58.1532L56.6757 58.1701L56.6656 58.1871L59.2451 59.7188ZM85.0919 170.035C83.916 169.854 82.6774 169.171 81.3984 167.509L76.6426 171.167C78.6188 173.736 81.1237 175.495 84.1796 175.965L85.0919 170.035ZM81.4871 167.63C80.4162 166.083 79.8232 164.176 79.8232 161.77H73.8232C73.8232 165.222 74.6951 168.361 76.5539 171.046L81.4871 167.63ZM78.3549 164.349C94.0474 155.032 105.481 146.726 112.442 139.426L108.099 135.285C101.714 141.982 90.8491 149.953 75.2916 159.19L78.3549 164.349ZM112.441 139.427C119.427 132.108 124.825 124.795 128.566 117.482L123.225 114.749C119.805 121.433 114.786 128.28 108.1 135.284L112.441 139.427ZM128.566 117.482C132.354 110.078 134.559 101.703 135.235 92.4071L129.251 91.9718C128.625 100.58 126.598 108.155 123.225 114.749L128.566 117.482ZM132.542 89.2043C130.77 89.0272 128.46 88.9453 125.651 88.9453V94.9453C128.377 94.9453 130.461 95.0262 131.945 95.1746L132.542 89.2043ZM125.651 88.9453C122.643 88.9453 118.55 89.3825 113.455 90.2043L114.41 96.1277C119.406 95.3219 123.126 94.9453 125.651 94.9453V88.9453ZM113.536 90.1923C108.611 90.849 103.284 91.6687 97.5566 92.6506L98.5704 98.5643C104.236 97.593 109.489 96.7851 114.329 96.1397L113.536 90.1923ZM97.5823 92.6463C84.4927 94.7733 76.3691 95.7812 72.917 95.7812V101.781C76.9519 101.781 85.5926 100.673 98.5447 98.5686L97.5823 92.6463ZM72.917 95.7812C69.217 95.7812 65.517 95.7008 61.8168 95.5399L61.5562 101.534C65.3431 101.699 69.13 101.781 72.917 101.781V95.7812ZM61.9581 95.5494C58.7576 95.2585 54.7325 94.2191 49.8301 92.3214L47.6641 97.9168C52.8528 99.9254 57.454 101.165 61.4149 101.525L61.9581 95.5494ZM49.8612 92.3337C45.4317 90.5619 41.2198 87.6536 37.2362 83.5167L32.9142 87.6786C37.3941 92.3308 42.2969 95.7702 47.6329 97.9046L49.8612 92.3337ZM37.4904 83.8181C35.3889 80.9661 34.6572 78.8246 34.6572 77.2969H28.6572C28.6572 80.652 30.2042 84.0443 32.66 87.3773L37.4904 83.8181ZM34.6572 77.2969C34.6572 66.7302 41.8753 55.6305 58.0569 44.0952L54.574 39.2095C37.8779 51.1117 28.6572 63.775 28.6572 77.2969H34.6572ZM58.0676 44.0875C71.141 34.681 84.0137 28.7892 96.6917 26.2849L95.529 20.3987C81.8398 23.1027 68.1826 29.4179 54.5633 39.2172L58.0676 44.0875ZM96.6987 26.2835C99.7972 25.6638 102.609 25.3652 105.144 25.3652V19.3652C102.145 19.3652 98.9339 19.7177 95.522 20.4001L96.6987 26.2835ZM105.144 25.3652C107.792 25.3652 110.256 25.7325 112.55 26.4494L114.339 20.7225C111.425 19.8117 108.354 19.3652 105.144 19.3652V25.3652ZM112.562 26.4533C130.836 32.0761 142.195 42.6043 147.214 57.9649L152.917 56.1015C147.194 38.5845 134.138 26.8145 114.327 20.7186L112.562 26.4533ZM147.212 57.9587C149.111 63.8149 149.995 68.6111 149.995 72.4141H155.995C155.995 67.7535 154.926 62.2958 152.919 56.1077L147.212 57.9587ZM149.995 72.4141C149.995 76.5705 149.835 81.1437 149.513 86.1369L155.501 86.5232C155.83 81.4253 155.995 76.7212 155.995 72.4141H149.995ZM149.513 86.1369C149.211 90.8158 147.752 97.3763 145.012 105.922L150.725 107.754C153.518 99.0469 155.151 91.9355 155.501 86.5232L149.513 86.1369ZM145.017 105.906C142.322 114.147 138.675 122.078 134.07 129.701L139.205 132.803C144.04 124.801 147.88 116.456 150.72 107.77L145.017 105.906ZM134.046 129.74C129.594 137.372 124.603 144.101 119.077 149.942L123.436 154.066C129.304 147.862 134.566 140.757 139.229 132.764L134.046 129.74ZM119.057 149.965C106.952 163.025 95.4234 169.413 84.4738 170.004L84.7977 175.996C97.9366 175.285 110.822 167.676 123.457 154.043L119.057 149.965ZM53.4103 81.5129C61.3834 84.9795 71.0971 86.6445 82.4385 86.6445V80.6445C71.6444 80.6445 62.8034 79.0543 55.8026 76.0105L53.4103 81.5129ZM82.4385 86.6445C98.9759 86.6445 115.634 83.2184 132.395 76.4145L130.138 70.8551C114.022 77.3975 98.1276 80.6445 82.4385 80.6445V86.6445ZM134.187 74.3219C134.874 71.4013 135.243 68.7212 135.243 66.3105H129.243C129.243 68.1316 128.961 70.3344 128.346 72.9476L134.187 74.3219ZM135.243 66.3105C135.243 64.0449 135.069 61.558 134.732 58.8584L128.778 59.6026C129.092 62.1113 129.243 64.3444 129.243 66.3105H135.243ZM134.734 58.8799C134.343 55.5515 132.994 52.1971 130.873 48.8394L125.8 52.0434C127.586 54.8706 128.516 57.3756 128.775 59.581L134.734 58.8799ZM130.851 48.8044C125.728 40.9371 117.992 36.6851 108.043 35.9744L107.615 41.9592C115.895 42.5506 121.831 45.9483 125.823 52.0784L130.851 48.8044ZM107.829 35.9668C83.3964 35.9668 65.9262 43.049 56.686 58.1532L61.8042 61.2843C69.4911 48.7192 84.4103 41.9668 107.829 41.9668V35.9668ZM56.6656 58.1871C53.2398 63.9568 51.6064 70.8622 51.6064 78.7617H57.6064C57.6064 71.6873 59.0655 65.8973 61.8247 61.2504L56.6656 58.1871Z" fill="black" mask="url(#path-2-outside-1_2_21)"/>
</g>
<defs>
<filter id="filter0_d_2_21" x="0" y="0" width="191" height="208" filterUnits="userSpaceOnUse" color-interpolation-filters="sRGB">
<feFlood flood-opacity="0" result="BackgroundImageFix"/>
<feColorMatrix in="SourceAlpha" type="matrix" values="0 0 0 0 0 0 0 0 0 0 0 0 0 0 0 0 0 0 127 0" result="hardAlpha"/>
<feOffset dy="4"/>
<feGaussianBlur stdDeviation="2"/>
<feComposite in2="hardAlpha" operator="out"/>
<feColorMatrix type="matrix" values="0 0 0 0 0 0 0 0 0 0 0 0 0 0 0 0 0 0 0.25 0"/>
<feBlend mode="normal" in2="BackgroundImageFix" result="effect1_dropShadow_2_21"/>
<feBlend mode="normal" in="SourceGraphic" in2="effect1_dropShadow_2_21" result="shape"/>
</filter>
</defs>
</svg>
