<svg width="179" height="179" viewBox="0 0 179 179" fill="none" xmlns="http://www.w3.org/2000/svg">
<path d="M13.8523 50.3878C16.4443 47.1288 19.3413 43.3158 25.0513 35.0398ZM13.8523 50.3878C18.5933 44.3558 22.5593 38.0518 25.0513 35.0398ZM11.2513 57.1558C20.2033 46.0598 28.3333 32.7188 34.8283 24.8428ZM11.2513 57.1558C17.7493 47.8248 24.5853 39.3458 34.8283 24.8428ZM8.65026 63.9238C15.9423 52.9218 24.3943 42.7108 41.6583 18.6848ZM8.65026 63.9238C20.0893 48.1208 30.9023 33.6188 41.6583 18.6848ZM6.63926 69.8828C16.0613 58.2298 24.5163 45.4428 44.9513 17.3748ZM6.63926 69.8828C15.7893 57.7138 24.5583 46.2058 44.9513 17.3748ZM4.03826 76.6508C12.7473 63.9168 22.2693 51.3458 48.2453 16.0638ZM4.03826 76.6508C14.0343 63.5548 23.4543 50.8968 48.2453 16.0638ZM4.97426 78.5718C20.7743 56.6898 35.0893 36.4588 52.1273 13.9448ZM4.97426 78.5718C17.8333 60.8898 30.9993 42.8408 52.1273 13.9448ZM5.32026 81.2998C19.5373 63.2378 31.2073 45.3388 55.4213 12.6348ZM5.32026 81.2998C17.2943 65.5308 28.4193 49.6238 55.4213 12.6348ZM5.66626 84.0278C19.7023 64.8908 32.8113 46.4438 58.7143 11.3238ZM5.66626 84.0278C17.9183 67.1498 30.5333 49.7328 58.7143 11.3238ZM5.42326 87.5648C23.3143 62.0158 41.5043 37.8048 62.0083 10.0128ZM5.42326 87.5648C25.8163 59.1708 45.9983 31.6968 62.0083 10.0128ZM5.77026 90.2928C28.2273 61.1768 49.0123 30.4588 65.3013 8.70283ZM5.77026 90.2928C19.9973 70.9958 34.4893 51.5958 65.3013 8.70283ZM6.11626 93.0218C24.3623 68.9018 41.4543 44.9938 68.5943 7.39183ZM6.11626 93.0218C31.4123 59.6958 55.6413 25.4578 68.5943 7.39183ZM6.46226 95.7498C29.0623 65.2118 52.6393 31.8118 71.8883 6.08083ZM6.46226 95.7498C25.6173 69.4138 44.6493 43.9388 71.8883 6.08083ZM6.80826 98.4788C23.9193 76.6658 40.6813 54.1788 74.5923 5.57783ZM6.80826 98.4788C30.6313 65.4668 54.2813 32.9408 74.5923 5.57783ZM6.56526 102.015C24.5293 77.7878 42.5733 54.8038 77.2963 5.07583ZM6.56526 102.015C31.3943 69.2438 55.5083 35.5578 77.2963 5.07583ZM6.91226 104.743C29.2343 74.3508 49.9733 45.3648 79.4103 5.38083ZM6.91226 104.743C35.1293 64.5918 64.6583 24.8168 79.4103 5.38083ZM7.25826 107.472C25.3213 81.5438 44.0013 56.1098 81.5253 5.68483ZM7.25826 107.472C32.4443 73.3748 57.3983 38.4218 81.5253 5.68483ZM7.60426 110.2C27.6263 83.6738 45.2403 57.5858 83.6393 5.98983ZM7.60426 110.2C26.8893 83.2308 46.6143 57.0108 83.6393 5.98983ZM7.36126 113.736C35.8853 74.7178 64.7233 34.5178 86.3433 5.48783ZM7.36126 113.736C33.7393 77.5388 61.1223 41.0618 86.3433 5.48783ZM8.29726 115.657C39.8903 73.0358 71.5603 28.3858 88.4583 5.79283ZM8.29726 115.657C37.8093 75.8128 67.3713 34.7208 88.4583 5.79283ZM9.23326 117.578C39.0673 77.1538 66.4733 38.4338 90.5723 6.09783ZM9.23326 117.578C30.1893 88.3658 51.8593 58.4798 90.5723 6.09783ZM10.1683 119.498C27.8183 94.0678 48.1413 68.9668 92.6873 6.40283ZM10.1683 119.498C38.5103 80.5728 67.2703 41.6828 92.6873 6.40283ZM11.1043 121.419C45.1213 76.8188 78.7973 30.8348 95.3913 5.89983ZM11.1043 121.419C28.9393 97.3768 47.1963 72.8098 95.3913 5.89983ZM12.0403 123.34C44.9413 77.5048 78.1633 31.5118 97.5063 6.20483ZM12.0403 123.34C37.0893 87.6108 63.1523 52.9928 97.5063 6.20483ZM12.9753 125.26C35.3883 93.6588 57.8933 63.3888 99.6203 6.50983ZM12.9753 125.26C32.0923 99.8848 50.1543 74.9678 99.6203 6.50983ZM13.9113 127.181C48.6543 78.2998 84.6603 29.8878 102.324 6.00683ZM13.9113 127.181C41.0983 89.3808 69.2733 51.6708 102.324 6.00683ZM14.8473 129.101C36.0823 100.131 57.5413 69.7988 104.439 6.31183ZM14.8473 129.101C34.9323 102.147 54.2923 74.5268 104.439 6.31183ZM15.7833 131.022C42.5853 93.2868 71.2253 57.5178 106.553 6.61683ZM15.7833 131.022C37.5783 100.512 59.5243 71.1288 106.553 6.61683ZM16.7183 132.943C48.5083 89.6558 80.5283 45.8228 108.668 6.92183ZM16.7183 132.943C38.0163 104.186 58.6513 76.3228 108.668 6.92183ZM18.2433 134.055C39.8653 104.251 62.3103 74.1268 111.372 6.41883ZM18.2433 134.055C54.9783 82.7958 92.0103 32.2498 111.372 6.41883ZM19.1793 135.976C53.7823 87.6058 88.9613 39.6668 112.897 7.53183ZM19.1793 135.976C54.7983 86.2858 91.7033 36.8258 112.897 7.53183ZM20.1153 137.897C50.0603 98.6588 78.9763 58.1218 115.011 7.83683ZM20.1153 137.897C50.4343 97.9278 79.1843 57.0458 115.011 7.83683ZM21.0513 139.817C42.6283 108.562 64.4213 79.0838 116.537 8.94883ZM21.0513 139.817C49.4583 101.201 77.2583 62.4758 116.537 8.94883ZM21.9863 141.738C48.9263 106.671 73.5673 71.3458 118.062 10.0618ZM21.9863 141.738C60.0703 90.2618 97.4413 38.5478 118.062 10.0618ZM22.9223 143.659C44.9163 113.21 68.5683 81.0358 119.587 11.1748ZM22.9223 143.659C59.3753 93.2458 97.3263 42.5348 119.587 11.1748ZM23.8583 145.579C47.7613 112.386 71.6243 79.9398 121.701 11.4798ZM23.8583 145.579C61.2533 94.0498 99.4613 42.3078 121.701 11.4798ZM25.3833 146.692C46.7963 117.248 69.8463 85.7828 123.227 12.5928ZM25.3833 146.692C55.4243 104.973 86.5013 63.6968 123.227 12.5928ZM26.9083 147.805C59.8723 103.816 90.5913 61.4818 124.752 13.7048ZM26.9083 147.805C59.9533 102.547 93.9893 56.9648 124.752 13.7048ZM28.4333 148.918C57.9263 108.732 85.6113 70.0108 126.866 14.0098ZM28.4333 148.918C58.7223 106.251 90.5253 64.2888 126.866 14.0098ZM29.9583 150.03C50.6493 122.084 69.4203 94.1938 128.391 15.1228ZM29.9583 150.03C69.1863 95.8608 108.062 42.6438 128.391 15.1228ZM31.4833 151.143C63.1323 108.136 93.2523 67.3668 129.916 16.2358ZM31.4833 151.143C51.7673 124.65 71.3513 96.8718 129.916 16.2358ZM33.0093 152.256C64.6763 109.189 95.1193 66.7968 132.031 16.5408ZM33.0093 152.256C54.4403 121.891 76.8883 91.9708 132.031 16.5408ZM34.5343 153.369C69.0103 106.732 102.517 59.7918 133.556 17.6538ZM34.5343 153.369C68.3273 107.442 101.308 61.6378 133.556 17.6538ZM36.0593 154.482C72.4583 105.991 107.882 56.5868 135.081 18.7668ZM36.0593 154.482C61.4113 118.078 88.3393 82.1928 135.081 18.7668ZM37.5843 155.594C66.0943 117.695 93.5023 78.2278 136.606 19.8788ZM37.5843 155.594C59.4243 126.979 80.5243 97.0918 136.606 19.8788ZM39.1093 156.707C62.2493 124.328 86.6343 91.3338 138.721 20.1838ZM39.1093 156.707C75.2683 108.127 109.8 59.7788 138.721 20.1838ZM40.0453 158.628C66.5533 122.023 91.8013 86.7238 140.246 21.2968ZM40.0453 158.628C78.1053 107.479 115.573 56.2608 140.246 21.2968ZM41.5703 159.741C71.8423 117.687 104.782 74.4498 141.771 22.4098ZM41.5703 159.741C73.4423 116.98 104.719 73.4258 141.771 22.4098ZM43.0953 160.853C79.4033 111.807 114.751 61.2288 143.886 22.7148ZM43.0953 160.853C64.9043 131.911 86.5503 102.572 143.886 22.7148ZM44.6203 161.966C66.4563 131.907 88.9913 102.228 144.822 24.6348ZM44.6203 161.966C82.0283 109.835 119.801 57.6398 144.822 24.6348ZM46.1453 163.079C86.1083 110.335 125.128 55.3088 146.347 25.7478ZM46.1453 163.079C82.1593 114.293 117.756 65.3758 146.347 25.7478ZM47.6713 164.192C73.4553 128.668 99.7773 92.7588 147.282 27.6688ZM47.6713 164.192C84.9393 113.123 122.149 61.6918 147.282 27.6688ZM49.1963 165.304C75.8583 129.895 101.841 95.1268 148.808 28.7818ZM49.1963 165.304C72.5433 132.623 97.0752 99.8128 148.808 28.7818ZM50.7213 166.417C82.9673 122.135 115.581 77.3698 149.743 30.7018ZM50.7213 166.417C89.8113 112.635 129.468 58.4168 149.743 30.7018ZM52.2463 167.53C89.6213 116.641 126.282 65.5078 151.268 31.8148ZM52.2463 167.53C85.9873 121.844 118.482 75.6298 151.268 31.8148ZM54.3603 167.835C73.9283 139.451 94.5753 112.416 152.204 33.7358ZM54.3603 167.835C78.5203 135.323 101.895 102.879 152.204 33.7358ZM55.8863 168.948C83.7653 130.677 111.637 92.8918 153.729 34.8488ZM55.8863 168.948C89.6733 122.127 123.84 74.8388 153.729 34.8488ZM58.0003 169.253C91.8803 124.296 124.009 78.1758 155.254 35.9608ZM58.0003 169.253C82.2473 135.653 107.053 101.508 155.254 35.9608ZM60.1153 169.558C91.8843 126.463 121.39 84.0828 156.19 37.8818ZM60.1153 169.558C81.2283 141.046 101.55 113.041 156.19 37.8818ZM62.2293 169.863C99.4123 118.827 137.81 66.5268 157.715 38.9948ZM62.2293 169.863C98.7843 119.667 136.259 68.0278 157.715 38.9948ZM64.3443 170.168C100.885 120.608 137.415 71.3298 158.651 40.9148ZM64.3443 170.168C84.5333 142.815 104.39 114.94 158.651 40.9148ZM65.8693 171.281C85.1893 144.889 105.233 116.012 160.176 42.0278ZM65.8693 171.281C96.2893 131.116 125.435 90.7818 160.176 42.0278ZM67.9843 171.585C90.6433 142.139 111.665 111.518 161.112 43.9488ZM67.9843 171.585C101.133 125.758 135.27 80.3958 161.112 43.9488ZM70.0983 171.89C96.8943 137.072 121.666 100.502 162.637 45.0618ZM70.0983 171.89C100.011 131.182 129.745 90.6678 162.637 45.0618ZM72.2133 172.195C101.582 131.389 130.534 92.0668 163.573 46.9818ZM72.2133 172.195C108.46 123.344 144.361 74.0568 163.573 46.9818ZM73.7383 173.308C101.917 134.866 129.26 96.4708 165.098 48.0948ZM73.7383 173.308C108.514 124.65 143.851 76.8698 165.098 48.0948ZM75.8523 173.613C107.302 130.429 140.016 86.9738 166.033 50.0158ZM75.8523 173.613C110.235 126.606 144.36 80.0698 166.033 50.0158ZM77.9673 173.918C108.035 131.149 138.865 89.1058 166.969 51.9358ZM77.9673 173.918C107.573 133.303 136.697 94.0588 166.969 51.9358ZM80.0813 174.223C107.42 136.854 135.643 97.6278 167.905 53.8568ZM80.0813 174.223C114.823 126.498 149.715 79.8938 167.905 53.8568ZM82.1963 174.528C115.125 129.434 150.145 82.9708 168.251 56.5848ZM82.1963 174.528C116.923 127.706 151.148 81.2368 168.251 56.5848ZM83.7213 175.641C108.945 142.451 132.772 108.652 169.187 58.5058ZM83.7213 175.641C116.242 131.347 148.7 87.0388 169.187 58.5058ZM85.8363 175.946C107.808 147.623 129.14 117.266 169.533 61.2338ZM85.8363 175.946C118.739 131.694 150.551 86.8528 169.533 61.2338ZM87.9503 176.251C110.547 142.815 134.506 111.478 170.469 63.1548ZM87.9503 176.251C117.168 136.105 146.738 97.0918 170.469 63.1548ZM90.6543 175.748C117.463 138.769 145.034 100.251 171.405 65.0758ZM90.6543 175.748C115.92 139.86 141.846 105.257 171.405 65.0758ZM92.7693 176.053C114.768 144.477 137.692 112.695 171.751 67.8038ZM92.7693 176.053C121.75 136.459 151.384 95.9978 171.751 67.8038ZM95.4733 175.55C114.733 149.798 132.274 126.104 172.687 69.7248ZM95.4733 175.55C112.738 152.969 129.25 129.3 172.687 69.7248ZM98.1773 175.047C117.994 146.505 139.023 118.539 173.033 72.4528ZM98.1773 175.047C115.247 151.287 132.919 127.839 173.033 72.4528ZM100.881 174.544C121.15 146.424 142.126 118.06 173.969 74.3738ZM100.881 174.544C123.909 142.501 148.113 109.832 173.969 74.3738ZM103.585 174.041C120.597 152.184 135.1 130.481 174.315 77.1018ZM103.585 174.041C124.21 145.148 145.891 116.609 174.315 77.1018ZM106.289 173.539C120.66 153.217 136.776 130.486 175.251 79.0228ZM106.289 173.539C125.576 147.415 144.545 121.506 175.251 79.0228ZM108.993 173.036C134.19 138.265 159.948 103.445 176.186 80.9428ZM108.993 173.036C132.52 141.51 155.509 108.969 176.186 80.9428ZM111.697 172.533C126.979 152.433 139.971 133.983 176.533 83.6718ZM111.697 172.533C131.247 145.947 150.4 119.458 176.533 83.6718ZM114.401 172.03C128.359 152.384 141.863 133.525 175.7 88.0158ZM114.401 172.03C138.101 139.689 161.289 108.123 175.7 88.0158ZM117.105 171.527C140.552 139.697 162.187 108.668 175.457 91.5518ZM117.105 171.527C138.419 142.414 159.819 112.36 175.457 91.5518ZM119.809 171.024C136.985 145.559 155.227 120.089 174.625 95.8958ZM119.809 171.024C140.833 142.091 161.384 113.522 174.625 95.8958ZM123.102 169.714C136.115 153.649 147.197 135.508 174.381 99.4328ZM123.102 169.714C138.219 149.37 152.284 129.173 174.381 99.4328ZM127.574 166.787C137.769 152.545 148.811 138.812 174.138 102.969ZM127.574 166.787C138.967 150.781 151.277 135.36 174.138 102.969ZM132.636 163.053C143.141 149.044 152.73 135.085 173.306 107.313ZM132.636 163.053C146.728 144.648 159.997 125.543 173.306 107.313ZM137.108 160.127C149.045 142.869 163.085 125.346 173.063 110.849ZM137.108 160.127C146.772 146.416 156.937 132.941 173.063 110.849ZM142.17 156.393C148.031 146.648 156.393 138.5 172.23 115.193ZM142.17 156.393C148.527 146.722 155.252 137.844 172.23 115.193ZM146.642 153.466C156.3 139.166 167.666 126.611 171.987 118.73ZM146.642 153.466C155.665 140.995 164.67 129.017 171.987 118.73Z" stroke="#494CFE" stroke-width="1.259" stroke-linecap="round"/>
<path d="M74.0433 4.71783C84.9563 1.46383 99.5963 3.31983 111 6.24983C122.404 9.17983 133.358 15.1418 142.467 22.2978C151.576 29.4528 160.043 38.9628 165.653 49.1838C171.263 59.4038 175.14 72.0448 176.127 83.6178C177.115 95.1908 175.679 107.714 171.578 118.622C167.478 129.53 159.737 140.566 151.524 149.065C143.31 157.564 133.159 165.208 122.298 169.616C111.437 174.025 98.2033 175.967 86.3563 175.518C74.5093 175.069 61.7483 172.057 51.2143 166.924C40.6803 161.791 30.5753 153.594 23.1523 144.719C15.7283 135.843 9.92126 124.841 6.67226 113.671C3.42226 102.5 2.08926 89.2828 3.65526 77.6958C5.22226 66.1078 9.77126 54.0678 16.0713 44.1448C22.3703 34.2208 31.4953 24.7658 41.4553 18.1528C51.4143 11.5398 69.6323 6.55383 75.8263 4.46583C82.0193 2.37683 78.3543 4.20083 78.6153 5.62283" stroke="black" stroke-width="5" stroke-linecap="round"/>
</svg>
