<svg width="161" height="156" viewBox="0 0 161 156" fill="none" xmlns="http://www.w3.org/2000/svg">
<path d="M2.63801 6.028C3.67701 4.85 4.35101 4.083 5.10001 3.039M2.81701 6.222C3.51201 5.147 4.40001 4.244 5.10201 2.936M2.84301 8.663C4.30501 6.921 6.19701 4.488 7.11201 3.389M3.17801 8.965C4.17701 7.127 5.64301 5.251 7.30301 3.164M2.72701 12.496C5.33801 9.002 7.12901 6.927 8.82601 3.791M2.72201 12.517C4.53301 9.641 6.40701 7.365 8.86401 3.401M2.46201 15.382C5.17701 12.479 7.08701 8.049 11.042 3.082M3.04801 15.229C5.69501 11.346 8.04501 7.347 11.16 3.815M3.24601 16.751C6.74201 13.068 8.91901 8.059 12.823 3.034M3.09901 17.464C5.91301 13.248 9.54701 8.672 13.337 3.169M2.98001 20.151C6.87701 15.144 12.203 8.158 15.126 2.923M2.82101 20.747C5.29801 17.218 8.78001 13.614 15.675 3.192M2.28101 24.282C6.13501 18.944 10.041 13.137 18.361 2.605M3.49501 24.043C8.05401 16.491 13.135 9.518 18.073 3.193M2.53601 26.169C7.57801 21.055 10.34 15.263 19.867 4.247M2.26401 27.029C8.59901 18.897 14.262 10.563 20.026 3.369M3.65701 29.151C8.61201 22.147 12.325 16.333 21.267 2.897M2.55701 29.282C8.47501 21.748 14.02 14.387 21.839 3.209M3.17301 31.386C11.751 21.968 19.562 10.374 23.663 2.877M3.13301 32.107C9.21601 24.287 15.366 15.395 23.799 3.045M2.32701 35.149C10.552 25.079 19.764 12.689 25.397 2.436M3.06101 35.322C7.98101 28.73 13.038 21.548 26.037 3.509M2.82301 38.636C10.375 27.887 17.617 18.658 28.67 2.857M2.54601 38.784C11.979 24.844 21.92 12.564 27.655 3.57M2.21301 41.062C10.627 29.821 19.763 16.336 31.008 2.35M2.44101 41.706C9.20301 32.603 16.276 23.546 30.575 2.732M3.59101 43.59C8.33401 35.713 14.428 27.243 33.369 2.315M3.16301 44.55C13.008 29.709 23.851 15.135 32.826 3.312M4.03501 47.363C10.844 36.592 17.978 27.788 33.942 2.887M3.00001 46.863C13.234 33.323 23.023 19.5 34.13 2.835M2.30901 51.071C14.25 36.859 22.877 20.976 36.658 3.895M2.91101 50.574C10.283 40.822 17.582 30.1 36.644 3.446M3.05501 53.03C10.701 41.227 20.833 28.933 38.496 3.325M2.86701 53.459C14.734 36.948 26.34 20.5 38.679 2.394M2.41201 56.142C16.272 36.107 30.058 17.594 40.592 3.332M3.08001 55.889C13.016 41.804 23.309 27.332 40.687 2.58M2.15601 59.674C12.291 46.861 20.647 34.661 42.292 3.875M2.64101 58.898C12.135 46.607 21.752 33.606 43.372 3.389M4.07201 62.355C15.95 46.512 26.437 29.666 45.175 2.384M3.45601 62.053C17.158 42.017 32.082 21.468 45.188 3.338M3.22601 64.675C16.87 45.174 33.255 23.727 48.014 3.237M2.44601 65.252C19.471 42.613 35.537 19.526 47.26 3.744M3.40201 67.996C21.021 43.588 37.423 19.03 49.428 3.209M2.46701 67.592C13.541 52.471 25.074 37.331 50.004 2.681M2.63901 70.938C15.756 52.779 26.661 36.4 51.812 3.636M3.65901 70.664C20.71 46.546 38.457 22.308 52.11 2.722M3.29901 74.011C22.565 45.598 42.201 18.753 53.037 3.98M2.78601 74.355C21.056 48.808 38.722 24.178 53.97 3.283M3.49701 76.458C19.862 52.264 38.472 27.87 54.627 3.301M3.04701 76.645C22.661 49.108 42.425 21.357 55.277 3.542M3.66401 79.264C22.966 53.277 41.529 26.778 58.406 2.293M2.67601 80.377C18.212 57.747 34.638 36.267 58.596 3.181M2.16901 82.474C22.17 54.963 42.839 28.157 60.566 2.178M2.66101 82.267C22.295 56.369 41.345 28.749 60.175 3.441M3.20701 84.439C15.15 69.742 26.775 52.776 62.565 3.857M3.18401 84.88C21.919 59.676 40.415 33.148 62.518 3.326M2.70001 89.515C20.356 63.825 37.242 40.293 64.5 4.371M3.07701 88.332C21.716 61.668 41.71 34.587 63.758 3.869M2.41101 90.321C22.305 66.162 40.336 39.879 66.718 2.614M3.51401 91.205C24.878 60.438 47.748 29.349 66.646 2.797M2.10101 95.59C16.098 75.128 30.127 55.899 69.383 3.733M3.05401 94.467C28.014 59.784 53.395 24.012 68.9 3.328M2.10101 96.966C24.088 67.48 46.235 37.99 70.768 2.704M2.62401 97.18C22.128 70.405 41.505 43.482 70.901 3.481M3.96501 100.04C30.247 61.634 57.582 22.086 72.052 2.593M2.83701 99.871C30.362 62.497 57.572 24.235 72.491 3.27M2.66901 103.798C25.34 74.079 46.045 42.085 74.245 2.539M3.08601 103.761C31.83 63.443 59.917 23.058 74.684 2.518M2.87601 106.092C32.283 65.87 60.229 27.061 78.032 2.026M3.11301 106C30.78 66.931 58.402 28.091 77.053 2.682M3.54101 109.159C30.178 72.461 55.064 34.916 79.53 3.711M2.93001 108.706C23.455 79.58 44.477 50.389 79.56 3.53M3.17901 113.009C30.709 72.749 58.895 33.631 81.671 3.717M2.39801 111.754C29.225 74.822 56.1 37.963 80.883 2.962M2.75701 113.915C32.092 75.086 59.46 36.1 82.553 3.278M2.96101 114.564C20.041 91.176 36.651 67.907 82.819 3.413M3.17601 117.302C23.241 87.996 45.184 58.941 85.072 3.42M3.13601 118.233C28.375 82.155 54.228 46.665 85.862 3.221M2.45101 120.436C29.82 83.004 57.143 46.02 87.471 3.084M2.71801 121.18C21.345 96.558 39.12 71.356 87.242 3.526M3.10301 123.949C30.511 85.3 56.665 47.984 90.193 2.936M2.72901 123.574C27.536 90.455 51.765 57.088 89.817 3.612M3.43801 125.975C29.426 91.216 54.467 55.686 92.238 3.948M3.14501 127.125C25.688 95.026 47.717 64.06 91.242 3.207M3.62701 129.793C33.274 88.88 63.11 47.291 93.455 2.727M2.68201 129.196C26.372 97.055 49.382 64.74 94.3 3.026M3.31101 132.266C29.172 95.789 55.525 58.674 96.371 2.999M2.67701 132.466C35.189 86.877 67.882 41.608 95.881 2.746M2.43401 134.757C40.534 84.682 76.18 32.891 98.299 2.807M2.69801 136.026C34.994 90.768 67.993 45.56 97.66 3.25M3.48401 138.738C30.713 100.519 56.945 63.549 99.425 2.603M3.08801 137.88C22.911 111.857 41.736 84.379 99.963 3.184M3.52801 142.179C24.776 111.211 47.591 79.149 102.385 2.727M2.92001 141.165C24.072 111.6 45.746 82.51 102.478 3.197M2.83001 144.022C23.315 114.022 46.098 85.19 105.103 2.49M3.16101 144.34C29.169 107.126 56.468 70.83 104.936 2.516M2.01401 147.854C24.872 118.056 45.655 87.831 107.087 3.078M2.82601 147.45C42.834 91.93 83.342 36.13 106.547 3.282M3.12701 151.145C34.6 107.391 65.47 62.556 107.911 3.605M3.13701 150.774C24.687 119.925 46.35 89.269 108.156 3.827M2.57601 152.852C33.964 110.597 65.419 68.977 111.146 2.788M3.53401 152.508C32.81 112.525 62.01 72.569 110.304 3.914M5.89201 153.095C41.797 102.036 78.131 50.218 113.981 2.483M4.89001 152.93C27.908 122.02 49.993 90.04 113.482 2.967M6.37201 153.894C32.878 118.917 57.103 82.708 115.763 2.949M6.80601 153.714C44.162 102.029 80.219 50.959 115.075 3.598M9.66901 153.563C39.56 111.736 68.327 71.372 117.161 3.612M9.25901 153.121C38.46 112.73 67.693 72.733 117.037 3.121M11.916 152.587C41.217 113.055 69.668 73.177 119.321 2.708M11.477 153.033C37.874 115.664 64.054 78.832 119.261 3.201M12.882 153.412C47.522 105.955 80.331 61.469 121.657 2.888M13.217 152.724C51.181 101.227 88.089 49.517 121.533 2.419M14.895 154.049C43.384 113.977 73.797 72.589 122.998 3.995M15.557 153.015C52.684 100.374 90.474 47.661 123.729 3.372M17.517 154.109C40.707 120.978 64.143 87.69 125.042 4.071M17.411 153.649C57.48 97.856 97.171 42.759 125.442 3.107M20.677 152.407C62.442 93.77 105.942 34.31 127.597 4.406M20.099 152.65C46.074 116.225 73.422 79.052 127.822 3.077M21.336 153.033C64.225 94.606 104.286 38.985 129.897 3.094M21.76 153.071C57.078 104.844 90.818 57.724 130.018 3.22M24.521 153.209C50.814 117.815 75.516 82.609 132.964 2.676M24.09 153.581C57.881 106.29 91.676 59.624 132.429 2.859M26.844 152.533C62.05 104.463 97.413 55.99 133.027 3.574M26.267 153.453C57.429 108.978 89.95 65.443 133.997 3.113M28.613 153.199C55.455 117.245 80.199 79.371 135.547 3.115M28.935 152.702C63.34 103.971 98.733 54.179 135.586 3.812M30.146 153.182C62.504 108.484 94.861 63.854 138.087 2.658M30.341 153.269C65.407 105.909 99.88 57.814 138.562 3.223M32.266 153.781C57.236 119.56 82.858 84.666 141.258 2M32.351 153.004C56.79 119.512 80.891 85.225 140.99 2.766M34.906 153.73C68.157 107.989 99.517 62.278 143.019 2.635M34.05 153.134C63.043 112.809 92.619 72.569 142.115 3.65M37.095 153.979C70.024 107.404 101.63 60.048 144.138 2.614M36.089 153.253C62.153 118.793 87.751 83.21 144.825 3.534M38.642 152.683C81.067 95.982 122.628 38.646 146.152 3.826M39.508 152.598C78.109 99.23 115.503 46.694 146.41 3.882M40.378 153.937C66.882 116.657 92.817 79.9 148.739 2.731M41.483 153.22C69.321 114.304 97.545 74.183 149.323 3.006M43.476 153.543C66.019 120.647 90.747 87.126 150.737 3.298M42.821 153.613C79.927 102.375 116.12 50.699 150.688 3.261M45.302 154.034C74.624 110.963 104.359 69.799 153.178 4.159M44.775 153.265C78.363 106.025 113.058 59.238 152.957 2.823M47.278 152.987C87.436 96.682 127.436 41.135 155.273 4.058M47.371 152.623C85.025 100.996 121.882 49.572 154.545 3.416M49.69 152.606C76.291 116.71 100.764 80.227 157.131 2.182M49.069 152.965C90.547 95.627 132.803 37.322 157.883 2.617M51.574 153.218C84.839 108.505 116.213 61.176 159.451 3.987M51.322 153.431C84.677 107.788 117.627 61.607 158.921 4.077M53.292 154.244C87.675 106.728 121.344 58.658 160.051 6.741M53.839 153.075C82.171 112.879 111.954 72.418 159.549 6.355M56.366 152.156C79.873 119.106 102.972 86.343 158.233 10.289M55.753 153.328C93.547 101.536 129.478 50.384 158.387 10.385M58.518 153.136C93.512 103.45 129.158 55.117 159.255 13.017M58.207 152.993C94.739 102.182 131.646 51.677 159.493 12.123M59.771 152.548C94.216 107.727 126.426 61.78 158.999 16.71M59.886 153.455C83.989 120.138 107.902 87.122 158.565 16.203M61.093 153.187C99.632 102.623 135.459 50.545 158.235 19.522M61.951 153.142C93.1 110.25 124.787 65.582 159.206 18.861M64.86 152.168C91.036 116.352 118.53 77.876 158.194 21.922M64.499 153.081C93.739 112.504 122.469 72.071 158.714 21.666M66.949 153.234C93.064 115.437 119.882 77.769 157.952 24.368M67.041 152.804C103.311 101.212 140.39 50.058 158.467 24.609M69.037 153.699C92.121 123.003 112.92 91.81 159.602 26.952M68.865 152.829C89.645 123.758 110.179 95.467 158.683 27.034M71.145 152.524C89.248 127.14 106.878 100.472 158.209 31.373M70.686 152.942C93.695 119.704 117.685 86.392 158.188 30.834M73.004 153.515C103.195 109.557 135.755 66.49 159.003 33.958M72.161 153.344C102.828 109.592 134.832 66.623 158.699 33.319M75.462 153.194C108.372 107.225 142.731 59.809 159.975 36.891M74.557 152.592C97.656 121.409 119.592 89.792 158.742 36.467M77.856 153.098C106.752 109.39 138.593 68.58 158.745 39.99M77.162 152.774C104.042 115.456 132.038 77.151 158.241 39.587M79.471 154.058C98.429 126.827 118.688 98.035 158.073 41.84M78.859 152.821C95.361 129.881 111.958 106.468 159.414 42.256M81.03 153.241C104.104 120.453 128.908 87.364 159.127 44.125M80.572 153.917C104.656 121.393 127.352 88.311 158.884 45.097M82.637 153.674C112.367 112.548 141.407 72.344 157.912 47.396M83.6 153.109C109.625 116.958 135.185 81.538 158.395 47.716M85.034 152.265C110.928 118.69 135.477 84.731 159.921 51.523M85.946 153.228C105.964 125.369 125.605 98.045 159.264 50.86M87.624 152.978C105.415 129.513 121.354 106.505 158.288 54.196M87.429 153.489C112.502 118.795 136.878 84.559 158.439 54.625M90.064 152.731C112.824 121.552 135.55 88.585 159.129 56.031M89.684 153.435C106.823 130.442 123.671 106.888 159.191 56.75M91.159 153.389C113.823 123.845 135.548 94.178 159.444 60.154M91.831 153.222C109.429 129.358 125.933 105.119 158.719 59.705M93.148 152.341C119.546 117.326 144.904 83.853 158.123 63.092M94.442 152.786C111.931 129.136 129.406 104.293 158.962 63.328M96.965 154.072C121.455 118.303 146.638 82.83 158.036 64.627M96.449 153.081C116.129 125.861 135.122 98.055 158.687 65.957M97.663 154.375C112.566 132.141 127.611 111.663 158.175 69.907M98.008 153.241C115.282 129.414 132.581 104.899 159.018 68.635M101.458 153.764C118.692 127.558 138.428 100.67 158.536 71.077M100.664 153.271C112.479 136.396 124.265 120.049 158.841 71.482M102.43 153.937C118.419 132.492 132.366 111.365 159.466 74.877M102.572 153.04C113.514 137.106 125.362 121.226 159.573 74.399M104.491 152.216C118.746 134.334 132.703 113.604 159.131 77.956M104.796 152.819C118.501 133.082 134.01 112.718 158.971 78.019M106.758 153.429C123.69 129.775 141.793 104.571 158.42 80.44M106.47 153.484C126.419 124.821 146.627 96.787 159.223 80.381M109.271 153.913C125.683 129.779 143.264 104.762 158.829 84.427M108.537 153.87C121.007 136.33 132.962 118.787 159.112 83.533M110.85 153.297C120.736 139.411 130.802 124.635 158.517 87.296M111.014 153.38C121.802 138.892 131.916 124.076 158.804 85.847M113.286 153.278C125.138 137.491 138.255 119.012 159.402 88.992M112.653 152.83C124.098 138.194 134.731 122.783 159.241 89.032M114.066 152.408C126.541 136.752 138.006 119.593 159.42 92.845M115.24 152.813C126.612 137.104 137.563 121.996 158.431 92.04M116.013 152.718C132.453 132.612 145.284 112.575 159.582 94.154M117.092 153.069C130.799 133.858 144.826 114.424 158.729 95.139M120.049 152.981C133.84 133.787 146.808 115.555 159.634 98.41M119.923 152.474C134.187 131.967 148.973 110.761 159.104 97.37M121.902 153.572C131.843 138.933 140.901 124.988 158.769 100.263M121.057 152.707C133.434 137.011 144.747 120.631 159.266 100.857M123.898 153.121C133.972 138.826 144.093 124.324 158.423 102.922M123.41 152.779C133.67 139.292 143.062 126.097 159.171 104.012M125.813 152.514C137.244 137.078 149.311 119.675 158.338 107.654M125.656 153.385C132.966 142.681 141.097 132.197 158.767 107.169M127.853 152.132C138.023 138.744 148.689 124.281 158.675 109.048M127.943 152.462C137.94 138.133 148.175 123.94 159.09 110.143M129.529 152.998C140.583 139.321 149.877 125.524 159.421 111.688M130.02 152.802C136.864 143.596 143.327 135.012 159.358 112.692M131.097 154.103C141.331 138.837 152.789 124.731 159.59 115.563M131.846 153.13C139.008 143.543 145.014 134.426 159.175 115.791M133.558 153.943C139.281 146.177 145.026 139.183 159.216 118.206M134.046 153.836C143.685 140.917 152.645 127.923 159.497 118.774M136.856 153.443C142.564 146.107 146.845 138.368 159.21 122.497M136.83 153.14C141.371 144.887 147.268 137.723 159.081 122.141M138.552 153.762C145.295 144.566 151.864 136.479 159.169 124.48M138.445 152.642C146.33 142.043 153.369 131.684 159.257 124.179M140.602 153.733C144.351 147.429 149.857 141.7 160.076 126.717M140.95 153.077C146.486 144.806 152.661 136.418 158.849 127.171M143.213 153.306C148.097 144.822 155.299 136.536 158.617 131.301M142.847 152.903C146.109 147.537 150.968 142.476 158.37 130.313M145.016 153.443C148.089 148.43 150.35 144.134 159.717 133.178M144.436 153.12C148.591 147.517 153.329 140.989 158.542 133.401M147.251 153.63C151.545 146.616 155.509 140.688 157.731 137.19M147.467 153.158C150.029 148.371 153.381 143.519 158.928 136.531M148.148 153.621C152.069 147.361 156.776 141.946 158.539 138.479M148.669 153.403C152.056 148.992 155.144 144.478 158.6 139.125M150.69 152.905C152.178 150.93 153.739 148.758 158.842 141.327M151.266 153.258C154.047 149.101 156.752 145.373 158.863 142.143M152.677 153.201C154.86 150.487 157.395 147.393 158.629 145.428M153.151 153.638C154.569 150.847 156.213 148.44 159.002 145.604M155.474 152.807C156.386 152.022 156.93 150.425 159.085 147.699M155.592 152.797C156.449 151.418 157.559 150.006 159.049 148.073M157.604 152.955C157.902 152.389 158.477 151.912 159.229 150.536M157.425 152.983C157.935 152.432 158.42 151.676 159.225 150.616" stroke="#CE0B0B" stroke-width="1.096" stroke-linecap="round"/>
<path d="M2.438 2.421C36.364 2.491 69.195 3.185 157.305 3.57M157.21 3.937C156.794 41.612 156.982 78.919 158.247 152.375M157.99 152.207C106.386 151.836 54.589 152.359 2 153.095M2.527 152.771C3.845 117.798 3.645 81.908 3.926 4.062" stroke="black" stroke-width="4" stroke-linecap="round"/>
</svg>
