<svg width="174" height="151" viewBox="0 0 174 151" fill="none" xmlns="http://www.w3.org/2000/svg">
<path d="M83.368 9.77299C84.101 8.195 85.402 7.26799 87.573 4.52299M83.008 9.53199C84.842 8.04599 86.528 6.132 87.826 4.711M78.73 17.278C82.24 12.238 85.831 8.77999 88.149 6.94499M78.643 16.812C81.097 14.305 82.902 12.263 88.291 6.753M76.079 22.932C79.929 18.865 83.346 15.218 89.741 8.064M75.019 23.32C79.282 19.064 82.456 14.733 89.344 7.52699M72.158 29.149C78.453 23.093 84.737 16.357 90.723 10.241M71.281 29.283C75.924 24.922 79.749 21.381 90.036 9.411M66.532 36.305C73.497 29.86 80.042 22.488 91.599 10.915M67.502 36.29C73.565 29.717 79.951 23.012 91.362 10.191M63.035 42.796C73.907 32.366 83.424 21.26 92.07 11.775M63.613 42.599C74.224 31.731 85.241 19.886 91.489 12.508M59.399 48.699C71.361 38.244 81.642 25.891 93.917 14.247M59.288 49.874C67.22 40.995 75.598 32.67 92.73 13.192M56.888 55.077C68.128 44.421 78.615 31.252 93.941 14.621M56.615 55.759C68.994 41.995 81.317 29.152 94.077 15.91M52.002 61.144C65.308 49.778 76.333 36.266 95.366 17.317M53.005 61.512C64.049 49.088 76.4 36.675 95.29 16.38M49.212 69.846C65.54 51.56 82.473 33.904 96.455 18.446M48.725 69.349C60.68 56.178 72.744 42.718 95.638 18.569M45.02 76.131C63.334 54.393 82.176 34.921 97.127 19.994M44.974 75.048C64.357 54.877 83.839 33.948 96.295 19.301M40.312 82.116C55.963 65.754 70.516 50.563 96.65 21.496M40.878 82.464C56.218 65.875 72.808 48.228 96.839 21.179M37.35 89.306C50.854 74.482 64.21 58.401 99.17 22.387M37.273 88.501C55.284 69.206 73.512 49.617 98.984 22.5M33.348 94.28C49.822 77.506 66.556 59.003 98.463 23.74M33.759 95.056C51.788 75.808 69.629 56.403 99.328 24.679M28.679 102.423C44.288 86.078 59.724 68.602 99.689 24.858M28.924 102.122C46.119 82.922 64.084 65.244 100.502 25.813M25.149 107.364C50.72 82.329 74.727 54.717 100.071 27.647M26.022 108.417C54.024 77.988 82.359 46.814 101.199 27.981M21.376 114.941C52.768 80.362 86.444 46.694 102.67 28.389M21.846 114.776C51.232 82.701 81.329 50.844 101.73 28.515M17.71 121.38C36.032 102.988 52.785 82.887 102.701 30.643M17.713 120.924C43.598 93.064 70.093 64.861 102.572 30.759M15.419 127.382C36.953 104.275 57.61 80.153 103.869 31.307M14.383 127.303C43.859 96.453 73.155 64.482 103.865 32.174M9.63999 134.636C33.303 110.527 55.153 85.667 104.928 33.253M9.90899 134.579C30.222 113.105 50.352 90.697 104.744 33.61M7.17599 140.929C29.786 117.413 52.194 93.078 106.416 34.05M6.32599 140.326C34.093 111.42 61.312 81.167 105.519 34.854M3.27499 147.358C29.351 118.873 54.037 92.066 105.23 35.94M3.53199 146.984C29.112 119.01 55.478 91.273 106.284 37.075M5.12099 147.772C26.17 125.696 47.964 101.442 108.132 37.903M5.22899 147.589C38.47 111.056 72.96 75.554 107.605 38.051M7.84799 147.996C37.436 116.592 66.523 84.328 107.164 39.281M7.29199 147.097C41.268 110.221 74.989 74.648 107.955 40.012M8.52099 147.14C46.816 106.792 84.902 66.351 108.366 41.773M9.80799 147.441C32.259 123.989 54.274 99.519 108.72 40.667M12.63 146.885C50.665 104.794 89.999 63.785 109.864 41.972M11.86 147.136C50.905 106.231 88.936 64.978 109.611 42.594M13.83 146.982C37.599 123.173 59.867 97.844 111.615 43.144M13.952 147.482C49.877 109.737 85.854 71.754 110.965 43.642M16.981 146.73C49.972 111.217 83.96 75.512 112.196 45.668M16.376 147.418C49.046 112.397 82.112 76.683 111.017 45.485M18.669 146.476C53.491 109.709 90.197 71.378 112.792 47.674M19.167 147.108C41.085 123.387 63.175 99.614 112.453 47.542M20.417 148.075C47.374 119.59 73.346 90.18 114.225 49.651M20.673 147.377C58.505 108.204 95.361 68.89 113.645 48.53M24.192 147.224C43.718 125.25 63.945 105.287 114.434 50.192M24.047 147.533C47.583 122.024 71.938 96.462 113.331 50.895M25.193 146.621C55.533 115.804 83.926 84.226 115.844 51.931M25.797 147.376C57.402 114.146 88.786 80.142 114.999 51.374M27.423 148.25C54.703 117.071 81.685 88.212 115.127 53.008M27.776 147.391C61.59 111.178 95.321 75.694 115.535 54.098M30.045 148.24C62.663 112.628 96.412 76.823 117.704 55.753M30.101 147.632C62.147 113.311 92.874 80.156 116.706 55.09M32.844 147.32C52.8 126.268 72.24 106.186 117.359 56.413M33.145 147.37C55.573 122.933 77.913 97.704 117.816 56.906M34.404 146.069C65.504 112.653 97.61 80.082 117.687 57.876M35.172 147.278C66.84 113.447 98.332 79.549 118.959 58.375M36.928 147.684C63.831 118.386 92.17 87.478 119.159 60.488M36.86 147.87C54.63 129.002 73.066 109.26 119.278 59.992M40.097 146.446C60.9 124.3 81.431 102.513 121.02 60.779M40.011 147.659C67.942 116.355 97.705 85.211 120.048 60.614M42.691 147.907C58.975 129.101 77.533 111.102 121.562 63.746M42.23 147.122C61.538 126.918 80.562 106.129 120.874 62.374M43.714 147.358C63.677 126.9 81.325 107.576 122.058 64.901M44.287 147.423C70.708 120.13 96.912 91.553 122.504 64.442M46.992 147.199C61.787 130.53 77.586 114.927 121.969 66.639M46.196 148.032C74.071 117.905 101.411 88.242 122.858 66.08M48.342 148.295C73.974 119.996 100.523 92.323 123.075 66.797M49.28 147.776C74.204 119.988 99.836 92.179 124.268 67.435M51.264 147.301C77.996 117.079 105.431 88.094 125.257 69.806M51.342 147.145C77.719 118.492 104.38 90.828 124.384 68.482M53.447 147.511C77.324 122.467 98.64 97.678 126.389 69.084M52.935 147.622C73.607 125.946 93.715 104.609 125.604 69.885M56.356 146.202C73.243 130.151 88.232 112.055 126.458 71.068M55.857 147.385C72.905 128.615 90.118 110.15 125.795 71.931M57.292 147.397C84.149 118.932 110.337 92.578 127.922 74M57.994 148.006C74.565 128.934 92.143 110.972 127.872 72.772M61.065 146.29C88.304 118.997 114.157 90.512 127.391 74.392M60.893 147.458C86.345 119.569 112.279 92.603 128.385 75.104M63.063 147.676C78.566 131.069 93.093 114.846 129.168 75.524M62.507 148.118C76.102 132.473 90.179 118.197 128.867 76.005M65.569 148.197C87.326 124.128 107.701 100.11 130.3 77.558M64.572 147.279C81.964 129.413 98.363 111.567 130.033 77.871M67.976 147.402C81.258 132.4 93.816 118.52 131.049 78.435M67.787 147.51C87.898 124.468 109.335 102.666 131.335 79.289M69.375 146.651C94.433 120.712 118.793 95.562 132.226 81.376M69.1 147.21C83.278 132.891 96.698 118.979 131.307 81.087M72.984 147.812C87.001 130.905 100.953 115.898 133.738 82.628M72.257 147.394C94.069 123.197 116.333 99.502 132.586 82.084M72.997 148.448C87.227 134.995 99.311 120.865 133.351 84.651M73.628 147.314C87.188 133.815 100.603 118.897 133.554 83.922M76.81 146.773C93.299 129.035 111.901 109.549 134.056 86.067M76.952 147.663C97.188 125.797 118.274 103.37 134.929 85.498M77.884 148.557C91.402 132.843 106.328 118.88 135.233 86.512M78.561 148.136C90.907 134.797 101.993 122.714 134.903 87.423M81.117 146.441C101.016 124.879 121.707 103.565 135.832 88.146M81.189 147.189C96.707 130.314 113.248 113.207 136.125 87.929M82.74 146.23C99.045 131.241 113.491 113.409 137.2 89.724M83.683 147.072C99.044 131.169 114.286 114.56 136.927 90.049M85.086 146.539C98.57 134.586 110.827 119.951 138.753 91.001M85.935 147.437C102.276 129.272 119.561 111.775 137.876 91.094M88.877 146.31C104.28 131.244 118.909 114.678 139.541 93.991M87.916 146.919C107.071 126.357 126.805 106.602 138.783 92.626M90.879 147.596C105.151 130.427 121.761 114.287 139.561 94.7M90.429 147.474C105.74 130.041 121.79 112.736 139.851 94.689M92.2 146.761C109.043 131.101 123.828 114.647 141.187 96.603M92.679 147.58C108.265 131.096 123.561 114.514 140.475 96.509M95.184 147.123C109.521 130.529 125.059 114.633 141.435 98.128M94.247 147.855C109.858 131.645 125.746 114.248 141.203 97.472M97.074 147.43C109.189 134.352 122.645 120.854 141.741 99.14M97.14 147.251C109.142 134.463 121.208 121.961 142.091 99.638M98.922 146.329C109.495 137.564 117.226 128.699 143.123 100.203M99.313 146.79C110.721 136.014 121.356 123.973 143.095 100.747M100.934 147.78C112.26 136.535 123.825 124.232 144.334 101.665M101.501 147.722C117.694 129.978 134.068 112.441 144.431 102.158M104.631 147.346C117.026 132.087 131.831 118.189 145.662 103.659M104.754 147.107C116.672 133.484 128.887 120.42 145.274 103.402M106.729 146.619C116.842 137.474 127.143 125.347 145.245 105.029M106.104 147.874C120.734 131.857 135.593 116.254 145.642 104.882M108.969 146.667C117.282 137.874 128.118 127.178 147.569 106.694M108.707 147.543C120.657 134.403 133.037 121.808 146.648 106.778M111.37 147.132C122.334 136.079 133.156 121.958 146.972 108.025M110.243 147.705C120.768 136.869 130.925 125.831 147.824 108.507M112.608 147.399C124.401 136.266 133.738 124.377 149.293 109.769M112.891 146.991C124.117 136.012 134.698 124.005 148.876 109.299M115.725 147.091C126.071 137.134 133.598 127.89 149.529 110.572M115.498 147.46C127.194 134.979 138.148 122.714 149.213 111.187M116.936 148.191C127.427 137.887 136.272 127.414 150.062 112.289M117.454 147.102C126.694 137.558 136.09 127.385 150.56 112.191M119.77 148.028C133.287 133.288 145.374 121.501 150.163 114.222M120.68 147.195C129.047 137.125 138.348 127.786 151.46 114.213M121.557 146.995C132.871 134.698 144.703 122.74 151.404 115.811M122.315 147.198C134.131 135.142 144.783 122.62 152.025 115.877M125.63 146.368C130.941 140.476 139.102 131.905 152.721 117.226M125.222 147.26C133.706 136.949 143.826 127.58 153.342 117.666M126.518 147.951C135.08 139.384 142.374 130.483 154.361 119.008M126.729 147.643C135.667 137.97 145.256 128.393 154.341 118.208M128.65 146.517C138.694 136.918 149.765 125.175 155.521 121.094M129.482 147.266C138.462 137.554 147.146 128.353 155.13 120.186M131.733 146.151C140.412 138.152 149.477 128.197 155.262 122.236M131.747 147.03C138.675 139.787 145.336 132.088 155.515 121M133.72 146.683C141.41 139.855 146.522 133.636 157.031 123.212M133.441 147.611C140.703 139.876 148.145 132.233 156.685 123.236M136.927 146.869C141.075 141.084 147.55 136.118 158.037 124.172M136.458 146.87C141.071 142.067 145.615 137.241 157.373 124.364M138.019 147.399C143.833 142.114 150.658 134.776 157.366 126.599M138.758 148.034C143.225 141.87 148.883 136.551 158.381 126.374M141.387 147.947C147.348 142.046 152.02 136.678 159.419 127.966M140.655 147.294C145.434 142.264 149.899 138.222 159.744 127.155M143.614 148.678C148.511 140.908 154.715 134.295 159.309 129.86M143.24 148.01C146.625 143.961 150.467 139.321 160.237 129.324M146.016 146.72C149.838 141.424 156.028 137.182 161.712 129.879M145.306 146.943C150.386 143.079 154.543 137.808 161.451 130.874M147.757 147.176C153.496 142.44 157.707 137.265 161.773 132.092M147.89 147.097C153.131 141.331 157.935 135.794 162.061 132.743M149.226 147.614C153.816 144.423 157.939 140.098 162.232 133.81M149.602 147.423C153.117 144.488 156.467 140.706 162.578 133.481M151.835 147.867C155.345 142.994 159.485 139.265 162.789 134.712M152.689 147.46C155.695 143.916 158.413 140.636 163.399 135.485M155.038 147.751C157.969 144.258 161.208 139.55 164.79 136.121M154.269 147.743C157.253 145.127 159.555 141.911 164.771 136.454M157.699 147.383C159.033 144.506 161.658 142 165.242 138.064M157.242 147.398C159.559 144.134 162.467 141.437 165.216 138.316M159.473 147.909C161.234 145.607 162.344 144.344 166.701 139.528M158.85 147.926C162.039 144.698 164.73 141.826 166.429 139.589M161.935 147.021C163.292 145.739 164.855 143.806 166.939 141.291M161.488 147.478C163.786 145.335 165.605 143.267 166.99 141.44M163.959 146.796C165.334 146.309 166.12 145.358 168.21 142.541M164.1 147.189C165.858 145.579 167.398 143.729 168.336 142.533M166.076 147.654C166.871 146.67 168.071 145.434 168.88 144.647M166.078 147.562C167.204 146.493 168.048 145.45 168.941 144.487M168.775 147.25C169.135 146.769 169.404 146.536 170.133 145.685M168.748 147.133C169.149 146.712 169.636 146.237 170.107 145.684" stroke="#45CF4C" stroke-width="0.905" stroke-linecap="round"/>
<path d="M3.738 146.702C33.899 93.177 66.493 38.92 86.9 3M87.628 3.373C114.264 47.645 140.65 93.331 170.969 148.356M169.906 147.203C106.849 148.079 40.727 147.452 3 146.837" stroke="black" stroke-width="5" stroke-linecap="round"/>
</svg>
