<svg width="111" height="124" viewBox="0 0 111 124" fill="none" xmlns="http://www.w3.org/2000/svg">
<mask id="path-1-outside-1_1_17" maskUnits="userSpaceOnUse" x="-3" y="-4" width="117" height="131" fill="black">
<rect fill="white" x="-3" y="-4" width="117" height="131"/>
<path d="M53.7422 80.0547C50.3568 82.7891 47.1667 86.5 44.1719 91.1875C41.3073 95.875 38.3125 100.432 35.1875 104.859C32.1927 109.286 29.0026 113.128 25.6172 116.383C22.2318 119.638 18.5208 121.266 14.4844 121.266C10.5781 121.266 7.84375 120.745 6.28125 119.703C4.71875 118.531 3.9375 117.099 3.9375 115.406C3.9375 113.583 4.0026 112.151 4.13281 111.109L41.2422 67.1641C34.4714 58.8307 28.7422 51.7344 24.0547 45.875C19.4974 40.0156 15.7214 35.1979 12.7266 31.4219C9.73177 27.6458 7.38802 24.7161 5.69531 22.6328C4.13281 20.4193 2.96094 18.8568 2.17969 17.9453C1.52865 16.9036 1.07292 16.1224 0.8125 15.6016C0.8125 12.9974 2.57031 11.1745 6.08594 10.1328C9.08073 9.22135 11.6849 9.35156 13.8984 10.5234L51.3984 55.8359L98.0781 0.757812L109.406 9.9375L62.5312 65.6016C66.9583 71.5911 71.9714 76.7344 77.5703 81.0312C83.2995 85.1979 88.638 89.1693 93.5859 92.9453C98.5339 96.5911 102.635 100.302 105.891 104.078C109.276 107.854 110.969 112.281 110.969 117.359C110.578 120.354 109.211 122.372 106.867 123.414C106.346 123.674 105.435 123.805 104.133 123.805C102.831 123.805 100.878 122.828 98.2734 120.875L53.7422 80.0547Z"/>
</mask>
<path d="M53.7422 80.0547C50.3568 82.7891 47.1667 86.5 44.1719 91.1875C41.3073 95.875 38.3125 100.432 35.1875 104.859C32.1927 109.286 29.0026 113.128 25.6172 116.383C22.2318 119.638 18.5208 121.266 14.4844 121.266C10.5781 121.266 7.84375 120.745 6.28125 119.703C4.71875 118.531 3.9375 117.099 3.9375 115.406C3.9375 113.583 4.0026 112.151 4.13281 111.109L41.2422 67.1641C34.4714 58.8307 28.7422 51.7344 24.0547 45.875C19.4974 40.0156 15.7214 35.1979 12.7266 31.4219C9.73177 27.6458 7.38802 24.7161 5.69531 22.6328C4.13281 20.4193 2.96094 18.8568 2.17969 17.9453C1.52865 16.9036 1.07292 16.1224 0.8125 15.6016C0.8125 12.9974 2.57031 11.1745 6.08594 10.1328C9.08073 9.22135 11.6849 9.35156 13.8984 10.5234L51.3984 55.8359L98.0781 0.757812L109.406 9.9375L62.5312 65.6016C66.9583 71.5911 71.9714 76.7344 77.5703 81.0312C83.2995 85.1979 88.638 89.1693 93.5859 92.9453C98.5339 96.5911 102.635 100.302 105.891 104.078C109.276 107.854 110.969 112.281 110.969 117.359C110.578 120.354 109.211 122.372 106.867 123.414C106.346 123.674 105.435 123.805 104.133 123.805C102.831 123.805 100.878 122.828 98.2734 120.875L53.7422 80.0547Z" fill="#E0BF2B"/>
<path d="M53.7422 80.0547L55.7694 77.8432L53.8659 76.0984L51.8572 77.7209L53.7422 80.0547ZM44.1719 91.1875L41.6438 89.5723L41.6277 89.5976L41.612 89.6231L44.1719 91.1875ZM35.1875 104.859L32.7366 103.129L32.7194 103.154L32.7026 103.178L35.1875 104.859ZM25.6172 116.383L23.5379 114.22L25.6172 116.383ZM6.28125 119.703L4.48125 122.103L4.54787 122.153L4.61715 122.199L6.28125 119.703ZM4.13281 111.109L1.84072 109.174L1.26639 109.854L1.15598 110.737L4.13281 111.109ZM41.2422 67.1641L43.5343 69.0996L45.1376 67.201L43.5705 65.2723L41.2422 67.1641ZM24.0547 45.875L21.6866 47.7168L21.6992 47.733L21.7121 47.7491L24.0547 45.875ZM5.69531 22.6328L3.24441 24.3629L3.30295 24.4458L3.36697 24.5246L5.69531 22.6328ZM2.17969 17.9453L-0.364307 19.5353L-0.244812 19.7265L-0.0980823 19.8977L2.17969 17.9453ZM0.8125 15.6016H-2.1875V16.3098L-1.87078 16.9432L0.8125 15.6016ZM6.08594 10.1328L6.9382 13.0092L6.94882 13.0061L6.95942 13.0028L6.08594 10.1328ZM13.8984 10.5234L16.2096 8.61073L15.8293 8.15118L15.3021 7.87207L13.8984 10.5234ZM51.3984 55.8359L49.0873 57.7486L51.3711 60.5083L53.6871 57.7756L51.3984 55.8359ZM98.0781 0.757812L99.9669 -1.57299L97.6869 -3.42057L95.7895 -1.18183L98.0781 0.757812ZM109.406 9.9375L111.701 11.8699L113.67 9.53144L111.295 7.6067L109.406 9.9375ZM62.5312 65.6016L60.2365 63.6692L58.7112 65.4805L60.1187 67.3847L62.5312 65.6016ZM77.5703 81.0312L75.7439 83.4112L75.7745 83.4347L75.8058 83.4575L77.5703 81.0312ZM93.5859 92.9453L91.7659 95.3302L91.786 95.3455L91.8063 95.3605L93.5859 92.9453ZM105.891 104.078L103.618 106.037L103.637 106.059L103.657 106.081L105.891 104.078ZM110.969 117.359L113.944 117.747L113.969 117.554V117.359H110.969ZM106.867 123.414L105.649 120.673L105.586 120.7L105.526 120.731L106.867 123.414ZM98.2734 120.875L96.2463 123.086L96.3552 123.186L96.4734 123.275L98.2734 120.875ZM51.8572 77.7209C48.1612 80.7061 44.7667 84.6842 41.6438 89.5723L46.7 92.8027C49.5666 88.3158 52.5524 84.872 55.6272 82.3885L51.8572 77.7209ZM41.612 89.6231C38.7815 94.255 35.8229 98.757 32.7366 103.129L37.6384 106.589C40.8021 102.108 43.8331 97.495 46.7317 92.7519L41.612 89.6231ZM32.7026 103.178C29.8099 107.455 26.7525 111.129 23.5379 114.22L27.6965 118.545C31.2527 115.126 34.5755 111.118 37.6724 106.54L32.7026 103.178ZM23.5379 114.22C20.6131 117.033 17.6193 118.266 14.4844 118.266V124.266C19.4224 124.266 23.8504 122.243 27.6965 118.545L23.5379 114.22ZM14.4844 118.266C10.652 118.266 8.71209 117.718 7.94535 117.207L4.61715 122.199C6.97541 123.771 10.5043 124.266 14.4844 124.266V118.266ZM8.08125 117.303C7.14191 116.599 6.9375 116.001 6.9375 115.406H0.9375C0.9375 118.197 2.29559 120.464 4.48125 122.103L8.08125 117.303ZM6.9375 115.406C6.9375 113.632 7.00207 112.342 7.10965 111.481L1.15598 110.737C1.00313 111.96 0.9375 113.535 0.9375 115.406H6.9375ZM6.4249 113.045L43.5343 69.0996L38.9501 65.2285L1.84072 109.174L6.4249 113.045ZM43.5705 65.2723C36.8026 56.9426 31.0785 49.8525 26.3973 44.0009L21.7121 47.7491C26.4058 53.6163 32.1401 60.7189 38.9138 69.0558L43.5705 65.2723ZM26.4227 44.0332C21.8624 38.1698 18.08 33.344 15.0771 29.5577L10.3761 33.2861C13.3627 37.0519 17.1324 41.8614 21.6866 47.7168L26.4227 44.0332ZM15.0771 29.5577C12.0797 25.7784 9.72743 22.838 8.02365 20.741L3.36697 24.5246C5.04861 26.5943 7.38384 29.5133 10.3761 33.2861L15.0771 29.5577ZM8.14622 20.9028C6.5795 18.6832 5.33803 17.0203 4.45746 15.9929L-0.0980823 19.8977C0.583849 20.6933 1.68613 22.1553 3.24441 24.3629L8.14622 20.9028ZM4.72368 16.3553C4.08058 15.3264 3.68879 14.6459 3.49578 14.2599L-1.87078 16.9432C-1.54295 17.5989 -1.02329 18.4809 -0.364307 19.5353L4.72368 16.3553ZM3.8125 15.6016C3.8125 15.0517 3.96744 14.6986 4.29039 14.3637C4.68376 13.9557 5.46885 13.4446 6.9382 13.0092L5.23367 7.25642C3.1874 7.86272 1.33577 8.78386 -0.0286735 10.1988C-1.46353 11.6868 -2.1875 13.5472 -2.1875 15.6016H3.8125ZM6.95942 13.0028C9.39599 12.2613 11.1469 12.4612 12.4948 13.1748L15.3021 7.87207C12.2229 6.24192 8.76547 6.18144 5.21245 7.26279L6.95942 13.0028ZM11.5873 12.4361L49.0873 57.7486L53.7096 53.9232L16.2096 8.61073L11.5873 12.4361ZM53.6871 57.7756L100.367 2.69746L95.7895 -1.18183L49.1098 53.8963L53.6871 57.7756ZM96.1894 3.08861L107.517 12.2683L111.295 7.6067L99.9669 -1.57299L96.1894 3.08861ZM107.112 8.00509L60.2365 63.6692L64.826 67.534L111.701 11.8699L107.112 8.00509ZM60.1187 67.3847C64.7031 73.5872 69.9107 78.9345 75.7439 83.4112L79.3968 78.6513C74.0321 74.5342 69.2135 69.5951 64.9438 63.8184L60.1187 67.3847ZM75.8058 83.4575C81.5188 87.6124 86.8386 91.5699 91.7659 95.3302L95.406 90.5605C90.4374 86.7687 85.0802 82.7835 79.3348 78.605L75.8058 83.4575ZM91.8063 95.3605C96.6135 98.9026 100.539 102.465 103.618 106.037L108.163 102.119C104.732 98.1393 100.454 94.2797 95.3655 90.5301L91.8063 95.3605ZM103.657 106.081C106.548 109.306 107.969 113.019 107.969 117.359H113.969C113.969 111.543 112.004 106.403 108.124 102.075L103.657 106.081ZM107.994 116.971C107.71 119.146 106.853 120.137 105.649 120.673L108.086 126.155C111.569 124.607 113.446 121.563 113.944 117.747L107.994 116.971ZM105.526 120.731C105.671 120.658 105.668 120.694 105.369 120.737C105.098 120.776 104.695 120.805 104.133 120.805V126.805C105.461 126.805 107.004 126.7 108.209 126.097L105.526 120.731ZM104.133 120.805C104.162 120.805 103.84 120.792 103.033 120.389C102.275 120.01 101.294 119.391 100.073 118.475L96.4734 123.275C97.8568 124.313 99.1547 125.158 100.35 125.756C101.496 126.329 102.802 126.805 104.133 126.805V120.805ZM100.301 118.664L55.7694 77.8432L51.715 82.2661L96.2463 123.086L100.301 118.664Z" fill="black" mask="url(#path-1-outside-1_1_17)"/>
</svg>
